<svg xmlns="http://www.w3.org/2000/svg" width="179" height="40" viewBox="0 0 179 40">
    <g fill="none" fill-rule="nonzero">
        <path fill="#6DB42D" d="M160.02 32.957h-3.234V7.758h3.01c5.353 0 9.59 2.007 9.59 12.488 0 10.146-4.126 12.71-9.366 12.71M158.57 1.96h-26.759c9.812 0 14.829 3.568 14.829 10.927 0 4.906-2.341 7.805-7.247 9.923l9.477 15.833h10.592c9.032 0 18.063-3.68 18.063-18.509 0-15.163-9.254-18.174-18.955-18.174"/>
        <g fill="#008B39">
            <path d="M138.612 12.998c0-3.79-2.118-5.352-6.913-5.352h-3.456v11.15h4.125c4.014 0 6.244-1.672 6.244-5.798zM132.145 24.26h-3.902v14.383h11.819z"/>
        </g>
        <path fill="#6DB42D" d="M104.828 24.706l4.237-16.948 4.237 16.948h-8.474zm-.334-22.746L93.12 38.643h8.14l2.118-8.25h11.484l2.118 8.25h3.457V1.96H104.494zM91.894 5.082l-3.902 4.571c-2.007-1.784-4.125-2.675-6.69-2.675-4.906 0-8.474 3.679-8.474 13.268 0 9.254 3.568 13.045 8.586 13.045 3.121 0 5.24-1.45 7.358-3.122l3.568 4.572C90 37.082 86.096 39.312 81.08 39.312c-9.7 0-16.39-6.69-16.39-19.178C64.689 7.758 71.713.957 80.856.957c4.794.223 8.028 1.672 11.038 4.125M46.292 39.535c-9.255 0-13.938-5.352-13.938-12.934V2.071h7.805v24.196c0 4.906 1.896 7.359 6.133 7.359s6.243-2.453 6.243-7.36V1.96h7.805v24.53c-.111 7.47-4.794 13.045-14.048 13.045M13.623 18.796c4.125 0 6.355-1.672 6.355-5.798 0-3.79-2.118-5.352-6.913-5.352H9.497v11.15h4.126zM9.497 24.26v14.383H1.692V1.96h11.485c9.811 0 14.829 3.568 14.829 10.927 0 4.906-2.342 7.805-7.248 9.923l9.478 15.833h-8.809L13.623 24.26H9.497z"/>
    </g>
</svg>
