<svg xmlns="http://www.w3.org/2000/svg" width="152" height="70" viewBox="0 0 152 70">
    <g fill="none" fill-rule="nonzero">
        <g fill="#010101">
            <path d="M33.21 62.333c0-.323-.108-.754-.216-1.077a2.345 2.345 0 0 0-.538-.862 2.345 2.345 0 0 0-.862-.538c-.323-.108-.754-.215-1.077-.215H27.61c-.216 0-.431 0-.539.107-.108.108-.215.323-.108.539v7.969c0 .108 0 .215.108.215h1.185c.107 0 .107-.107.107-.215v-3.23h2.262c.538 0 .97-.109 1.4-.324.323-.215.646-.43.862-.754.215-.323.323-.538.43-.861-.107-.216-.107-.431-.107-.754zm-1.723 1.184c-.324.324-.862.431-1.293.431h-2.046v-3.015h1.939c.323 0 .538 0 .861.108.215.107.43.215.539.43.107.108.215.323.323.539 0 .215.107.323.107.538 0 .323-.107.646-.43.97zM37.625 59.856c-.108-.108-.323-.215-.538-.108h-.431c-.216 0-.323 0-.431.108-.108.108-.215.323-.215.43l-2.908 8.078v.215c0 .108.108.108.215.108h1.185l.108-.108.646-1.83h3.446l.538 1.615c0 .107.108.215.108.215h1.185c.107 0 .107 0 .215-.108v-.215l-2.8-8.077-.323-.323zm-2.046 5.6l.754-2.477.538-1.723h.108l.538 1.83.754 2.478H35.58v-.108zM45.917 59.748c-.107 0-.215 0-.215.108l-1.077 1.938-1.077 2.047-.97-1.939-1.076-2.046c0-.108-.108-.108-.108-.108h-1.292v.108l2.908 5.17v3.338c0 .107 0 .215.107.215h1.293v-3.554l2.907-5.17v-.107h-1.4zM55.825 59.64h-.43c-.108 0-.324 0-.432.108a1.487 1.487 0 0 0-.323.431l-1.615 4.2-.754 1.83-.754-1.938-1.615-4.092c-.108-.215-.108-.323-.323-.43-.108-.108-.323-.108-.43-.108h-.432c-.215 0-.43 0-.538.215-.108.108-.108.323-.108.538v7.862c0 .108 0 .215.108.215h1.077c.107 0 .107-.107.107-.215v-6.139h.108l.754 1.831 1.185 3.016c0 .215.107.323.215.43.108.108.323.108.43.108h.432c.215 0 .323 0 .43-.108.108-.107.216-.323.216-.43l1.184-3.016.754-1.938h.108v6.246c0 .108 0 .215.108.215h1.076c.108 0 .108-.107.108-.215v-7.862c0-.215 0-.323-.108-.538a.823.823 0 0 0-.538-.215zM64.117 67.394h-3.554c-.215 0-.538-.107-.646-.215-.107-.215-.215-.43-.215-.646v-2.046h3.985c.107 0 .215 0 .215-.108v-.754-.215c0-.108-.108-.108-.215-.108h-3.985v-1.508c0-.215 0-.43.215-.646.216-.107.431-.215.646-.215h3.447c.107 0 .215 0 .215-.108v-.861-.216c0-.107-.108-.107-.215-.107h-3.447c-.323 0-.646.107-.969.215-.215.108-.538.323-.646.538-.215.216-.323.431-.43.754-.108.323-.108.539-.108.862v4.415c0 .323 0 .539.107.862.108.215.216.538.323.754.216.215.431.43.647.43.323.108.753.216 1.076.216h3.554c.108 0 .216 0 .216-.108v-.862-.215c0-.108-.108-.108-.216-.108zM72.302 59.64h-.862c-.107 0-.107.108-.107.216v6.677l-1.077-1.83-2.693-4.632c-.107-.107-.215-.323-.323-.43-.107-.108-.323-.108-.43-.108h-.431c-.216 0-.43 0-.539.215-.107.108-.215.323-.107.539v8.077c0 .107 0 .215.107.215h1.077c.108 0 .108-.108.108-.215v-6.677l1.077 1.83 2.8 4.631c.108.108.215.323.323.431.108.108.323.108.43.108h.432c.215 0 .43 0 .538-.216.108-.107.215-.323.108-.538V60.07c0-.107 0-.215-.108-.215-.108-.108-.215-.215-.323-.215zM80.163 59.748h-6.461v1.185h2.585v7.43c0 .108 0 .216.107.216h1.185c.108 0 .108-.108.108-.215v-7.539h2.692v-.969-.215c-.108.107-.108.107-.216.107zM90.717 65.24c-.107-.323-.323-.538-.646-.753a2.345 2.345 0 0 0-.861-.539c-.323-.107-.647-.323-.97-.43l-.969-.431c-.215-.108-.43-.216-.646-.431a.84.84 0 0 1-.43-.43c-.108-.109-.108-.324-.108-.54 0-.322.107-.538.323-.753a2.078 2.078 0 0 1 1.077-.323c.43 0 .753 0 1.184.107l1.292.324h.108s.108 0 .108-.108l.323-.862v-.107s0-.108-.108-.108c-.215-.108-.43-.215-.646-.215-.323.107-.538.107-.754.107-.215 0-.43-.107-.754-.107h-.646c-.754-.108-1.507.215-2.046.646-.43.43-.754 1.077-.646 1.723 0 .323.108.538.215.861.108.216.323.539.539.646.323.216.538.431.861.539.323.215.754.323 1.293.538.323.108.646.216.861.323l.646.324c.108.107.323.215.323.43.108.216.108.323.108.539 0 .323-.215.754-.43.969-.431.323-.97.43-1.508.323a5.003 5.003 0 0 1-2.477-.646h-.108s-.108 0-.108.108l-.323.753c-.107.108 0 .216.108.216.538.215 1.077.43 1.615.538.539.108 1.077.108 1.616.108.43 0 .754 0 1.184-.108.323-.107.646-.215.97-.43.323-.216.538-.431.646-.754V66.21v.107c0-.43-.108-.753-.216-1.076zM99.333 62.225c-.108-.538-.431-.97-.754-1.4-.323-.43-.754-.646-1.185-.861a4.321 4.321 0 0 0-1.615-.323c-.539 0-1.077.107-1.508.323-.43.215-.861.538-1.184.861-.324.43-.647.862-.754 1.4a6.098 6.098 0 0 0-.323 1.939c0 1.507.323 2.692.969 3.446.754.754 1.723 1.184 2.8 1.184 1.077.108 2.154-.323 2.908-1.184.753-.97 1.076-2.154.969-3.446-.108-.754-.108-1.293-.323-1.939zm-1.185 3.23c-.108.432-.215.755-.43 1.078-.216.323-.431.538-.755.754-.323.215-.753.323-1.184.323-.43 0-.862-.108-1.185-.216-.323-.107-.538-.43-.754-.646-.215-.323-.323-.754-.43-1.077-.108-.43-.108-.969-.108-1.4 0-.43 0-.861.108-1.292.107-.43.215-.754.43-1.077.216-.323.431-.538.754-.754.323-.215.754-.323 1.077-.215.43 0 .862.108 1.185.323.323.215.538.43.754.754.215.323.323.754.323 1.077.107.43.107.861.107 1.292.216.215.216.646.108 1.077zM106.871 67.394h-3.554c-.215 0-.538 0-.754-.215-.215-.215-.323-.43-.215-.754v-6.461c0-.108 0-.216-.108-.216h-1.184c-.108 0-.108.108-.108.216v6.353c0 .324 0 .539.108.862.107.215.215.538.323.754.215.215.43.43.646.538.323.108.646.216 1.077.216h3.661c.108 0 .216 0 .216-.108v-.969-.216h-.108zM114.517 59.748h-.969c-.108 0-.108.108-.108.216v7.43c-.323.108-.646.108-.969.108h-.646c-.43 0-.862 0-1.4-.215-.323-.108-.538-.323-.754-.539-.215-.215-.323-.538-.323-.861-.108-.431-.108-.862-.108-1.293v-4.738c0-.108 0-.215-.107-.215h-1.185c-.108 0-.108.107-.108.215v4.738c0 .647.108 1.293.216 1.939.107.43.323.861.646 1.292.323.323.754.539 1.185.646.538.108 1.184.216 1.83.216h.862c.323 0 .646-.108.97-.108.322 0 .645-.215.86-.43.108-.216.216-.54.216-.862v-7.323-.216h-.108zM122.271 59.748h-6.246c-.108 0-.215 0-.215.108v1.185h2.585v7.43c0 .108 0 .216.107.216h1.185c.107 0 .107-.108.107-.216v-7.646h2.693v-.969-.215c-.108.107-.108.107-.216.107zM124.64 59.748h-.969c-.108 0-.108.108-.108.216v8.292c0 .108 0 .215.108.215h1.185c.107 0 .107-.107.107-.215v-8.292c0-.108 0-.216-.107-.216h-.216zM133.902 62.225c-.108-.538-.43-.97-.754-1.4-.323-.43-.754-.646-1.185-.861a4.321 4.321 0 0 0-1.615-.323c-.538 0-1.077.107-1.508.323-.43.215-.861.538-1.184.861-.323.43-.646.862-.754 1.4a6.098 6.098 0 0 0-.323 1.939c0 1.507.323 2.692.97 3.446.753.754 1.722 1.184 2.8 1.184 1.076.108 2.153-.323 2.907-1.184.754-.97 1.077-2.154.969-3.446-.108-.754-.108-1.293-.323-1.939zm-1.077 1.939c0 .43 0 .861-.108 1.292-.107.43-.215.754-.43 1.077-.216.323-.431.538-.754.754-.323.215-.754.323-1.185.323-.43 0-.861-.108-1.185-.216-.323-.107-.538-.43-.753-.646-.216-.323-.323-.754-.431-1.077-.108-.43-.108-.969-.108-1.4 0-.43 0-.861.108-1.292.108-.43.215-.754.43-1.077.216-.323.431-.538.754-.754.324-.215.754-.323 1.077-.215.431 0 .862.108 1.185.323.323.215.538.43.754.754.215.323.323.754.323 1.077.323.215.323.646.323 1.077zM142.302 59.64h-.862c-.107 0-.107.108-.107.216v6.677l-1.077-1.83-2.693-4.632c-.107-.107-.215-.323-.323-.43-.107-.108-.323-.108-.43-.108h-.431c-.216 0-.43 0-.539.215-.107.108-.215.323-.107.539v7.861c0 .108 0 .216.107.216h1.077c.108 0 .108-.108.108-.216v-6.677l1.077 1.831 2.8 4.63c.108.109.215.324.323.432.108.107.323.107.43.107h.432c.215 0 .43 0 .538-.215.108-.108.215-.323.108-.539v-7.861c0-.108 0-.215-.108-.215-.108.107-.215 0-.323 0zM150.271 66.21c0-.323-.108-.646-.215-.97-.108-.323-.323-.538-.646-.753a2.345 2.345 0 0 0-.862-.539c-.323-.107-.646-.323-.97-.43l-.968-.431c-.216-.108-.431-.216-.647-.431a.84.84 0 0 1-.43-.43c-.108-.109-.108-.324-.108-.54 0-.322.108-.538.323-.753a2.078 2.078 0 0 1 1.077-.323c.43 0 .754 0 1.185.107l1.292.324h.108s.107 0 .107-.108l.323-.862v-.107s0-.108-.107-.108c-.216-.108-.431-.215-.646-.215-.216-.108-.431-.108-.754-.108-.216 0-.431-.108-.754-.108h-.646c-.754-.108-1.508.216-2.046.646-.431.431-.754 1.077-.647 1.723 0 .323.108.539.216.862.107.215.323.538.538.646.323.215.539.43.862.539.323.215.754.323 1.292.538.323.108.646.215.862.323l.646.323c.107.108.323.216.323.43.108.216.108.324.108.54 0 .322-.216.753-.431.969-.431.323-.97.43-1.508.323a5.003 5.003 0 0 1-2.477-.646h-.108s-.107 0-.107.107l-.323.754c-.108.108 0 .215.107.215.539.216 1.077.431 1.616.539.538.108 1.077.108 1.615.108.43 0 .754 0 1.185-.108.323-.108.646-.215.969-.43.323-.216.538-.432.646-.755 0-.107.108-.538 0-.861z"/>
        </g>
        <g fill="#010101">
            <path d="M30.84 1.164h-2.692c-.323 0-.538 0-.861.215-.216.108-.324.43-.324.862v31.338c0 .43.108.754.324.862.215.107.538.215.861.215h2.692c.323 0 .647 0 .862-.215.108-.108.215-.431.215-.862V2.133c0-.43-.107-.754-.215-.862-.215-.107-.539-.107-.862-.107zM63.902 1.164h-2.585c-.323 0-.538 0-.754.107-.215.108-.323.431-.323.862V27.44h-.107l-4.093-7L45.702 3.21c-.323-.539-.754-1.077-1.185-1.616a2.32 2.32 0 0 0-1.723-.43h-1.4c-.969 0-1.615.215-2.046.646-.43.538-.646 1.292-.538 1.938V33.58c0 .43.107.754.323.862.215.107.538.215.861.215h2.585c.323 0 .646 0 .861-.215.108-.108.216-.431.216-.862V8.271h.107l3.985 6.785L58.194 32.61c.323.538.754 1.077 1.185 1.615a2.32 2.32 0 0 0 1.723.43h1.4c.97 0 1.615-.214 2.046-.645.43-.539.646-1.293.539-1.939V2.133c0-.43-.108-.754-.216-.862-.323-.107-.646-.107-.97-.107zM95.887 11.071c0-1.4-.216-2.8-.754-4.092a10.757 10.757 0 0 0-2.154-3.123c-.97-.862-2.046-1.615-3.339-2.046-1.4-.539-2.8-.754-4.2-.754h-11.2c-.753-.108-1.4.108-1.938.646-.43.539-.646 1.292-.646 1.939v29.938c0 .43.107.754.323.862.215.107.538.215.861.215h2.693c.323 0 .646 0 .861-.215.108-.108.216-.431.216-.862v-12.17h8.615c1.83.108 3.662-.322 5.385-1.076 1.292-.646 2.369-1.616 3.23-2.692.754-.97 1.293-2.154 1.616-3.447.215-.969.323-2.046.43-3.123zm-5.17.323c.108 1.508-.538 3.016-1.507 4.093-.97 1.077-2.693 1.615-4.847 1.615H76.61V5.58h7.646c1.077 0 2.261.108 3.23.538.754.324 1.4.862 2.047 1.4.43.539.861 1.185.969 1.831.108.754.215 1.4.215 2.046zM112.794 3.21c-.107-.646-.43-1.185-.861-1.616-.539-.323-1.293-.538-1.939-.43h-1.615c-.646 0-1.185.107-1.723.43-.431.431-.754.97-.97 1.616L95.026 33.579a.687.687 0 0 0 0 .646c.108.216.323.323.646.323h3.662c.215 0 .538 0 .754-.215.215-.108.323-.323.43-.539l2.262-6.784h12.923l2.261 6.784c.108.431.324.647.431.647.216.107.539.107.862.107h3.554c.215 0 .538-.107.646-.323a.687.687 0 0 0 0-.646l-10.662-30.37zm-8.723 19.492l2.908-9.477 2.046-6.57h.215l2.154 6.786 2.908 9.153h-10.23v.108zM149.948 21.733c-.538-1.077-1.292-1.939-2.261-2.692-.97-.754-2.047-1.508-3.124-1.939l-3.553-1.615a78.909 78.909 0 0 0-3.77-1.616c-.861-.43-1.83-.861-2.584-1.4-.646-.43-1.185-.861-1.508-1.507-.323-.539-.538-1.185-.538-1.831 0-1.077.43-2.046 1.292-2.8.861-.754 2.154-1.185 3.985-1.185 1.4 0 2.907.108 4.307.431 1.616.323 3.231.754 4.846 1.292.108.108.216.108.431 0 .108 0 .216-.215.323-.43l1.077-3.016c.108-.108.108-.323 0-.538-.108-.216-.215-.323-.323-.323a20.948 20.948 0 0 0-2.37-.862c-.86-.215-1.722-.43-2.691-.646-.862-.108-1.831-.323-2.693-.323-.861 0-1.83-.108-2.584-.108-3.447 0-6.139.754-7.862 2.37a8.293 8.293 0 0 0-2.585 6.353c0 1.077.216 2.154.647 3.231.538.97 1.184 1.83 2.046 2.477 1.077.861 2.154 1.615 3.338 2.154 1.293.646 2.908 1.4 4.631 2.046 1.185.43 2.262.97 3.123 1.4.862.323 1.615.861 2.262 1.4.538.43 1.077.97 1.4 1.615.323.646.538 1.293.43 2.046 0 1.4-.646 2.8-1.723 3.554-1.184.862-3.123 1.4-5.707 1.4a24.52 24.52 0 0 1-9.585-2.261c-.108-.108-.323-.108-.538 0-.216.107-.324.215-.324.323l-1.292 2.908c-.215.538-.108.861.216.969a20.41 20.41 0 0 0 6.138 1.938c2.046.323 4.092.539 6.246.539 1.508 0 3.016-.216 4.523-.539 1.293-.323 2.585-.969 3.77-1.723 1.076-.754 1.938-1.83 2.476-3.015.647-1.293.97-2.8.97-4.308 0-1.292-.323-2.585-.862-3.77z"/>
        </g>
        <path fill="#632466" d="M150.702 46.179H14.579V1.056h-1.83v45.123H.901v1.83h11.846v11.632h1.83V48.01h136.124z"/>
    </g>
</svg>
