<svg xmlns="http://www.w3.org/2000/svg" width="114" height="110" viewBox="0 0 114 110">
    <g fill="none" fill-rule="evenodd">
        <path fill="#222" d="M2.505 105.656c-.119 1.337.788 2.553 2.363 2.553 1.504 0 2.291-1.097 2.291-2.267 0-1.599-1.289-2.051-2.53-2.481-1.36-.454-3.412-1.17-3.412-3.651 0-2.053 1.408-3.675 3.77-3.675 2.148 0 3.628 1.55 3.604 3.555H6.825c.024-1.17-.788-1.957-1.886-1.957-1.24 0-1.956.835-1.956 1.934 0 1.503 1.336 1.98 2.554 2.362 1.55.501 3.389 1.17 3.389 3.627 0 2.387-1.528 4.153-4.201 4.153-2.72 0-3.986-1.981-3.986-4.153h1.766z"/>
        <path fill="#F32A6F" d="M24.982 106.229c1.717 0 3.173-1.432 3.173-3.365 0-1.933-1.456-3.341-3.173-3.341-1.718 0-3.175 1.408-3.175 3.34 0 1.934 1.457 3.366 3.175 3.366m0-10.405c4.82 0 7.135 3.795 7.135 7.04 0 3.246-2.315 7.064-7.135 7.064-4.821 0-7.136-3.818-7.136-7.064 0-3.245 2.315-7.04 7.136-7.04"/>
        <path fill="#222" d="M42.803 98.043h-2.029v-1.598h2.029v-.55c0-.906.168-1.67.572-2.338a4.197 4.197 0 0 1 1.48-1.408c.763-.43 1.598-.596 2.6-.596h.36v1.598h-.36c-.523 0-2.886.048-2.886 2.745v.549h4.248v-4.606h1.766v4.606h3.03v1.598h-3.03v11.455h-1.766V98.043H44.57v11.455h-1.766V98.043zM62.963 109.499h1.767v-17.66h-1.767zM76.563 103.031c0 2.983 2.435 5.178 5.227 5.178 2.863 0 5.13-2.29 5.13-5.154 0-2.96-2.219-5.321-5.178-5.321-2.84 0-5.18 2.266-5.18 5.297zm12.028 6.467h-1.67v-2.434h-.048c-.74 1.121-2.243 2.745-5.083 2.745-3.914 0-6.993-2.864-6.993-6.921 0-3.103 2.268-6.754 6.945-6.754 1.121 0 3.556.168 5.13 2.578h.048v-2.267h1.671v13.053zM100.829 103.055c0 2.864 2.266 5.154 5.105 5.154 2.841 0 5.227-2.195 5.227-5.178 0-3.03-2.243-5.297-5.178-5.297s-5.154 2.338-5.154 5.321zm.095-11.216v6.849h.048c1.17-1.79 3.054-2.554 5.011-2.554 4.796 0 6.944 3.699 6.944 6.897 0 3.866-3.006 6.777-6.993 6.777-2.146 0-3.889-.835-5.058-2.553h-.047v2.243h-1.672v-17.66h1.767zM56.833 56.698c-9.711 0-17.614-7.9-17.614-17.614 0-3.954 1.282-7.691 3.705-10.806l.973.756a16.224 16.224 0 0 0-3.444 10.05c0 9.033 7.347 16.382 16.38 16.382 9.033 0 16.38-7.349 16.38-16.382 0-9.032-7.347-16.38-16.38-16.38-.684 0-1.371.042-2.043.126l-.152-1.223c.722-.09 1.46-.135 2.195-.135 9.712 0 17.614 7.9 17.614 17.612 0 9.713-7.902 17.614-17.614 17.614M58.12 16.689a20.691 20.691 0 0 0-.898-.033l.016-.917c.312.006.624.017.934.034l-.053.916zm-2.694.007l-.057-.915c.31-.019.622-.032.934-.039l.022.917c-.302.006-.6.019-.899.037zm4.482.165c-.296-.04-.593-.075-.892-.103l.087-.912c.312.029.621.066.929.108l-.124.907zm-6.268.018l-.129-.909c.308-.043.617-.081.927-.112l.094.912c-.298.03-.596.066-.892.109zm8.036.298c-.29-.065-.585-.123-.88-.175l.16-.903c.308.055.614.115.917.182l-.197.896zm-9.8.025l-.203-.893c.303-.07.608-.132.916-.188l.164.902c-.295.054-.587.114-.878.18zm11.535.431c-.286-.087-.574-.17-.864-.246l.233-.887c.302.08.601.165.898.256l-.267.877zm-13.271.035l-.274-.875c.297-.093.596-.18.899-.26l.236.885a22.62 22.62 0 0 0-.861.25zm14.969.56c-.279-.11-.56-.214-.843-.314l.304-.865c.294.104.587.213.877.327l-.338.853zm-16.66.044l-.343-.85c.29-.117.58-.228.874-.332l.308.863c-.281.1-.562.207-.838.319zm18.305.688a20.66 20.66 0 0 0-.815-.382l.374-.838c.285.128.568.26.847.398l-.406.822zm-19.938.048l-.41-.82c.277-.139.559-.273.843-.4l.375.835a22.46 22.46 0 0 0-.808.385zm21.517.813a23.492 23.492 0 0 0-.781-.446l.439-.805c.273.15.544.304.812.465l-.47.786zm-23.086.052l-.475-.785c.266-.16.535-.316.808-.467l.443.803c-.262.145-.522.295-.776.449zm24.59.932a22.98 22.98 0 0 0-.741-.507l.501-.767c.261.171.518.347.772.528l-.532.746zm-26.087.057l-.536-.745c.254-.181.51-.358.77-.53l.505.765c-.25.165-.496.335-.74.51zm27.509 1.044a21.91 21.91 0 0 0-.7-.565l.562-.724c.246.19.489.387.727.587l-.59.702zm-28.924.06l-.592-.7c.238-.2.479-.396.723-.588l.566.72c-.236.186-.468.375-.697.568zm30.25 1.149a21.87 21.87 0 0 0-.651-.618l.617-.677c.23.21.457.424.679.643l-.645.652zm-31.571.067l-.647-.651c.221-.22.447-.435.675-.645l.621.675c-.22.203-.438.409-.65.62zm32.799 1.245c-.196-.227-.396-.45-.6-.669l.669-.626c.212.228.42.46.624.695l-.693.6zm-34.021.07l-.697-.596c.203-.236.41-.47.622-.697l.671.623c-.202.22-.402.443-.596.67zm35.14 1.333a24.41 24.41 0 0 0-.546-.713l.717-.571c.194.244.383.49.567.741l-.739.543zm-36.254.078l-.742-.54c.184-.252.372-.5.567-.745l.718.569c-.186.235-.367.473-.543.716zm37.258 1.41c-.159-.255-.321-.506-.489-.755l.761-.511c.173.257.342.519.506.783l-.778.483zm-38.256.085l-.782-.478c.162-.266.33-.53.504-.789l.76.51c-.165.248-.327.5-.482.757zm39.136 1.477c-.138-.267-.279-.53-.426-.79l.799-.45c.152.27.299.544.44.82l-.813.42zm-40.012.093l-.818-.413c.14-.279.287-.556.44-.828l.8.448c-.147.26-.286.526-.422.793zm40.762 1.532c-.114-.276-.235-.55-.36-.82l.832-.385c.13.282.255.567.375.855l-.847.35zm-41.508.104l-.849-.344c.117-.29.242-.578.371-.862l.835.381c-.124.273-.243.548-.357.825zm42.127 1.58c-.092-.284-.19-.567-.293-.847l.86-.317c.108.291.209.586.305.883l-.872.282zm-42.74.115l-.873-.278c.094-.298.194-.594.3-.887l.863.312c-.101.281-.199.566-.29.853zm43.222 1.616c-.07-.292-.144-.583-.223-.87l.882-.245c.084.299.162.6.233.904l-.892.211zm-43.694.116l-.894-.206c.071-.305.147-.607.228-.907l.885.242c-.08.288-.152.579-.22.87zm44.035 1.647a21.456 21.456 0 0 0-.154-.884l.901-.175c.06.304.112.61.16.92l-.907.14zm-44.366.118l-.909-.134c.046-.31.098-.617.155-.922l.901.17c-.056.293-.103.589-.147.886zm44.564 1.665a22.114 22.114 0 0 0-.081-.893l.911-.102c.035.309.063.62.085.93l-.915.065zm-44.754.12l-.915-.061c.021-.312.047-.623.08-.93l.912.097a20.52 20.52 0 0 0-.077.894zm45.727 1.687l-.917-.013.001-.177c0-.24-.003-.48-.01-.718l.916-.03c.007.249.01.498.01.748v.19zm-46.69.118l-.003-.303c0-.214.003-.422.008-.63l.917.025c-.006.2-.008.4-.008.6l.002.3-.916.008zm46.602 1.747l-.913-.08c.026-.297.046-.596.06-.896l.915.043a22.45 22.45 0 0 1-.062.933zm-46.506.12a25.72 25.72 0 0 1-.067-.931l.915-.048c.016.3.037.599.065.896l-.913.083zm46.27 1.736l-.904-.153c.05-.295.093-.59.13-.889l.91.116c-.04.31-.084.62-.136.926zm-46.023.117c-.054-.305-.1-.613-.142-.923l.91-.12c.039.297.085.593.134.887l-.902.156zm45.637 1.713l-.888-.226c.074-.289.141-.58.203-.874l.896.188c-.063.306-.134.61-.21.912zm-45.242.115c-.077-.3-.15-.604-.217-.91l.898-.193c.062.293.13.585.206.874l-.887.229zm44.71 1.677l-.867-.295c.096-.283.188-.568.273-.856l.879.26c-.089.3-.184.597-.284.891zm-44.171.112c-.101-.293-.197-.59-.287-.888l.877-.266c.087.288.179.573.277.855l-.867.3zm43.497 1.635l-.84-.368c.12-.274.232-.55.34-.83l.856.33c-.113.293-.231.582-.356.868zm-42.816.104a23.665 23.665 0 0 1-.358-.862l.854-.333c.109.277.223.553.344.826l-.84.369zm.818 1.675a26.11 26.11 0 0 1-.426-.829l.824-.403c.131.27.269.535.41.798l-.808.434zm.95 1.607a25.938 25.938 0 0 1-.49-.793l.789-.468c.153.258.309.512.472.763l-.77.498zm1.077 1.526a27.744 27.744 0 0 1-.552-.752l.748-.53c.172.245.35.487.533.725l-.73.557zm1.194 1.435c-.208-.23-.41-.466-.61-.704l.703-.588c.192.23.389.456.59.68l-.683.612zm1.307 1.338a23.64 23.64 0 0 1-.667-.656l.656-.64c.209.213.423.424.64.63l-.63.666zm1.408 1.23a22.572 22.572 0 0 1-.717-.601l.603-.69c.225.196.455.388.688.576l-.574.714zm1.501 1.113a25.47 25.47 0 0 1-.76-.541l.544-.737c.242.178.486.352.734.522l-.518.756zm1.589.99c-.27-.153-.537-.313-.803-.478l.483-.778c.256.158.513.312.774.461l-.454.796zm1.662.862c-.283-.132-.563-.27-.841-.414l.423-.813c.265.138.534.27.806.397l-.388.83zm1.727.725c-.292-.11-.583-.224-.87-.345l.354-.845c.275.115.555.226.837.33l-.32.86zm15.588.254l-.29-.87c.285-.095.566-.197.845-.303l.326.857c-.29.111-.584.216-.88.316zm-13.808.328a24.54 24.54 0 0 1-.894-.273l.284-.871c.284.093.571.18.86.262l-.25.882zm12.014.194l-.22-.89c.29-.072.58-.15.867-.233l.255.88c-.297.087-.599.168-.902.243zm-10.196.242a22.72 22.72 0 0 1-.913-.2l.213-.89c.292.069.583.133.877.19l-.177.9zm8.365.135l-.148-.905c.296-.049.59-.103.883-.163l.184.898c-.304.063-.61.12-.919.17zm-6.518.154c-.31-.036-.62-.078-.927-.126l.141-.905c.295.045.592.086.891.12l-.105.91zm4.663.075l-.075-.914c.3-.025.597-.056.892-.092l.113.91c-.308.038-.618.07-.93.096zm-2.8.066c-.312-.012-.623-.03-.933-.052l.068-.914c.298.022.598.038.897.05l-.032.916zm.934.015l-.003-.917c.301-.001.6-.008.898-.021l.04.916c-.31.013-.621.02-.935.022z"/>
        <path fill="#F32A6F" d="M56.8 71.336A32.26 32.26 0 0 1 32.524 60.32l2.896-2.536A28.412 28.412 0 0 0 56.8 67.486c15.66 0 28.401-12.74 28.401-28.402 0-15.66-12.74-28.4-28.401-28.4-14.917 0-27.366 11.646-28.34 26.513l-3.841-.251C25.724 20.06 39.86 6.833 56.799 6.833c17.783 0 32.251 14.468 32.251 32.251 0 17.785-14.468 32.252-32.25 32.252"/>
        <path fill="#222" d="M56.833 78.098c-21.511 0-39.013-17.501-39.013-39.013C17.82 17.573 35.322.072 56.833.072c4.262 0 8.453.683 12.454 2.03l-.448 1.59-.043-.014a37.374 37.374 0 0 0-11.963-1.956c-20.602 0-37.362 16.761-37.362 37.363s16.76 37.363 37.362 37.363c20.603 0 37.363-16.76 37.363-37.363 0-4.115-.664-8.16-1.976-12.022a37.178 37.178 0 0 0-1.876-4.521l1.478-.732a39.152 39.152 0 0 1 1.962 4.722 38.99 38.99 0 0 1 2.063 12.553c0 21.512-17.502 39.013-39.014 39.013"/>
    </g>
</svg>
