<svg xmlns="http://www.w3.org/2000/svg" width="191" height="41" viewBox="0 0 191 41">
    <g fill="none" fill-rule="nonzero">
        <g fill="#444">
            <path d="M51.02 28.716v-17.48h6.2c2.02 0 3.6.45 4.8 1.3 1.18.86 1.8 2.2 1.8 4.1 0 1.3-.3 2.33-.97 3.18-.6.86-1.45 1.44-2.42 1.8-.96.32-2.06.5-3.3.5h-2v6.6h-4.11zm4.1-9.98h1.7c1.94 0 2.95-.7 2.95-2.1 0-1.36-.97-2.03-2.86-2.03h-1.79v4.13zM70.82 29.136c-1.86 0-3.44-.6-4.67-1.72-1.23-1.17-1.85-2.74-1.85-4.76 0-1.98.62-3.55 1.8-4.77 1.24-1.2 2.78-1.84 4.62-1.84 1.76 0 3.2.6 4.3 1.8 1.1 1.18 1.64 2.84 1.64 4.9 0 .46 0 .77-.04.95H68c.04.67.35 1.2.92 1.66.57.46 1.2.7 1.9.7 1.14 0 2-.46 2.63-1.32l2.73 1.8c-1.1 1.7-2.9 2.6-5.37 2.6h.01zm-2.8-7.98h5c0-.67-.2-1.2-.6-1.66-.4-.45-.97-.67-1.72-.67-.74 0-1.36.22-1.84.67-.53.45-.8 1-.84 1.66zM79.12 28.716v-12.3h5.2l2.9 7.3h.04l2.73-7.3h5.23v12.3h-3.78v-8.1h-.1l-3.02 8.1h-2.38l-3.03-8.1h-.1v8.1h-3.7zM104.19 29.136c-1.84 0-3.38-.64-4.66-1.85-1.26-1.22-1.88-2.8-1.88-4.77 0-1.98.62-3.55 1.9-4.72 1.27-1.17 2.8-1.8 4.65-1.8 1.85 0 3.43.6 4.7 1.8 1.3 1.17 1.9 2.74 1.9 4.72 0 1.98-.6 3.55-1.9 4.77-1.27 1.2-2.85 1.84-4.7 1.84l-.01.01zm-2.06-4.37c.53.63 1.2.94 2.07.94.88 0 1.54-.3 2.07-.94.53-.63.75-1.4.75-2.25 0-.85-.28-1.57-.76-2.2-.53-.63-1.2-.95-2.07-.95-.88 0-1.54.32-2.06.95-.48.63-.74 1.35-.74 2.2.04.85.26 1.62.75 2.25h-.01zM113.3 28.716v-12.3h3.9v4.35h3.88v-4.36H125v12.3h-3.92v-4.84h-3.86v4.85h-3.92zM130.58 28.716v-9.2h-3.56v-3.1h11.04v3.1h-3.56v9.16h-3.92v.04zM140.08 28.716v-12.3h3.87v7.13h.05l4.13-7.13h4.15v12.3h-3.83v-7h-.1l-4.04 7h-4.22zM161.37 29.136c-1.94 0-3.52-.6-4.75-1.8-1.28-1.18-1.9-2.8-1.9-4.77 0-1.98.62-3.55 1.9-4.77 1.28-1.2 2.86-1.8 4.75-1.8.84 0 1.67.14 2.46.45.85.33 1.46.7 1.95 1.18l-2.3 2.7c-.2-.32-.52-.54-.9-.72-.4-.18-.8-.27-1.2-.27-.8 0-1.45.3-1.98.93-.53.63-.75 1.35-.75 2.2 0 .86.27 1.62.75 2.2.53.64 1.2.9 2.02.9.92 0 1.62-.3 2.1-.9l2.16 2.75c-.97 1.17-2.42 1.7-4.3 1.7l-.01.02zM170.22 28.716v-9.2h-3.57v-3.1h11.04v3.1h-3.57v9.16h-3.9v.04zM183.02 28.986c-.72 0-1.38-.1-2-.3-.6-.24-1.13-.64-1.62-1.27-.48-.63-.7-1.35-.7-2.3 0-2.78 2.55-4.13 7.65-4.13v-.18c0-.58-.22-1.03-.62-1.3-.38-.3-.9-.45-1.52-.45-1.1 0-2.07.4-2.95 1.26l-1.98-2.2c1.4-1.4 3.17-2.07 5.28-2.07 1.93 0 3.34.55 4.18 1.58.84 1.04 1.28 2.65 1.28 4.95v6.2h-3.56v-1.3h-.1c-.3.5-.74.9-1.35 1.16-.57.22-1.23.35-1.98.35h-.01zm1-2.7c.8 0 1.36-.22 1.8-.67.44-.45.66-1.08.66-1.84v-.4H186c-2.42 0-3.65.53-3.65 1.66 0 .45.17.76.48.94.32.23.72.32 1.2.32l-.01-.01z"/>
        </g>
        <path fill="#444" d="M19.27 11.551c-4.75 0-8.58 3.9-8.58 8.76 0 4.86 3.83 8.77 8.58 8.77s8.57-3.9 8.57-8.77c0-4.86-3.82-8.76-8.57-8.76zm0 15.96c-3.87 0-7.04-3.2-7.04-7.2 0-3.95 3.12-7.2 7.04-7.2 3.87 0 7.03 3.2 7.03 7.2-.03 3.96-3.15 7.2-7.02 7.2h-.01z"/>
        <path fill="#444" d="M31.62 21.529c-.57 6.52-5.9 11.64-12.44 11.64-6.9 0-12.5-5.7-12.5-12.76.06-7.06 5.64-12.78 12.55-12.78 1.32 0 2.6.24 3.78.6l2.19-6.6c-1.9-.64-3.87-1-5.94-1C8.62.629 0 9.429 0 20.329c0 10.86 8.62 19.67 19.26 19.67 10.25 0 18.6-8.18 19.22-18.47h-6.86z"/>
        <path fill="#B2504D" d="M24.81 10.7c2.77 1.7 4.7 4.63 5.2 8.04h11.03c-.88-8.1-5.6-14.96-12.27-18.74l-3.96 10.7z"/>
    </g>
</svg>
