<svg xmlns="http://www.w3.org/2000/svg" width="114" height="90" viewBox="0 0 114 90">
    <g fill="none" fill-rule="nonzero">
        <path fill="#D6171A" d="M16.592 33.564a9.458 9.458 0 0 1 2.744-6.848 9.199 9.199 0 0 1 13.19 0 9.392 9.392 0 0 1 2.716 6.848 9.584 9.584 0 0 1-2.664 6.873 8.793 8.793 0 0 1-6.647 2.783 8.902 8.902 0 0 1-6.7-2.759 9.54 9.54 0 0 1-2.639-6.897zm4.564 0a7.927 7.927 0 0 0 .448 2.68 4.36 4.36 0 0 0 1.583 2.041c.806.574 1.78.863 2.77.822a4.108 4.108 0 0 0 3.56-1.618 6.959 6.959 0 0 0 0-7.854 4.62 4.62 0 0 0-7.069 0 6.016 6.016 0 0 0-1.292 3.93z"/>
        <path fill="#222" d="M33.66 54.363V50.65h17.303l-2.134 3.712h-4.407v14.911h-4.22V54.363z"/>
        <g fill="#D6171A">
            <path d="M89.477 0L86.02 5.997h6.78L96.228 0zM28.753 16.503V5.997h50.381L82.592 0h-59.8v16.503zM103.115 0l-3.433 5.997h6.621v78.006h-77.55V50.678H22.79V90h89.477V0z"/>
        </g>
        <path fill="#222" d="M7.65 23.933c.993.003 1.98.155 2.928.45.744.207 1.46.5 2.134.876l.845.557-1.874 3.263c-.131-.08-.316-.212-.556-.345a9.675 9.675 0 0 0-1.346-.583 5.44 5.44 0 0 0-1.846-.372 2.668 2.668 0 0 0-1.636.451c-.374.293-.589.745-.58 1.22-.005.264.09.52.264.717.264.284.579.518.928.69.422.238.817.45 1.134.61.318.16.845.372 1.53.69a9.258 9.258 0 0 1 3.062 2.097 4.217 4.217 0 0 1 1.267 2.998 6.184 6.184 0 0 1-.58 2.783 4.432 4.432 0 0 1-1.583 1.884 7.035 7.035 0 0 1-2.216 1.008 10.42 10.42 0 0 1-2.638.318 11.624 11.624 0 0 1-2.374-.238 9.472 9.472 0 0 1-1.948-.61 17.564 17.564 0 0 1-1.425-.743 6.171 6.171 0 0 1-.928-.61L0 40.78l2.058-3.608c.186.16.475.37.791.61.524.361 1.08.672 1.662.928a4.798 4.798 0 0 0 2.11.584c1.763 0 2.664-.61 2.664-1.83a1.32 1.32 0 0 0-.186-.717 2.36 2.36 0 0 0-.685-.664 12.874 12.874 0 0 0-.845-.53c-.237-.133-.66-.319-1.213-.584-.554-.265-.976-.45-1.24-.61a6.992 6.992 0 0 1-2.61-2.096 4.473 4.473 0 0 1-.929-2.707 5.111 5.111 0 0 1 1.847-4.082 6.623 6.623 0 0 1 4.226-1.542zM53.708 24.278v3.711h-11.08V31.7h5.986v3.712h-5.988v7.482h-4.218V24.278z"/>
        <path fill="#222" d="M53.496 27.99v-3.712h15.168l-2.135 3.711h-4.404V42.9h-4.22V27.99zM83.885 54.363l2.134-3.712h15.141v3.712h-6.512v14.911h-4.221V54.363zM66.392 50.651l-2.134 3.712h-6.383v3.711h6.41v3.711h-6.383v3.741h6.383v3.712H53.681V50.625h12.711zM75.074 50.493c.993.003 1.98.155 2.928.45.744.207 1.46.5 2.134.877l.845.556-1.874 3.263c-.132-.08-.316-.212-.556-.345a9.672 9.672 0 0 0-1.346-.583 5.44 5.44 0 0 0-1.846-.371 2.668 2.668 0 0 0-1.636.45c-.374.293-.59.745-.58 1.22-.005.264.089.52.264.717.264.285.579.518.927.69.423.239.818.451 1.135.61.317.16.845.372 1.53.69a9.259 9.259 0 0 1 3.062 2.096 4.217 4.217 0 0 1 1.267 2.998 6.184 6.184 0 0 1-.58 2.783 4.432 4.432 0 0 1-1.583 1.884 7.035 7.035 0 0 1-2.216 1.008c-.862.219-1.749.326-2.638.319a11.623 11.623 0 0 1-2.374-.239 9.471 9.471 0 0 1-1.949-.61 17.564 17.564 0 0 1-1.424-.742 6.171 6.171 0 0 1-.928-.611l-.29-.238 2.058-3.609c.185.16.475.371.791.61.524.362 1.08.672 1.662.929a4.798 4.798 0 0 0 2.11.583c1.763 0 2.665-.61 2.665-1.83a1.32 1.32 0 0 0-.186-.717 2.36 2.36 0 0 0-.685-.663 12.874 12.874 0 0 0-.845-.53c-.237-.134-.66-.32-1.213-.584-.554-.266-.977-.451-1.24-.611a6.992 6.992 0 0 1-2.613-2.092 4.473 4.473 0 0 1-.928-2.707 5.111 5.111 0 0 1 1.847-4.082 6.766 6.766 0 0 1 4.305-1.57z"/>
    </g>
</svg>
