<svg xmlns="http://www.w3.org/2000/svg" xmlns:xlink="http://www.w3.org/1999/xlink" width="164" height="50" viewBox="0 0 164 50">
    <defs>
        <path id="a" d="M.492.39h8.45v8.817H.492z"/>
        <path id="c" d="M0 .725h23.438v23.063H0z"/>
    </defs>
    <g fill="none" fill-rule="evenodd">
        <path fill="#838383" fill-rule="nonzero" d="M.443 38.678v1h3.066v7.765h1.065v-7.765h3.067v-1zM9.706 47.443v-8.767c.486 0 1.74-.023 2.29-.023 2.503 0 3.243 1.35 3.243 2.715 0 1.428-1.017 2.757-3.155 2.757-.352 0-.877-.014-1.317-.05v3.368H9.706zm1.063-7.763v3.376c.425.042.838.067 1.278.067 1.289 0 2.065-.663 2.065-1.765 0-1.04-.626-1.705-2.016-1.705-.35 0-.914.013-1.327.027zM17.801 38.678h4.945v1.002h-3.88v2.828h3.505v1h-3.505v2.932h4.005v1.003h-5.07zM31.508 43.473h-4.82v3.97h-1.064v-8.765h1.064v3.79h4.82v-3.79h1.064v8.765h-1.065zM38.465 38.628h.915l3.766 8.815H42.01l-1.127-2.657H36.89l-1.117 2.657h-1.075l3.767-8.817v.002zm-1.15 5.158h3.155l-1.577-3.743-1.578 3.745v-.002zM44.198 38.677h1.24l3.466 4.195-3.605 4.571h-1.24l3.682-4.571-3.545-4.195h.002zm4.918 8.766h1.067v-8.766h-1.067v8.768-.002zm2.453-4.583l3.682 4.583h-1.238l-3.607-4.571 3.468-4.195h1.239l-3.542 4.185-.002-.002zM57.438 38.678h4.945v1.002h-3.88v2.828h3.505v1h-3.505v2.932h4.005v1.003h-5.07zM65.26 47.443v-8.767c.489 0 1.74-.023 2.29-.023 2.506 0 3.244 1.35 3.244 2.715 0 1.428-1.015 2.757-3.153 2.757-.352 0-.877-.014-1.315-.05v3.368H65.26zm1.066-7.763v3.376c.425.042.838.067 1.276.067 1.29 0 2.065-.663 2.065-1.765 0-1.04-.626-1.705-2.016-1.705-.35 0-.912.013-1.325.027zM74.422 41.932c.477-.035.877-.062 1.166-.062 2.201 0 3.241 1.05 3.241 2.705 0 1.84-1.301 2.892-3.478 2.892-.754 0-1.48-.023-1.992-.023v-8.765h1.064v3.253zm0 1.013v3.482c.339.013.652.038 1.052.038 1.44 0 2.228-.628 2.228-1.865 0-1.115-.776-1.73-2.19-1.73a10.38 10.38 0 0 0-1.09.075zm5.822 4.5h1.065V38.68h-1.065v8.766zM86.876 46.44h.937c.363-.451 1.251-2.34 1.44-6.006l.088-1.755H94.5v7.761h1.19v2.629h-1.004v-1.624h-6.808v1.624h-1.004V46.44h.002zm2.117 0h4.442V39.68h-3.067l-.112 1.566c-.213 3.015-.94 4.795-1.265 5.195h.002zM103.323 39.68h-3.18l-.15 1.653c-.515 5.571-1.692 6.286-3.067 6.11l.012-1.065c.627.063 1.678-.25 2.078-5.947l.125-1.755h5.247v8.768h-1.067V39.68h.002zM111.744 44.19h-1.638l-2.267 3.254h-1.201L109.066 44c-.902-.363-1.728-1.201-1.728-2.453 0-1.578 1.051-2.905 3.418-2.905.588 0 1.542.037 2.053.037v8.766h-1.065V44.19zm0-1.007v-3.504c-.286-.011-.811-.038-1.188-.038-1.365 0-2.09.802-2.09 1.842 0 .926.75 1.575 1.513 1.7h1.765zM119.505 38.678h1.076l3.29 4.494 3.157-4.494h1.012v8.765h-1.065v-7.086l-3.104 4.355h-.163l-3.14-4.32v7.051h-1.063zM135.074 38.553c2.54 0 4.47 1.84 4.47 4.505 0 2.605-1.93 4.508-4.47 4.508-2.541 0-4.47-1.84-4.47-4.508 0-2.54 1.867-4.505 4.47-4.505m.002 8.013c2.002 0 3.34-1.526 3.34-3.508 0-2.04-1.465-3.503-3.342-3.503-1.903 0-3.341 1.463-3.341 3.503 0 1.99 1.466 3.508 3.341 3.508M141.295 46.19l.588-.715c.56.668 1.5 1.091 2.215 1.091 1.137 0 1.99-.591 1.99-1.678 0-.867-.625-1.432-1.713-1.432h-1.017v-.996h.94a1.469 1.469 0 0 0 1.452-1.48c0-.949-.688-1.425-1.588-1.425-.865 0-1.467.35-1.994.975l-.625-.7c.589-.764 1.592-1.277 2.73-1.277 1.514 0 2.542.838 2.542 2.327 0 .74-.415 1.568-1.263 2.005v.035c1.061.201 1.601 1.068 1.601 2.066 0 1.619-1.388 2.579-2.991 2.579-1.34 0-2.405-.674-2.867-1.375M149.969 38.678h4.881v1.002h-3.818v7.763h-1.064z"/>
        <g transform="translate(154.167 38.236)">
            <mask id="b" fill="#fff">
                <use xlink:href="#a"/>
            </mask>
            <path fill="#838383" fill-rule="nonzero" d="M4.259.392h.915l3.768 8.815H7.804L6.677 6.55H2.686L1.567 9.207H.492L4.26.39v.002zM3.111 5.551h3.155L4.687 1.807 3.111 5.552v-.001z" mask="url(#b)"/>
        </g>
        <path fill="#333" fill-rule="nonzero" d="M53.323 2.642c1.357-.066 4.58-.171 7.005-.171 5.793 0 7.983 2.636 7.983 6 0 2.771-1.393 4.543-3.466 5.513v.068c2.386.592 4.26 2.427 4.26 5.652 0 4.995-3.882 7.287-9.017 7.287-2.222 0-5.338-.072-6.765-.175V2.642zm4.27 3.92V12.7h2.873c1.979 0 3.61-1 3.61-3.222 0-1.978-1.525-3.016-3.816-3.016-.97 0-1.905.035-2.667.101zm0 9.849v6.416c.588.07 1.59.172 2.807.172 2.878 0 4.443-1.21 4.443-3.5 0-2.048-1.565-3.088-4.233-3.088h-3.017zM72.149 26.849V11.244h3.985v9.883l7.283-9.883h3.99v15.605h-3.99v-9.88l-7.283 9.88zM91.371 26.847h3.984V11.246H91.37V26.85v-.004zm8.772-8.183l6.727 8.183h-5.197l-6.18-7.868 5.622-7.733h5.028l-5.998 7.42-.002-.002zM108.753 26.849V11.244h3.983v9.883l7.29-9.883h3.983v15.605h-3.983v-9.88l-7.29 9.88zM136.887 26.849c-2.288 5.587-3.748 6.937-6.033 6.937-1.423 0-2.463-.557-3.367-1.209l1.284-3.023c.417.245 1.007.557 1.628.557 1.005 0 1.733-.797 2.393-2.427l.347-.835-7.215-15.605h4.787l3.643 8.532c.317.763.523 1.491.763 2.256.139-.728.277-1.493.556-2.291l2.81-8.497h4.543l-6.139 15.605zM144.942 11.243h3.606l5.304 6.522 5.03-6.522h3.505v15.605h-3.993v-9.533l-4.607 5.825h-.106l-4.752-5.825v9.533h-3.987z"/>
        <path fill="#23B175" fill-rule="nonzero" d="M25.992 27.047c-.801-3.905-3.701-7.755-5.69-7.986-2.45.79-3.6 2.066-6.4 4.133-1.846 1.36-3.333 1.937-3.333 1.937s3.55 6.628 8.112 5.028c1.996-.698 3.63-4.605 7.311-3.112"/>
        <path fill="#EC5956" fill-rule="nonzero" d="M31.394 32.025c3.392-6.567 9.084-9.87 9.084-9.87s-2.92-2.75-7.95-4.114c-6.047-1.631-10.154.019-10.154.019s4.34 2.21 5.65 9.431c.767 4.234 3.167 4.535 3.372 4.535"/>
        <g transform="translate(0 .736)">
            <mask id="d" fill="#fff">
                <use xlink:href="#c"/>
            </mask>
            <path fill="#27A8E0" fill-rule="nonzero" d="M23.438.766c-2.717-.151-5.672.1-8.878.9C5.33 3.977-3.84 13.794 1.66 21.42c5.005 6.57 12.63-2.335 17.873-5.004-2.042-5.245-.088-10.895 3.905-15.65" mask="url(#d)"/>
        </g>
        <path fill="#FAAD40" fill-rule="nonzero" d="M25.653 1.722c-3.943 4.377-6.007 9.617-4.398 14.688 11.291-4.218 20.59 4.299 20.59 4.299S44.1 14.867 39.64 9.295c-2.679-3.35-7.484-6.64-13.987-7.573"/>
    </g>
</svg>
