<?xml version="1.0" encoding="UTF-8"?>
<!DOCTYPE svg PUBLIC "-//W3C//DTD SVG 1.0//EN" "http://www.w3.org/TR/2001/REC-SVG-20010904/DTD/svg10.dtd">
<!-- Creator: CorelDRAW -->
<svg xmlns="http://www.w3.org/2000/svg" xml:space="preserve" width="300mm" height="100.86mm" version="1.0" shape-rendering="geometricPrecision" text-rendering="geometricPrecision" image-rendering="optimizeQuality" fill-rule="evenodd" clip-rule="evenodd"
viewBox="0 0 30000 10086"
 xmlns:xlink="http://www.w3.org/1999/xlink"
 xmlns:xodm="http://www.corel.com/coreldraw/odm/2003">
 <g id="123_x0020_1">
  <metadata id="CorelCorpID_0Corel-Layer"/>
  <g id="_105553545592992">
   <path fill="black" d="M6780 3137c-69,71 -31,41 -116,33 -118,-12 32,-8 -121,-30 -193,-28 -149,76 -236,-80 -1,12 -80,81 22,-1l67 -97c4,-8 7,-18 11,-26 9,-18 21,-50 34,-68 37,-50 158,-134 251,-175l108 3 -19 112 -59 124c196,-12 160,-24 141,180 -52,35 76,58 -83,25zm-1124 191c319,152 394,123 819,124 274,1 621,25 881,5l71 -169c26,267 -27,115 110,152 28,-245 67,-917 -40,-1085 -104,72 -1583,21 -1845,21l3 952z"/>
   <path fill="black" d="M666 4809c74,-46 32,-34 156,-24 -34,109 -34,116 41,232 63,-137 52,-121 28,-240l158 0c-3,8 -10,11 -12,23 -12,73 -146,158 -141,455l-147 -6c19,-88 -1,-3 66,-123 -41,-117 -85,-229 -149,-317zm-431 -137c220,9 75,-50 140,118 167,-40 334,3 282,224 -40,170 -233,123 -420,120 54,-122 95,-356 -2,-462zm-195 755l1553 -8 -21 -295c-377,83 -478,-388 -137,-456 12,-3 52,-6 64,-9 81,-18 39,-4 83,-27l-8 -150c-154,-57 -415,-10 -604,-19 -331,-16 -133,-179 -459,-191l-10 105 -262 1 -8 -108 -166 11 -26 1144z"/>
   <path fill="black" d="M5384 3329c62,0 34,-786 32,-917 -6,-355 20,-272 58,-301l2305 17c-35,365 -29,1172 -7,1555 23,385 280,822 301,1275 -151,1 -2699,32 -2854,-16l-51 -27c44,-143 -69,-64 139,-92l2368 7c150,3 222,35 296,-56 -95,-54 -216,-39 -333,-38 -117,1 -235,0 -353,0 -586,0 -1597,-26 -2093,6l116 -470c-10,-79 34,-85 -64,-85 -28,140 -76,275 -114,408 -54,189 -35,241 -52,446l550 13 2532 -4c35,-512 -261,-929 -294,-1375 -33,-439 -18,-1200 4,-1646l-2480 2 -6 1297z"/>
   <path fill="black" d="M28388 488c174,-33 1356,-36 1511,4l0 1776 -1511 -15 0 -1765zm-90 1766c-67,-56 -77,-38 -87,-161l17 -1643c105,47 64,-31 70,159l0 1645zm-92 -2017c30,-188 616,-119 797,-119 271,0 622,-21 888,6l-1 249c-290,22 -627,8 -923,8 -168,0 -799,86 -762,-143zm1776 -216c-324,21 -686,7 -1014,7 -262,0 -777,-95 -842,167 -45,181 -20,1764 -5,2042 154,141 139,130 387,128l1487 -1 -13 -2345z"/>
   <path fill="black" d="M22940 3363l1074 -1 1 2329 -1 538 -1780 1 4 -2862 701 -5zm-729 2926c111,75 1674,57 1875,19 48,-207 50,-2845 -7,-2987 -80,-106 -1326,-51 -1668,-51 -373,0 -266,183 -265,551 0,218 -26,2279 16,2390 31,82 -2,27 48,77z"/>
   <path fill="black" d="M14152 3333l2584 -3c25,313 44,1946 -13,2172l-3283 9c-47,-218 -28,-938 -11,-1178l-106 36 -2 39c1,218 14,433 6,649 -4,103 -13,217 -9,320 7,179 8,169 109,212l3314 5c164,-90 102,-313 93,-502 -13,-292 61,-1736 -64,-1839 -210,-78 -2170,-8 -2597,-28l-21 108z"/>
   <path fill="black" d="M1495 2325l35 -73c-313,-48 -1169,46 -1366,-53 -82,-137 -81,-1908 0,-2043 142,-71 2715,-64 2940,-10 63,225 28,753 28,1032l4 815c-5,181 25,176 -97,214l-225 35c-82,16 -44,1 -91,29 78,67 -21,16 89,47 11,3 94,15 103,15 382,6 316,-303 315,-591l1 -1270c2,-259 24,-373 -200,-439 -512,-39 -1174,-4 -1703,-4 -1102,0 -1307,-129 -1306,372 4,2029 -194,1925 601,1924 291,0 582,-1 873,1z"/>
   <path fill="black" d="M7922 7351c35,-76 -21,-40 78,-65 263,-67 82,386 119,499 190,65 877,-69 951,108l-804 41c-48,329 9,1060 -16,1248l-48 141c-96,-39 -52,72 -86,-139 -39,-241 113,-467 -161,-463 -147,216 69,533 -141,601 -83,-171 -38,-1075 -35,-1340 -328,15 -65,303 -212,534 -64,-105 -83,-408 -23,-556 64,-158 216,-113 377,-189 44,-157 -64,-164 -49,-316 21,-199 -18,-70 49,-105zm-156 214l96 133c-13,7 -27,1 -32,11 -12,28 -301,-8 -379,261 -43,147 -35,475 9,612 117,45 143,37 235,-28 1,559 -91,834 174,874 157,-65 123,-96 122,-389 0,-37 -1,-105 4,-139l25 -87c1,-14 7,-18 12,-26 5,133 -26,480 34,571 111,167 270,64 274,-174 7,-396 -5,-801 -3,-1199 163,5 977,88 823,-180 -95,-165 -770,-80 -991,-74 91,-242 133,-282 -22,-525 -343,-57 -330,79 -380,358z"/>
   <path fill="black" d="M11112 750c-16,307 -87,714 220,779 160,12 41,4 103,-34 22,-264 -158,-254 -35,-624 48,-20 186,-50 258,-53 106,-4 48,-13 134,13l127 68 56 18c-6,177 16,211 -53,349 -72,145 -68,127 -63,328l162 -12 110 -64c194,-345 309,-717 -80,-984 -154,-106 -356,-148 -554,-85 -228,73 -234,191 -385,299z"/>
   <path fill="black" d="M12741 9311c72,66 86,100 207,139 -81,-312 99,250 -57,-122 -66,-158 -60,-1693 -14,-1750 102,-61 4225,-74 4409,-8 48,206 19,1132 22,1472 5,495 -62,166 -89,409 202,-53 184,-153 182,-373 -2,-177 -1,-354 -1,-530 0,-245 34,-831 -27,-1012 -75,-99 -90,-84 -247,-86 -804,-12 -4065,-29 -4316,32 -141,444 50,1415 -68,1831z"/>
   <path fill="black" d="M29747 8565c-52,53 0,31 -94,66 -96,36 -188,-6 -301,-12l-616 647c-139,134 -119,80 -253,162 149,246 40,562 -272,545 110,-119 168,-167 146,-366 -209,-191 -260,-69 -438,58 -59,-480 390,-256 545,-352l484 -503c282,-251 84,-120 350,-262l-53 -213c21,-229 98,-336 326,-344 -67,151 -168,147 -137,380 277,213 200,31 452,-17 -45,303 -112,205 -138,210zm-878 173l-33 36c-31,97 -40,136 -173,136 76,147 31,42 -13,69l-239 277c-288,-36 -297,-30 -484,98 -160,204 -134,249 -90,510 213,-87 191,-279 427,-256 84,256 -170,271 -241,442 305,59 550,-9 613,-286 0,0 -43,-486 281,-511 -26,-152 -19,-53 47,-72l130 -149 97 -12c-66,-91 -6,-36 185,-308 259,32 366,48 516,-124 125,-144 134,-305 53,-487 -47,56 -116,132 -176,189 -36,34 -53,60 -106,70 -162,30 -93,-13 -118,-38 -131,-161 197,-186 213,-395 -259,-91 -526,22 -590,256 -58,213 51,222 -38,346 -54,76 -166,171 -259,209z"/>
   <path fill="black" d="M29635 6498c-194,-398 -386,-159 -879,-173 -257,-27 -373,-19 -539,-16 17,-624 -59,-2155 -59,48 262,25 641,8 918,5 498,-4 353,170 663,319l7 -286 206 -51 0 -1425 -1149 0c10,9 -11,58 24,64 100,17 1022,-27 1052,0 10,1118 -19,780 -1,1226 3,87 -220,119 -242,289zm-833 -1579l-21 -5 -222 1 -64 -9 -398 9 -8 1272c17,230 -24,108 69,171 0,-860 -25,-1354 40,-1361 123,-14 462,31 589,-16 36,-14 14,-33 16,-61z"/>
   <path fill="black" d="M13592 6127l2980 3 5 574 -2990 16 5 -593zm2296 -82l-110 -2 -1393 -3 -104 -2 -788 0 2 777 3170 -1 3 -782 -780 12z"/>
   <path fill="black" d="M13124 9845l2 32 64 106c65,70 -145,55 89,60 -16,-430 -170,-161 -180,-613 -3,-153 -11,-631 39,-740 123,74 63,371 96,519l70 -17c18,-207 -34,-479 45,-646 151,295 -44,494 106,661 135,-172 -35,-551 106,-646 102,139 8,442 50,631l95 -432c32,-97 -14,-44 67,-88 94,202 -30,532 71,746 73,-84 31,-59 53,-201 18,-117 15,-108 85,-138 114,514 -55,576 -171,703 -97,106 -63,121 -107,254l145 0c-3,-342 214,-152 253,-535 57,-569 -57,-494 -160,-567 -138,-98 22,85 -33,-36l-32 -314 -201 -85c-160,-90 -70,-58 -247,-56 -237,3 -85,-26 -208,75 -6,5 -13,12 -18,17 -6,5 -14,11 -20,15 -6,4 -15,10 -21,14 -51,34 -111,40 -139,87 -7,12 -105,964 102,1192z"/>
   <path fill="black" d="M7545 7524l23 132c118,22 43,21 73,-35l6 -478 2492 -6 -10 1393 -1292 -2c-157,-1 -298,-28 -412,53 32,22 -7,49 234,52l1581 -19 -12 -1565 -2678 6 -5 467z"/>
   <path fill="black" d="M27266 7559c-55,137 -213,57 -122,296 17,44 32,1 71,127 -88,49 -161,-4 -246,81 -110,111 14,104 -46,236 -228,-16 -26,-104 -241,-65 -133,24 -69,86 -182,154 -131,-124 14,-111 -143,-195 -74,-40 -70,-16 -118,-8 -84,13 -75,38 -131,13l-1 -40c15,-116 133,-176 -182,-306 -6,-2 -18,-6 -26,-11 32,-91 4,-13 63,-82 85,-100 34,65 71,-105 29,-133 -16,-110 -25,-128 -45,-89 -14,31 -71,-108l80 -31c95,-30 142,19 195,-153l34 -146c142,-23 117,199 319,8 107,-101 -48,-56 113,-93 93,142 -22,129 122,191 157,67 87,-16 263,-19 -3,164 -74,120 -6,247 61,112 113,53 209,136zm-90 -388c-52,-42 -70,-63 -131,-128l-192 71c-6,-8 -11,-19 -15,-25 -3,-6 -10,-18 -14,-25 -4,-7 -9,-17 -14,-25l-25 -50c-3,-7 -10,-19 -13,-24l-26 -48c-263,-29 -167,1 -282,147 -168,-29 -34,-46 -225,-106 -221,219 -86,-14 -134,316 -287,10 -166,-90 -283,179 50,82 87,84 119,176 -74,75 -44,53 -160,90 57,330 61,168 260,298l-59 204 130 113c153,-34 45,-51 220,-62l62 196 176 23c7,-7 13,-17 17,-23l124 -148c117,57 75,63 179,108l172 -90 -28 -223 228 -4 74 -162c-66,-134 -78,-35 -135,-192l166 -127 -37 -195 -201 -56 47 -209z"/>
   <path fill="black" d="M5500 5792l1532 4 3 1168c-186,0 -185,-61 -182,272 -274,-133 -81,-278 -553,-273 -231,3 -585,23 -799,-11l-1 -1160zm-85 1274c300,-15 654,-13 956,-8 345,6 258,193 572,395l-4 -351c104,-80 133,-12 153,-62 5,-11 19,-5 30,-9l-6 -1336 -1704 -3 4 1374z"/>
   <path fill="black" d="M16062 9499c75,395 256,232 252,532l128 5c-143,-464 -304,-234 -295,-715 3,-168 -19,-201 94,-235 80,190 -62,293 116,343 -22,-155 -52,-698 61,-784 129,190 -20,443 106,558 58,-128 9,-417 26,-518 32,-191 -3,-97 96,-147 47,156 -19,536 55,657 121,-60 -11,-453 95,-655 176,170 -6,451 117,636 87,-149 3,-328 55,-500 134,55 46,-62 99,115 32,107 53,896 -208,1192l13 49 122 19 -5 -170c185,-149 173,-260 172,-559 -3,-881 40,-598 -183,-772 -17,-13 -71,-88 -92,-112l-256 6c-134,15 -85,26 -193,79 -224,109 -180,120 -171,410 -183,137 -214,-30 -200,564z"/>
   <path fill="black" d="M11391 9089l2 -21 -76 7c-37,246 1,526 -9,745 -9,201 22,130 -74,169 -91,-52 -59,-2 -64,-169 -2,-73 5,-173 6,-251 3,-401 -65,-872 305,-1155 130,143 40,34 -3,202 200,4 163,3 233,177 -70,-2 -167,-8 -234,-5l-174 41c101,85 330,47 466,45l-2 1121 -372 -2 -6 -903zm91 -844c-154,137 -394,501 -397,721 -6,371 7,743 -1,1115l783 -11c4,-887 148,-1247 -385,-1825z"/>
   <path fill="black" d="M503 2083l1298 -24 7 -49c-258,21 -1027,80 -1229,-24l9 -1605c253,-57 1762,-52 2045,-11 -37,366 -17,888 -13,1267 3,243 54,345 -163,363 -448,37 -109,-41 -390,-258 8,261 -23,243 112,331 33,7 122,13 206,26 82,-50 201,-26 305,-47l0 -1749c-305,-73 -1760,-19 -2180,-16l-4 1796z"/>
   <path fill="black" d="M9267 4034c-103,-67 -214,-131 -253,-254 -57,-177 -4,-309 105,-367 44,111 35,211 107,372l246 -7c121,-169 83,-286 141,-363 115,88 141,225 84,384 -54,149 -127,143 -251,235 -16,314 45,1045 -26,1274 -151,-21 -150,-12 -150,-213l-3 -1061zm-148 39c80,36 71,-27 65,313 -7,340 -80,958 125,1011 463,118 67,-1108 289,-1341 232,-243 289,-252 124,-713 -48,-13 -142,-25 -228,-3l-51 351c-266,-10 -221,-119 -211,-373 -156,5 -191,-17 -270,104 -216,333 142,625 156,651z"/>
   <path fill="black" d="M22375 1944l72 -201c48,102 1,47 10,198l370 11 -5 319 88 29c9,3 20,4 29,7 107,31 -30,-70 97,35 -64,115 -38,58 -208,37l-7 264c-229,23 -108,-32 -210,-183 -215,-47 -232,-4 -238,195l-258 -16 -3 -231 205 -61 -21 -208c-180,-109 -169,40 -185,-149 77,-75 123,-47 265,-45zm-353 -114c1,452 -17,316 52,354 185,103 -159,-58 52,17l83 24c4,-8 19,5 26,11 -61,124 -18,51 -211,37l-7 469 486 6 415 -5 -3 -246c97,-2 139,-22 194,-57l12 -169c-109,-118 -92,-32 -208,-106l1 -317c-499,3 -289,6 -371,-131 -84,-141 -206,-92 -260,2l-39 104c-2,-5 -5,18 -10,30l-213 -23z"/>
   <path fill="black" d="M13043 7736c44,118 44,72 448,72l3424 3c174,-2 161,29 206,-76 -127,-67 -3958,-68 -4077,0z"/>
   <path fill="black" d="M18858 6211c463,-141 724,137 727,571 3,453 54,899 -343,1030 -444,146 -736,-143 -737,-569 -1,-496 -87,-898 353,-1033zm-432 1278c90,232 228,411 528,435 505,39 554,-223 667,-294 61,-257 85,-779 42,-1056 -42,-268 -250,-457 -538,-480 -813,-65 -750,707 -699,1395z"/>
   <path fill="black" d="M20543 8833c156,72 10,85 139,211 104,103 159,2 262,61 137,79 -165,124 -24,367 53,91 45,-51 86,133l-140 50c-248,75 -130,182 -216,292 -164,-25 -59,-98 -218,-133 -196,-43 -303,282 -294,-77 8,-343 -139,-85 -234,-308 5,-7 14,-25 17,-19l169 -156c84,-184 -96,-172 -9,-260 123,-124 160,174 363,-51 93,-103 -11,-58 99,-109zm-740 738l69 22c256,30 173,112 122,315 139,32 96,44 210,107 75,-68 91,-93 206,-116 94,67 80,77 119,167 40,-7 149,-25 184,-44 159,-85 40,12 74,-135 29,-124 -55,-84 79,-133 29,-11 124,-4 192,-17l67 -203c-66,-90 -80,-64 -148,-137 12,-133 40,-130 122,-215l-101 -214c-251,34 -275,85 -295,-217l-263 -23c-108,285 -105,201 -324,109l-176 169c71,223 175,224 -134,314l-4 252z"/>
   <path fill="black" d="M4167 1990l221 2c7,177 -46,642 41,757 112,-81 40,-393 50,-588 11,-214 -25,-131 91,-167 106,43 37,-53 65,101l1 602c3,290 -91,393 -242,558 -80,-92 -135,-174 -179,-276 141,0 231,22 326,-37 -56,-87 27,-64 -374,-55l0 -896zm105 1316c106,65 51,57 173,110 213,-595 345,44 278,-1518l-670 1c86,443 -57,907 72,1134 76,133 118,104 146,273z"/>
   <path fill="black" d="M25093 2835l-3 67 101 -2 0 -1017 1348 0 -1 1037c-290,2 -748,-32 -997,27 31,89 -72,77 83,67l1011 -5 -2 -1216 -809 -5 -661 0c-75,42 -55,-73 -67,94l-1 952z"/>
   <path fill="black" d="M25202 5056c73,-491 600,-857 1097,-545 515,283 448,1022 -50,1281 -530,275 -1136,-192 -1047,-736zm147 -505c-127,120 -86,127 -181,244l-56 83c17,297 -72,615 310,905 843,642 1811,-540 1047,-1261 -184,-174 -226,-101 -391,-205 -364,-14 -512,31 -728,233z"/>
   <path fill="black" d="M22021 885c225,115 892,18 1232,60l-20 -111c-185,3 -1033,41 -1123,-45 131,-74 511,-20 686,-39 -395,-502 -806,-144 -942,-131 25,-95 -3,-56 78,-133 206,-196 593,-246 902,-48 139,90 210,76 427,57l-38 -84c-286,-13 -233,-1 -433,-109 -417,-226 -1081,26 -1009,379 196,86 188,-7 344,-70 147,-59 286,-55 404,48 -219,2 -355,-32 -506,61l-1 165z"/>
   <path fill="black" d="M9631 633c309,-213 302,-302 627,18l-627 -18zm448 -236c78,-78 185,-183 300,-213l-9 408c-96,-52 -190,-135 -291,-195zm-569 -221l240 163c65,61 3,-16 55,79 -97,42 -207,113 -292,178l-4 -421zm456 162c-124,-32 -261,-130 -333,-219l625 -3 -74 79c-69,59 12,-7 -62,44 -51,35 -101,68 -156,99zm506 388l-1 -691 -1031 4 -4 693 1036 -6z"/>
   <path fill="black" d="M10644 2496c217,-55 933,-19 1261,-22 273,-3 284,-29 372,55 -33,125 -14,87 -156,100l-808 4c311,367 693,467 1147,189 176,-107 268,13 104,133 -4,161 -14,68 43,89l28 -20c126,-133 162,-174 10,-331 -155,-81 -697,453 -1093,33 135,-6 603,13 690,-14 174,-56 211,-327 -123,-335 -462,-11 -949,2 -1413,3 -101,34 -57,-79 -62,116z"/>
   <path fill="black" d="M19688 2750c-55,66 -117,97 -149,182 -52,137 -23,150 51,204 4,-10 6,-23 8,-31 2,-8 6,-21 8,-31 46,-185 68,-267 277,-187 126,48 -58,20 132,56 -23,-119 -120,-190 76,-243 191,-52 223,79 239,96 125,-104 37,-97 212,-93 79,112 28,171 32,122 0,-4 0,14 3,21 260,-39 313,-73 453,132 -21,101 -54,58 -103,162 273,59 380,102 318,435l-1245 -2 -48 35 34 85c256,-69 795,-25 1088,-21 630,7 87,-604 86,-606 -239,-463 -134,-232 -447,-371 -70,-31 -51,-71 -183,-89 -4,-1 -427,-2 -432,-1 -250,52 -82,189 -411,146z"/>
   <path fill="black" d="M22548 3815c179,-31 1003,-36 1168,7l0 1836c-144,49 -981,40 -1147,4 -70,-183 -86,-1678 -20,-1847zm1242 1930l4 -2007 -1348 12 16 1961 1328 34z"/>
   <path fill="black" d="M28077 8974c-67,-91 -148,-171 -238,-240 55,-116 665,-720 785,-804l189 174c78,92 22,14 63,91 -76,110 -674,718 -799,780zm77 -780c1,-5 46,-78 50,3 1,30 -79,147 -50,-3zm496 785c44,-26 89,78 13,-69l-150 -177c51,-111 10,-61 114,-138 55,83 86,108 208,179l33 -36c-61,-137 -87,-123 -174,-223l315 -321c-67,-137 -262,-320 -393,-389 -461,418 -170,287 -455,246 -69,115 -81,83 -155,171 -85,101 -34,16 11,182l-303 307 381 399 352 -327 204 195z"/>
   <path fill="black" d="M3729 8053c109,-700 1001,-546 960,71 -82,56 -36,16 -78,41l-44 27c-66,51 -25,-10 -56,68 110,41 176,-104 313,33 88,87 79,210 -24,301 -169,88 -875,70 -1111,37 -165,-24 -278,-130 -248,-325 30,-188 149,-173 288,-253zm-12 668c274,0 742,28 993,-4 314,-40 377,-413 70,-546l1 -146c-90,-559 -715,-693 -1019,-289 -62,82 -45,74 -86,160 -116,246 -248,110 -318,356 -74,264 117,446 359,467z"/>
   <path fill="black" d="M19579 9671c-121,91 -122,-10 -223,87 -98,95 -22,80 -83,202 -202,-33 -6,-90 -215,-109 -177,-16 -135,114 -209,37 -73,-76 58,-59 -34,-211 -100,-166 -92,14 -173,-143 41,-47 -2,2 56,-46 255,-213 3,-228 109,-333 45,-45 77,53 208,21 188,-46 33,-84 188,-139 52,88 35,166 156,203 88,27 172,-40 175,48 4,131 -86,5 -68,201 14,159 37,65 114,182zm-799 323c207,73 59,27 282,-52l141 139c251,-69 142,-14 190,-155 54,-160 -15,-110 233,-111 112,-345 -20,-165 -55,-329 -25,-120 41,-57 84,-199l-77 -133c-187,-34 -173,71 -232,-78l-72 -128 -197 -36 -48 167 -264 -61c-139,313 -74,20 -61,341l-170 93 23 189 181 70c2,77 -19,132 -13,181 13,108 15,26 56,103z"/>
   <path fill="black" d="M25773 899l-21 0 -1015 2 -2 -781 1652 3 3 777 -619 0zm666 102l4 -9 29 -953c-262,51 -1522,38 -1819,7l15 937 1772 17z"/>
   <path fill="black" d="M16850 856c-10,-158 43,-207 199,-198 85,-50 741,-105 842,107 80,168 53,794 -44,890 -103,102 -725,125 -890,44 -219,-107 -149,-771 -106,-843zm1100 852c15,-77 -1,-2 20,-73 3,-10 15,-39 18,-50 38,-142 24,-252 24,-407 2,-887 -297,-567 -1062,-648 -132,156 -222,117 -224,470 -3,649 -57,821 608,820 397,0 329,10 616,-113z"/>
   <path fill="black" d="M5384 3329c26,301 8,313 -55,580 47,46 10,11 99,43l29 -163c373,-11 2075,50 2217,-38 -22,-48 24,-72 -210,-71l-849 3c-378,0 -763,-8 -1140,2l-7 -297 6 -1280c-39,29 -65,-54 -58,301 2,131 30,917 -32,917z"/>
   <path fill="black" d="M21726 9051c73,65 84,118 140,183 44,50 118,118 153,155 46,35 28,27 106,43 -9,-131 -10,-96 -101,-180 -450,-414 -176,-1051 356,-1085 677,-43 899,888 340,1145l-8 117 87 -2c35,-69 235,-294 298,-343 0,-347 95,-409 -106,-728 -203,-321 -837,-426 -1148,10 -205,287 -99,383 -116,685z"/>
   <path fill="black" d="M22164 9523c218,9 428,-31 539,46 -173,142 -383,-50 -454,106 129,98 369,-26 503,71 -77,163 -278,-30 -462,106 145,94 238,-3 350,71 -47,96 58,77 -406,65l-98 -179c-4,-6 -13,-16 -17,-21 -3,-5 -14,-9 -17,-21 -3,-12 -13,-13 -17,-21l78 -222zm99 -97l-91 -1 -48 6c-78,-16 -60,-8 -106,-43 64,392 -152,261 49,527l97 166 547 -1c9,-76 -8,-61 37,-139 36,-62 65,-43 88,-131 25,-97 -36,-244 -37,-385l-87 2 8 -117 -63 125c-112,-58 -33,-63 -104,-183l-297 21 302 4 -7 116c-44,33 50,34 -136,43 -40,2 -111,-7 -151,-9z"/>
   <path fill="black" d="M5656 3329l-11 188 1954 -11 -7 -1187 -1717 -13c-246,4 -194,26 -222,70 263,0 1741,52 1845,-21 107,168 68,840 40,1085 -138,-37 -84,114 -110,-152l-71 169c-260,20 -607,-4 -881,-5 -426,-1 -500,28 -819,-124z"/>
   <path fill="black" d="M19936 641c-102,55 -86,29 -163,149 -38,60 3,19 -42,65 -143,-157 -141,-102 -298,-43 -17,-161 60,-211 -163,-255 83,-171 181,-44 104,-344 220,57 189,66 321,-84 103,157 22,185 280,171 -62,130 -114,172 11,314l-52 27zm147 35c44,-129 -1,-85 -11,-108l-68 -94c62,-90 120,-94 48,-210 -106,-172 -73,-7 -187,-79 -91,-58 -5,-42 -86,-111 -6,-5 -15,-13 -21,-17 -165,-106 -180,67 -191,103 -109,-23 -174,-81 -253,1 -94,96 -38,67 -12,208 -157,107 -134,0 -125,250l155 67c-16,99 -57,145 48,212 100,63 124,5 210,-39 89,82 43,142 193,94 119,-38 89,-67 91,-194 142,-5 165,44 208,-82z"/>
   <path fill="black" d="M18048 4603c-8,3 -19,8 -25,10 -319,80 -276,-80 -287,-176l361 30 -50 136zm-624 -631c60,35 29,12 96,29 -1,-413 417,-626 676,-334 99,111 151,292 69,451 -41,79 -88,115 -146,169 -91,83 -74,70 -274,56 -57,52 -106,35 -200,37l49 314 428 32c142,-589 -6,-219 210,-541 217,-325 -94,-892 -599,-706 -211,78 -293,221 -308,495z"/>
   <path fill="black" d="M7843 7997l-10 687c216,-27 287,-66 360,109l17 -913c-162,-45 -145,-131 -305,-20 -199,138 44,46 -63,138z"/>
   <path fill="black" d="M11210 6161c-275,124 -128,74 -222,230 -91,-77 -58,-81 -144,-90 -88,-8 -96,23 -170,55 -14,-318 -17,-151 -166,-310 142,-85 177,-92 106,-274 159,-19 73,49 204,-4 109,-44 43,-54 145,-112 42,247 116,146 247,211 -65,106 -74,175 23,282 -7,5 -19,9 -24,12zm-434 -473c-129,-43 -128,-94 -215,-1 -79,84 -34,116 -4,220 -7,5 -244,79 -104,246l121 67c-30,233 -35,87 89,246 129,-44 51,-46 184,-69 80,93 61,140 246,58l25 -172c129,4 166,45 209,-82 42,-123 -16,-128 -86,-193 1,-3 258,-296 -148,-272 -5,-9 -8,-34 -10,-28 -26,66 42,-129 -147,-146 -123,-11 -82,35 -161,126z"/>
   <path fill="black" d="M27846 6693l172 -14 -2 392c90,-67 154,-140 237,-227 101,-106 101,-157 290,-165 213,-10 701,-14 896,21l-27 -114c-246,13 -514,7 -762,5 -406,-4 -229,17 -486,209 -6,4 -22,23 -26,16 -4,-7 -18,11 -26,16l-4 -225c-120,-45 -84,4 -167,-71l2 -153 3 -766c-1,-32 -2,-72 -7,-103 -16,-107 -11,-55 -28,-91 -101,69 -39,-54 -65,123 -2,14 2,153 2,178l-3 968z"/>
   <path fill="black" d="M7406 6890c98,82 1905,42 2277,42 187,0 572,59 696,-42 -81,-70 -202,-45 -343,-44 -445,3 -2522,-55 -2630,44z"/>
   <path fill="black" d="M19195 3738l-120 13c49,-79 19,-30 71,-47 4,-128 5,-153 -45,-235l73 -21c169,-58 95,-36 170,-155 91,90 130,113 285,76 -41,196 -40,171 95,277 -127,93 -150,48 -132,262 -212,-73 -148,-60 -317,35l-49 -151c-4,-8 -11,-20 -15,-26 -3,-7 -11,-17 -15,-26zm-43 262c202,64 145,63 232,4l66 -48c285,125 192,-41 275,-170 73,-113 52,119 94,-141 -2,-148 -66,-29 -98,-174l-71 -225 -130 48c-162,-75 -13,-125 -291,-88 0,247 -55,87 -200,153 -58,168 -24,119 23,260 -193,160 27,243 38,247l62 134z"/>
   <path fill="black" d="M8378 693l206 18 -1 143c-152,58 -361,36 -557,36 -190,0 -349,-36 -245,-242 84,-80 109,105 147,-25 38,-130 -17,-156 97,-258 207,-187 394,-8 452,178 -85,171 -54,-39 -98,150zm-606 269c186,27 780,66 874,-48 89,-108 11,-192 -50,-302 -70,-126 -6,-195 -145,-317 -206,-181 -458,-95 -579,128 -95,175 -392,204 -99,539z"/>
   <path fill="black" d="M20153 5724c78,30 234,55 304,58l5 -116 -195 -19c-74,-21 -80,-99 -131,-291 -2,-7 -5,-17 -7,-24 -8,-51 -4,-31 1,-83 58,-620 784,-478 747,-24 -9,113 -68,175 -86,260 -6,29 -12,144 -10,172 11,139 -8,65 42,134 125,-126 13,-140 68,-319 42,-138 104,-116 75,-344 -25,-197 -212,-379 -427,-386 -248,-8 -413,133 -470,336 -79,279 -38,403 83,646z"/>
   <path fill="black" d="M14282 6038l104 2 -16 -120 346 2 13 -291 708 -6 -12 300 340 -5 13 125 110 2 -36 -206 -338 -13 -8 -192c302,-33 1020,53 1235,-40l-3314 -5c138,89 985,28 1231,42l-11 193 -335 15 -30 200z"/>
   <path fill="black" d="M29171 9354l203 -41c118,150 415,368 469,536l-97 82 -162 -131c-112,-115 -351,-317 -414,-446zm-207 -173c-65,19 -73,-80 -47,72l828 808 229 -245c-109,-175 -507,-501 -615,-635 -50,-62 -27,-29 -49,-81 -75,-40 -49,-15 -119,-81l-97 12c68,154 46,67 154,186 -26,23 28,10 -86,52 -50,19 -47,9 -94,16l-105 -105z"/>
   <path fill="black" d="M2649 2225c-102,-71 -156,-36 -266,-125 -84,-13 -172,-19 -206,-26l-169 -49c-5,-20 -18,-22 -22,-35l0 433c152,-55 63,52 94,-150 21,-141 -61,-71 59,-145 65,116 11,61 41,211 24,120 -1,27 30,84 102,-84 24,13 57,-117l10 -62c25,-81 -1,-27 39,-76 64,88 21,140 71,249 110,-51 48,-88 105,-168 83,79 70,344 50,505 -21,165 -31,111 -105,205 -29,36 -33,-23 -50,93 -21,145 25,124 35,140 86,-46 20,6 62,-78 4,-7 6,-19 10,-26 4,-8 6,-18 10,-26 58,-114 91,-97 120,-234 37,-178 3,-408 28,-601z"/>
   <path fill="black" d="M21187 1664l-4 -158 159 0 -4 141 -152 17zm11 272l-14 -178c274,-12 71,36 204,188 61,-83 37,-61 50,-189 139,-11 103,22 186,-51 -161,-133 -199,89 -187,-197l185 9 1 -111 -187 5c0,-3 -9,-94 -9,-96 -17,-61 -22,-60 -39,-90 -60,93 -33,111 -71,183 -137,-3 -100,17 -146,-90 -4,-9 -6,-21 -10,-30l-21 -65c-43,61 -46,35 -58,175l-180 60c108,87 68,4 186,71l0 106c-90,52 -97,2 -188,71l184 58 5 177 108 -6z"/>
   <path fill="black" d="M20384 4615c108,12 78,-37 199,-116 76,-49 170,-86 275,-92 434,-24 690,404 536,760 -44,102 -84,138 -92,275l11 277c27,92 -12,15 40,72l44 -134c6,-62 -5,-148 -1,-213 10,-174 50,-141 104,-279 133,-335 -110,-874 -639,-852 -222,10 -462,142 -476,301z"/>
   <path fill="black" d="M4180 6607l-10 -8c8,6 18,15 23,19l62 58c105,110 75,137 200,168 27,-137 19,-239 20,-377 0,-45 5,-139 1,-178 -5,-59 -6,-51 -19,-103l-27 -64c-86,122 -59,321 -51,512 -218,-188 -318,-496 -495,-504 -8,159 -74,643 52,718 77,-112 42,-363 45,-522 83,99 135,151 199,281z"/>
   <path fill="black" d="M23861 9463c246,3 370,38 304,317 -93,55 -142,81 -303,75l-1 -392zm-4 624l20 -107c1,-12 10,-12 14,-18 368,-9 115,67 410,126 -47,-150 -25,-109 -118,-193 134,-142 304,-560 -433,-529l5 698 101 24z"/>
   <path fill="black" d="M123 6223c314,11 508,71 310,379l-314 23 4 -402zm431 -21c-462,-164 -248,-29 -519,-101 -31,192 -76,603 24,747l92 -103c3,-4 8,-14 14,-20 434,4 514,-148 389,-523z"/>
   <path fill="black" d="M2790 4683c83,61 129,103 173,191 167,131 13,308 197,549l474 1 89 -228 4 -67 -360 26c41,195 62,8 242,111 -81,116 -32,62 -412,69l-1 -277c-23,-63 -30,-73 -67,-121 -114,-208 -283,-216 -273,-597l-89 -11 24 354z"/>
   <path fill="black" d="M25296 9989l-8 -231 253 19 14 180 -259 32zm-5 -533l199 43 -11 145 -189 8 1 -196zm-79 625c208,8 312,39 430,-107 76,-306 -85,-174 -46,-370 -18,-280 -141,-250 -396,-241l12 718z"/>
   <path fill="black" d="M3283 4929c-5,-10 -16,-9 -25,-13l2 -106c17,-6 0,-13 79,-22 12,-1 54,-3 66,-2 96,3 50,2 115,24l-7 138 -231 -19zm-86 -544l-112 -9c3,83 -4,141 24,204 23,52 9,14 45,61l54 63c-84,129 -11,21 -44,139 -28,101 18,35 -36,95 37,48 44,58 67,121l55 10c39,-87 -73,-70 85,-85 132,-13 57,7 78,78l48 8c28,-82 -63,-91 87,-88 153,3 55,15 82,79 5,158 12,29 -46,79l-217 16 360 -26 1 -39c-86,-57 -52,-99 -31,-214l-82 68c-3,-59 -15,-146 -16,-193 -3,-183 186,-248 55,-455 -133,56 -17,99 -106,265 -56,104 -105,128 -227,131 -81,-118 -134,-135 -124,-308z"/>
   <path fill="black" d="M26506 235l511 10 -2 534 -526 13 18 -556zm-64 756c164,-166 -98,-123 662,-123l3 -718 -615 6 -22 -119 -29 953z"/>
   <path fill="black" d="M3273 6250c341,-161 497,380 187,479 -310,99 -520,-322 -187,-479zm-251 322c80,432 791,310 694,-166 -86,-420 -790,-352 -694,166z"/>
   <path fill="black" d="M14337 9449l1516 2c188,-5 92,25 150,-58 -8,-5 -19,-11 -25,-13 -100,-34 -1534,-56 -1743,-20 -76,13 -35,7 -76,33 59,93 8,57 178,56z"/>
   <path fill="black" d="M11927 4281c198,-6 226,0 368,56 70,327 -55,348 -370,334l1 -391zm-11 634l9 -121c160,-32 739,-62 396,-511l-47 -74c-149,-38 -272,-51 -440,-17l-8 688 90 35z"/>
   <path fill="black" d="M10430 4675l-3 -399c187,0 393,-14 405,185 14,223 -202,225 -402,214zm13 226l-16 -129c268,-1 503,-19 492,-316 -11,-301 -282,-273 -573,-274l-17 560c23,243 -28,116 113,158z"/>
   <path fill="black" d="M64 8864c45,44 -92,56 131,72 51,4 158,-4 215,-5 129,-1 259,1 388,1 576,0 610,179 633,-36 21,-200 -135,-122 -230,-88 -241,87 -920,-72 -1137,56zm1869 -1127c158,-47 45,17 115,-72l-56 -30c-24,-9 -45,-8 -83,-8l23 110zm-397 2237l118 2c-22,-147 14,-60 -45,-113 -103,30 -54,-47 -73,112zm129 -2347l-181 -12c34,122 -25,69 90,104 117,-35 46,19 91,-92zm-1517 1571l93 -40 -4 -83c-65,-81 87,-71 -87,-68l-1 191zm2232 269l97 -19c-17,-260 35,-340 -57,-459l-38 120c-1,7 1,93 1,107 1,86 0,165 -3,251zm-1441 488l343 15 18 -100c-130,-12 -317,-31 -425,17 2,136 -15,14 65,69zm942 -1873c52,-204 22,-15 -51,-311l-29 -82c-3,-6 -11,-15 -16,-22l-45 135c-5,22 -202,444 141,279zm-1338 -366c118,10 241,4 360,5 424,2 271,22 340,-56 -131,-68 -585,-47 -717,-24l17 76zm1359 2251l482 -10c78,-41 100,95 100,-141 -1,-169 -33,-76 -64,-109 -5,8 -11,18 -13,24 -46,94 -26,158 -46,104 -2,-5 -7,18 -11,26l-443 6 -4 100zm-182 83c240,-85 21,-51 130,-317 40,-97 118,-70 -4,-190 -15,-11 43,-52 -89,-34 -19,3 -55,24 -66,36 -38,40 -35,81 -15,134 41,109 81,10 44,372zm-1570 -75l119 -20c63,0 156,5 217,2l139 -36c-55,-94 68,-55 -390,-58l7 -419 -74 -18 -18 550zm-15 -1459c135,2 101,111 98,-499 -2,-476 95,-306 -23,-389 -74,22 -30,7 -62,36l-13 852zm1217 1510l103 0 -13 -444c-105,-29 -98,-9 -191,-47 -109,-44 -39,-74 -191,-19 -62,103 -56,134 49,219 210,-19 44,-50 244,-72l-2 363zm-1295 -680l358 5c-19,229 -86,85 -66,349l222 5c64,-266 -52,-51 -57,-451l-455 3 -1 89zm128 -753l-120 23c29,106 -83,47 93,78 15,3 170,-4 195,-4l245 -3c-20,-441 185,-538 -46,-539 -229,0 -47,194 -46,448l-321 -3zm1846 1049c157,2 416,38 525,-39 -61,-122 -47,-49 -423,-67 5,-102 185,-440 -90,-351 -181,59 -14,139 -12,457zm443 -1837l1 -106c-44,-69 -5,-86 -187,-61 26,138 2,23 39,77 143,207 -51,849 93,1029 106,-52 52,-795 55,-939zm-1558 273c24,-184 19,-186 -145,-249 -7,8 -17,9 -20,24l-287 77c-35,-176 18,-261 -55,-381 -47,62 -50,34 -50,220 0,85 0,168 -1,254 613,-15 215,113 558,56zm10 1073c-53,44 -156,35 -224,40 -3,240 -62,649 24,840 66,-29 69,21 72,-229l-3 -525c266,6 91,76 315,73 78,-123 78,-106 -1,-229 -94,-9 -114,3 -184,30zm537 -712l26 196c248,-20 104,-73 329,-83 119,-5 272,2 392,6 -1,-287 -37,-756 22,-1018 -129,36 -50,-16 -109,53l6 865c-550,76 -493,-130 -666,-19zm89 856l122 59c67,-67 41,-40 94,-105 -30,-189 -89,-90 -70,-327l859 -3 -1 -22c-56,-96 7,-46 -102,-76 -49,-14 -645,18 -855,-18 5,96 19,204 -9,292 -31,97 -91,16 -38,200zm-682 -680c125,170 240,128 240,-106 -104,-15 -69,-65 -70,-209l365 9 4 -717c-50,-64 85,-46 -106,-59l16 678 -365 9c-3,382 -38,198 -84,394z"/>
   <path fill="black" d="M8433 8793c113,65 1804,69 1948,0 -60,-40 52,-26 -131,-53l-1731 6c-96,20 -27,4 -86,48z"/>
   <path fill="black" d="M11506 1926c-56,-103 -64,-106 -50,-244 146,1 360,-30 477,25 -67,176 -83,-1 -243,106 68,64 -2,20 108,52 52,15 16,-17 97,18 -47,103 33,68 -164,75l-225 -32zm-134 -94l64 214 511 -4c42,-208 74,-177 74,-458l-162 12 -68 13 -203 -7 -70 -3 -142 -2 -4 236z"/>
   <path fill="black" d="M2371 6841l-19 -269 68 -39 347 8c-16,257 -25,228 41,305 78,-101 61,-643 0,-718 -76,81 -49,170 -40,306l-416 -2c5,-153 21,-196 -37,-305l-53 196c-23,570 -19,518 109,518z"/>
   <path fill="black" d="M26358 7577c88,-62 157,-146 300,-102 105,32 182,141 144,278 -56,203 -477,335 -444,-176zm81 -163c-15,8 -119,22 -167,162 -32,94 -26,180 16,264 61,125 237,237 435,151 367,-159 128,-789 -283,-578z"/>
   <path fill="black" d="M10634 3012c28,63 -29,73 212,72 416,-2 226,84 567,209 319,118 577,62 880,-34 -23,-70 25,-39 -66,-68 -340,61 -537,133 -870,-22 -120,-56 -210,-163 -305,-180 -74,-13 -391,-31 -418,23z"/>
   <path fill="black" d="M22172 9425l91 1 -8 -153 297 -21c71,121 -8,126 104,183 4,-173 2,-168 -33,-305l123 -73c0,-416 15,-268 -53,-341 -30,46 -16,2 -32,81 -42,205 72,69 -145,342l-175 37c-23,-29 -139,-172 -147,-196 -23,-71 0,-91 -11,-152 -21,-117 9,-45 -54,-113 -29,44 -19,1 -35,79l1 246c59,47 74,60 124,117 -46,109 -48,107 -46,266z"/>
   <path fill="black" d="M29205 3815c6,7 17,9 19,22 0,2 70,100 105,249l-190 -31 65 -241zm-112 -36c-3,173 -108,318 -139,422 -25,83 -36,76 15,156l68 -83c41,-62 -4,-23 59,-87 28,-102 -81,-73 86,-91 137,-15 96,42 120,90l84 -3c26,257 -17,148 112,177 36,-85 21,-50 19,-162 -68,-59 -44,-29 -87,-131l-113 -311c-66,-147 5,-69 -100,-133l-122 156z"/>
   <path fill="black" d="M8839 9656c-10,-191 -123,-266 -32,-474l170 2c106,246 -16,260 -36,468 76,23 188,92 222,55 81,-88 11,-38 -111,-137 318,-653 -640,-641 -318,0 -141,115 -137,27 -204,167 125,14 187,-43 310,-80z"/>
   <path fill="black" d="M9417 9945c-21,-195 -244,-512 131,-481 121,233 -4,247 -33,454 128,65 149,102 315,117 -73,-152 -88,-96 -207,-184 300,-586 -577,-764 -314,35 -151,39 -144,18 -201,162l309 -102z"/>
   <path fill="black" d="M1783 2165l-125 7c-147,313 -59,615 144,857 48,58 8,-6 47,71l95 -1 -11 -98c-89,-67 -187,-149 -215,-275 -30,-136 -39,-385 33,-482 127,151 -51,266 106,397 65,-129 35,-329 36,-638 -65,84 -7,24 -50,93 -40,65 -22,38 -59,70z"/>
   <path fill="black" d="M10013 9661c-14,-117 -210,-505 59,-488 237,15 51,356 39,467 114,50 176,103 317,107 -82,-147 -97,-91 -205,-179 170,-305 37,-576 -339,-439 -51,173 -48,269 18,439l-129 106c72,102 71,25 240,-14z"/>
   <path fill="black" d="M4923 733l49 4c85,-133 143,-59 113,-212 -118,29 -35,30 -130,83 -50,28 -121,49 -202,35 -271,-44 -277,-465 2,-515 204,-36 176,89 340,92 -18,-79 -9,-83 -99,-138 -519,-313 -873,721 -72,650z"/>
   <path fill="black" d="M20176 1808c202,218 308,120 530,53l13 -126c-107,-24 -97,136 -312,106 -114,-16 -210,-106 -217,-240 -26,-482 541,-169 542,-169 -22,-138 52,-59 -84,-150 -291,-196 -752,156 -472,526z"/>
   <path fill="black" d="M11663 4161l-76 334 -413 -10c0,-243 26,-215 -45,-301 -37,44 -16,-13 -37,67l-6 277c1,137 -18,189 13,313l30 57c69,-106 46,-170 41,-306l416 -2c-3,188 -23,200 36,308 87,-124 49,-590 41,-736z"/>
   <path fill="black" d="M24551 10044l59 11c15,2 41,9 62,11 194,21 212,-8 344,-152 16,-117 22,-193 22,-312 0,-22 -2,-123 -5,-139 -28,-138 2,-42 -48,-98 -75,107 -15,247 -37,381 -23,146 31,-78 -16,61l-29 52c-32,150 -226,176 -322,42 -79,-110 -39,-352 -45,-509l-77 -49c-23,370 -40,430 92,700z"/>
   <path fill="black" d="M6558 745l-17 -306 310 10 -7 -107 -304 -6c3,-142 49,-263 -66,-309 -58,86 -34,188 -33,310 -42,0 -185,-6 -215,-1 -150,23 -61,-11 -98,67 90,58 181,35 310,37l13 304 107 2z"/>
   <path fill="black" d="M5570 439c4,142 -38,253 59,313 73,-99 45,-166 46,-308l309 -42c-45,-91 76,-68 -313,-69 4,-139 31,-220 -41,-311 -97,55 -55,172 -60,310 -408,9 -249,-27 -312,70 111,61 179,37 313,37z"/>
   <path fill="black" d="M19157 6735c23,-153 88,-530 -125,-509 -172,18 -128,279 -105,519l230 -10z"/>
   <path fill="black" d="M2094 6103c-158,42 -417,41 -574,5l-12 104 247 18c9,115 7,226 6,343 -1,139 -37,222 60,277 57,-79 45,-110 45,-277 0,-116 -3,-230 -1,-346l252 -2 -22 -123z"/>
   <path fill="black" d="M1289 6306c44,-109 35,-61 80,-182l-18 -9c-93,43 -20,-2 -82,46l-195 225c-177,-136 -177,-265 -274,-241 -56,101 124,257 208,315 17,396 -50,338 72,388 56,-90 33,-254 39,-388l169 -154z"/>
   <path fill="black" d="M1541 4186l103 -150c-161,-196 -204,-178 -343,-188l-715 73c-4,8 -8,19 -10,26 -2,6 -7,19 -10,27 -3,10 -13,50 -17,61 -25,71 -16,50 -41,94l-1 -283c-4,9 -11,11 -13,26 -12,135 -74,117 21,280 72,-44 38,-6 70,-85l36 -116c87,0 743,-35 750,23 2,16 7,24 10,31 42,94 18,95 162,94l-3 88z"/>
   <path fill="black" d="M24179 7131c72,143 77,324 -121,295 -12,-60 -53,-258 30,-305 111,-63 90,10 90,10zm-163 409c139,-10 159,5 248,-68 7,-5 14,-14 20,-19l42 -40c-47,-213 35,-403 -234,-402 -147,60 -184,169 -125,399l39 104c2,6 7,17 9,26z"/>
   <path fill="black" d="M14565 460c-57,-94 -90,-408 72,-325 49,25 133,311 -72,325zm-113 -389c-32,189 -41,293 14,449 353,111 363,-138 281,-447 -128,-33 -90,-57 -202,-31l-70 22c-4,1 -15,5 -23,6z"/>
   <path fill="black" d="M4112 9958c-79,-138 -27,-418 100,-283 47,50 94,367 -100,283zm-117 -366c0,228 -80,296 82,467 233,42 273,-48 262,-279 -5,-101 -15,-177 -93,-209 -94,-39 -132,6 -251,21z"/>
   <path fill="black" d="M24702 7418c-206,80 -150,-249 -108,-285 181,-72 162,166 108,285zm-190 -381l-19 12c-35,215 -63,297 57,476l234 -21c96,-311 86,-547 -272,-467z"/>
   <path fill="black" d="M5911 9961c-4,-8 -12,-28 -13,-23l-29 -122c-1,-145 39,-141 42,-145l81 -19c0,0 86,41 51,230 -21,113 -39,117 -132,78zm-98 81c8,2 19,-3 23,6 1,3 112,81 286,-56 19,-264 63,-467 -246,-423 -140,132 -123,268 -63,472z"/>
   <path fill="black" d="M23327 7443c-71,-90 -125,-358 84,-322 25,55 53,134 31,228 -24,101 -23,76 -115,94zm-139 -31c8,14 24,39 29,48 3,6 7,84 19,35 1,-5 6,12 9,18l189 8c185,-178 95,-300 54,-507 -330,6 -307,49 -300,398z"/>
   <path fill="black" d="M22376 7435c-233,-26 -168,-346 10,-311 10,20 16,-11 32,84 28,159 -14,178 -42,227zm-199 32l256 68c78,-134 177,-451 -45,-519 -263,-81 -242,252 -211,451z"/>
   <path fill="black" d="M14043 141c194,-37 153,222 79,324l-67 -5c-118,-139 -35,-213 -27,-293 2,-16 10,-18 15,-27zm-57 400c414,61 310,-425 173,-493 -271,-134 -308,293 -173,493z"/>
   <path fill="black" d="M21765 7126c210,-51 158,242 112,291 -153,161 -149,-186 -112,-291zm237 322l-14 5 8 -317 10 -42c-119,-74 -219,-122 -340,6 -58,183 -32,284 59,427 148,3 194,-29 277,-80z"/>
   <path fill="black" d="M26113 10080c108,-165 -23,-242 96,-416 59,-86 322,-382 114,-274 -54,28 -111,151 -209,225 -35,-26 -29,-16 -62,-52 -100,-109 -80,-159 -216,-194 -11,230 223,182 232,482 6,224 -43,99 47,230z"/>
   <path fill="black" d="M6426 9977c-146,-212 72,-493 126,-230 26,129 -28,191 -36,231l-89 -1zm-113 -380c-11,110 -26,266 0,409l0 29 232 30c215,-189 158,-594 -232,-468z"/>
   <path fill="black" d="M27830 4181c-19,-95 17,-58 -41,-97l-157 -7c28,-108 59,-130 97,-249l55 -131c-43,-121 22,-50 -81,-101 -30,55 -274,717 -278,745 235,28 40,25 169,-146l236 -15z"/>
   <path fill="black" d="M5141 9679c145,-135 166,211 97,279 -78,77 -125,5 -140,-72 -16,-80 -6,-162 43,-207zm-41 -107c-138,138 -123,313 -17,508l239 -40c55,-155 52,-294 2,-460l-225 -8z"/>
   <path fill="black" d="M25766 5445c177,-80 338,-223 524,-291l-12 -67 -126 -36 -22 72 -298 171 -3 -272 -10 -146c-55,-52 120,-9 -87,-52 22,205 -20,434 33,622z"/>
   <path fill="black" d="M1270 1493c46,68 10,29 128,44 23,-65 29,-63 54,-135l42 67c2,5 6,18 10,27l141 3c73,-119 -55,-47 129,-101 -76,-121 24,-26 -102,-77l-98 102c-63,-130 98,-232 228,-257 -28,153 18,44 -56,155 123,-10 146,-62 118,-175 -58,-233 38,52 -51,-69 -25,-33 -27,18 -38,-61l-506 479z"/>
   <path fill="black" d="M15583 458c-62,-107 -61,-214 -8,-328 141,1 144,9 141,166 -2,131 -5,166 -133,161zm129 92c129,-174 83,-248 82,-453 -103,-52 -183,-67 -309,-28 -52,188 -63,341 46,470l180 10z"/>
   <path fill="black" d="M20343 9281c366,-92 352,324 12,229l-12 -229zm338 229l6 -231 -103 -91c-559,-95 -399,702 97,321z"/>
   <path fill="black" d="M25325 315c16,23 58,123 81,160 157,258 140,225 376,224 -44,-175 -128,-213 -191,-375l-266 -9z"/>
   <path fill="black" d="M399 4868c263,-103 262,297 -15,180 -17,-68 -19,-23 -16,-97 6,-171 -8,-10 31,-82zm-164 -195c97,107 56,340 2,462 187,3 380,50 420,-120 52,-220 -115,-263 -282,-224 -64,-168 80,-109 -140,-118z"/>
   <path fill="black" d="M6441 1460c60,107 64,58 457,58 310,0 396,48 457,-58 -66,-48 -57,-42 -208,-41l-602 0c-170,22 -47,1 -103,41z"/>
   <path fill="black" d="M1270 1493l506 -479c16,-37 18,-71 38,-148 -251,86 -91,74 -342,280 -122,100 -172,163 -269,303l68 44z"/>
   <path fill="black" d="M22951 4826c-95,105 -60,50 -94,178 265,-60 240,-244 493,-367 24,-54 51,-86 46,-173 -138,9 -165,82 -252,162 -87,80 -139,93 -192,201z"/>
   <path fill="black" d="M13320 3787l-14 220 14 120 3 241 106 -36 -2 -752c-66,-24 -67,-23 -110,-53l4 258z"/>
   <path fill="black" d="M1586 5021c-19,18 -15,98 -159,41 -140,-56 -249,-347 132,-327 48,209 40,169 -143,162l58 42c102,69 69,18 112,82zm8 399l12 -928 -31 -9 8 150c-44,23 -2,9 -83,27 -12,3 -52,6 -64,9 -341,69 -240,539 137,456l21 295z"/>
   <path fill="black" d="M29321 1137l107 1 5 -118c-208,45 -699,-33 -836,52 41,109 161,65 301,65 141,-1 282,0 423,0z"/>
   <path fill="black" d="M11728 1288c46,-42 37,-23 82,-98 26,-43 48,-86 62,-140 -97,-103 -125,-59 -321,-84 -14,187 -18,272 177,322z"/>
   <path fill="black" d="M26841 4271c87,36 146,70 271,76 95,-78 142,-108 165,-245 -100,-12 -18,44 -71,-33l-7 -388c40,-35 -57,-24 73,-47l-89 -7c-60,300 117,641 -216,610 -82,-119 -12,-106 -114,-175 -41,58 -34,-1 -35,106 0,4 18,75 22,102z"/>
   <path fill="black" d="M666 4809c63,88 108,201 149,317 -66,120 -47,36 -66,123l147 6c-4,-296 130,-382 141,-455 2,-12 9,-15 12,-23l-158 0c23,119 34,103 -28,240 -76,-116 -75,-124 -41,-232 -123,-10 -82,-22 -156,24z"/>
   <path fill="black" d="M25259 3162l118 38c109,-78 172,-94 245,-185 -155,10 -52,22 -83,-67l-84 76c-46,40 -32,31 -99,61l-10 -177 -157 -7 -101 2 2 115c118,-5 81,-25 164,29l3 115z"/>
   <path fill="black" d="M1586 5021c-43,-64 -10,-13 -112,-82l-58 -42c182,7 191,47 143,-162 -381,-20 -273,271 -132,327 144,58 140,-22 159,-41z"/>
   <path fill="black" d="M13316 3529c43,30 43,29 110,53l-5 -248 460 -2 -18 -106c-190,11 -339,-24 -502,43l-46 260z"/>
   <path fill="black" d="M3697 4876c-22,115 -56,157 31,214 21,-356 301,-224 292,-749l-95 -6c-1,261 -108,421 -228,541z"/>
   <path fill="black" d="M19100 9567c-102,10 -1,12 -70,-25 8,-182 176,-151 146,-5 -39,24 -6,24 -76,30zm-144 36c143,92 170,102 310,-5l12 -185c-202,-127 -344,-106 -322,189z"/>
   <path fill="black" d="M27729 3829l109 249 -49 6c58,39 22,2 41,97 119,-18 21,26 103,148l48 45c88,-133 20,155 33,-66l-6 -98 -225 -512 -55 131z"/>
   <path fill="black" d="M1808 2010l-7 49 -18 106c38,-33 19,-6 59,-70 43,-69 -15,-9 50,-93 1,-118 -18,-129 35,-218 67,38 27,-60 58,70 6,25 1,110 1,135 5,13 17,15 22,35l169 49c-135,-88 -104,-70 -112,-331 -138,-38 -63,-97 -248,-1l-10 269z"/>
   <path fill="black" d="M29049 861c67,47 474,55 591,34 63,-11 62,-21 86,-34 -59,-87 100,-62 -334,-61 -500,1 -280,9 -343,61z"/>
   <polygon fill="black" points="22985,6098 23261,6110 23277,5888 22976,5899 "/>
   <path fill="black" d="M20825 3105l-174 163 143 56 31 169c163,-57 -12,-57 145,-77 182,-23 81,117 143,-75l-247 -47 -41 -188z"/>
   <path fill="black" d="M26381 2362c-31,-114 19,-49 -56,-106l-582 -2c26,160 6,52 53,91l585 17z"/>
   <path fill="black" d="M25372 2694c45,86 -100,61 318,61 46,0 181,7 215,4 143,-15 81,31 101,-99 -105,0 -211,1 -317,0 -53,0 -130,-5 -179,-3l-139 37z"/>
   <path fill="black" d="M6619 8604c-2,-12 -15,-69 -16,-87 -1,-16 -16,-14 -22,-20l-617 4 52 82 603 21z"/>
   <path fill="black" d="M25678 5574c-243,-212 -136,-227 -270,-440 -136,44 -26,231 26,320 170,292 238,125 244,120z"/>
   <path fill="black" d="M5616 9550l-92 9c-25,257 -56,487 70,518 56,-101 25,-395 22,-528z"/>
   <path fill="black" d="M15295 573c-2,-154 44,-435 -41,-549 -117,60 -64,387 -51,519l92 30z"/>
   <path fill="black" d="M3584 3912l132 62c125,72 168,235 208,362l95 6c-57,-326 -166,-369 -361,-522 26,191 29,59 -75,92z"/>
   <path fill="black" d="M14755 9146c44,30 -2,21 77,38l459 6c45,-2 53,-4 95,-14 7,-2 20,-3 25,-14 5,-11 16,-11 23,-16 -94,-76 -178,-45 -357,-45 -373,-1 -257,-6 -322,45z"/>
   <path fill="black" d="M22669 7549c114,-42 47,21 95,-61l22 -485c-211,-5 -56,-17 -113,62l-4 483z"/>
   <path fill="black" d="M2831 1304l189 -17c96,2 -2,13 36,-39l5 -184 -231 -14 2 254z"/>
   <path fill="black" d="M25633 4697c102,-16 210,-53 305,-50 159,4 140,68 256,22 -13,-29 66,-109 -258,-117 -174,-4 -244,5 -304,146z"/>
   <path fill="black" d="M24975 6992c7,212 -27,432 45,553 96,-81 69,-328 50,-531l-94 -22z"/>
   <path fill="black" d="M20031 3331l9 52c100,54 223,99 320,115 -19,-165 -41,-40 -60,-176 -22,-157 75,-22 -9,-160 -86,54 -80,53 -110,192l-105 -88 -46 64z"/>
   <path fill="black" d="M5791 8340l476 12c168,-15 84,-9 129,-53 -116,-83 -438,-40 -607,-31l2 72z"/>
   <path fill="black" d="M25907 2136l3 -100c-165,25 -454,-31 -562,58 103,87 401,46 559,42z"/>
   <path fill="black" d="M21483 7313l-3 -295 -85 -15c-23,146 -41,421 30,543 97,-79 64,-71 59,-233z"/>
   <path fill="black" d="M14972 560c67,-40 72,55 68,-263 -1,-114 19,-187 -33,-267 -112,40 -70,80 -69,231 0,42 -4,107 -2,144 1,14 2,56 4,69 10,59 18,59 32,87z"/>
   <path fill="black" d="M6214 1213c28,105 148,89 404,74 14,-1 55,-2 67,-5 73,-14 40,-11 78,-34 -42,-66 44,-61 -252,-58 -96,1 -218,-16 -297,22z"/>
   <path fill="black" d="M28549 4064l-67 112 -67 -136c-37,102 65,69 -94,86 4,7 12,9 13,20 14,91 91,182 140,213 108,-54 51,9 105,-151 27,-79 39,-109 69,-184 -55,51 -13,35 -101,41z"/>
   <path fill="black" d="M28251 3959c27,33 27,10 50,71 31,81 3,-7 21,96 158,-16 57,16 94,-86l-162 -423c-84,43 -30,1 -76,64 45,128 80,145 74,278z"/>
   <path fill="black" d="M8295 5902c46,75 -33,65 260,60 115,-2 188,18 274,-25 -22,-67 72,-76 -238,-74 -132,1 -196,-20 -296,39z"/>
   <path fill="black" d="M22928 7551l94 -1c-5,-156 36,-442 -46,-542 -89,102 -43,385 -48,543z"/>
   <path fill="black" d="M4783 10081c69,-47 63,50 64,-265 0,-23 5,-134 3,-145 -23,-195 27,-58 -68,-119 -5,9 -12,12 -14,28 -1,16 -10,21 -11,29 -20,100 -2,-32 -11,65 -11,111 -12,310 36,408z"/>
   <path fill="black" d="M3584 9957c117,55 150,-32 150,-141 0,-286 -284,-164 -150,141z"/>
   <path fill="black" d="M3584 9957c-134,-305 150,-427 150,-141 0,109 -33,196 -150,141zm188 118l0 0z"/>
   <path fill="black" d="M17478 888l163 54c51,140 2,92 81,132 55,-92 37,-114 27,-277l-292 -5 21 96z"/>
   <path fill="black" d="M26191 5615c170,-22 330,-272 310,-413 -13,-87 1,-21 -35,-70l-67 108c-140,400 -177,180 -208,375z"/>
   <path fill="black" d="M17644 4379c94,-1 143,16 200,-37 -124,-9 -47,15 -160,-89 -152,-138 -103,-126 -164,-253 -66,-16 -35,6 -96,-29 51,311 152,241 220,407z"/>
   <path fill="black" d="M2883 4035l49 66c89,-82 177,-216 393,-218l-7 -113c-264,61 -302,118 -435,265z"/>
   <path fill="black" d="M13722 1086l-504 0c9,168 -7,55 61,97l388 -5c54,-41 8,26 55,-93z"/>
   <path fill="black" d="M17266 1531c-51,-103 6,-64 -179,-70 -6,-189 31,-130 -70,-181 -57,95 -35,156 -33,284 206,6 190,22 282,-33z"/>
   <path fill="black" d="M13655 3c4,95 6,195 5,294 0,19 -3,134 -2,143 17,134 15,73 45,119 82,-122 49,-363 37,-509l-85 -47z"/>
   <path fill="black" d="M5736 6043c69,47 -86,17 103,39l286 1c206,-24 49,1 122,-40 -83,-92 -112,-55 -265,-55 -379,0 -170,5 -245,55z"/>
   <path fill="black" d="M23751 7003c-45,66 -25,-61 -53,130 -17,116 -9,325 53,407 46,-80 16,88 40,-120l1 -286c-19,-189 -12,-74 -41,-131z"/>
   <path fill="black" d="M6863 9548c-62,86 -22,-77 -54,125l-1 286c15,106 12,67 55,125l28 -58c50,-183 -13,-449 -13,-450 -2,-17 -10,-19 -15,-29z"/>
   <path fill="black" d="M11938 6396l392 33c157,-17 52,39 106,-68 -64,-39 13,-26 -107,-36l-287 -2c-211,28 -52,20 -104,73z"/>
   <path fill="black" d="M11883 6854c118,62 194,37 339,37 134,0 222,25 310,-37 -49,-49 69,-37 -131,-56l-518 56z"/>
   <path fill="black" d="M4536 10083c78,-100 56,-60 55,-267 -1,-193 22,-167 -55,-269 -5,10 -13,12 -15,29 -6,68 -65,285 0,479 3,8 10,19 15,28z"/>
   <path fill="black" d="M28549 4064c88,-6 46,10 101,-41l131 -369c-146,-27 -91,-50 -153,145 -35,112 -65,152 -79,264z"/>
   <path fill="black" d="M1302 3848l-793 -3 1 283c25,-43 15,-23 41,-94 4,-11 13,-51 17,-61 3,-8 7,-20 10,-27 2,-6 6,-18 10,-26l715 -73z"/>
   <path fill="black" d="M399 4868c-39,72 -25,-89 -31,82 -3,75 -1,29 16,97 277,117 278,-283 15,-180z"/>
   <path fill="black" d="M8584 6325c76,47 290,49 397,38l129 -38c-60,-41 65,-54 -273,-53 -205,0 -172,-17 -253,53z"/>
   <path fill="black" d="M13387 1425c53,49 5,38 103,52 4,1 127,-2 143,-2 139,-1 151,29 233,-50 -68,-54 -268,-55 -375,-41 -161,21 -42,-4 -103,41z"/>
   <path fill="black" d="M3267 10082c41,-74 19,89 40,-123l-25 -382c-3,-8 -10,-19 -15,-28 -49,68 -51,-89 -51,267 0,15 -2,140 -2,143 16,101 13,68 53,123z"/>
   <path fill="black" d="M6054 6675c-94,-11 -247,-9 -318,39 88,61 -87,20 71,56 119,27 305,17 365,-56 -50,-27 38,-20 -119,-39z"/>
   <path fill="black" d="M23335 4909c74,-107 63,-14 60,-154 -152,2 -252,98 -256,250 125,13 74,-17 197,-96z"/>
   <path fill="black" d="M7110 9551c-68,109 -64,425 0,529 65,-111 65,-420 0,-529z"/>
   <path fill="black" d="M25830 5022c0,-65 -19,-59 37,-43 94,125 117,85 264,145l22 -72c-53,-41 -71,-58 -150,-101 -49,-27 -102,-55 -183,-75l10 146z"/>
   <path fill="black" d="M22940 3569c128,13 296,34 390,-29 -66,-110 40,-43 -389,-63l-1 92z"/>
   <path fill="black" d="M12226 3190c91,29 43,-2 66,68l18 -1c74,-52 97,-59 164,-101 16,-10 54,-35 62,-42 101,-79 19,-6 71,-71 -57,-21 -47,72 -43,-89l-41 38c-5,5 -13,13 -19,18l-97 77c-51,30 -43,18 -96,46 -88,46 -37,15 -84,55z"/>
   <path fill="black" d="M12245 6658c76,-1 150,-2 226,-1 208,2 151,6 213,-49 -69,-48 -34,-39 -215,-42 -344,-4 -162,23 -224,92z"/>
   <polygon fill="black" points="6709,8120 6695,8027 6372,8003 6369,8124 "/>
   <polygon fill="black" points="3325,3884 3600,3893 3614,3832 3634,3772 3318,3770 "/>
   <polygon fill="black" points="17881,2284 17878,1956 17772,1965 17768,2265 "/>
   <path fill="black" d="M27277 4102l-5 -468c-130,23 -33,12 -73,47l7 388c54,77 -29,21 71,33z"/>
   <path fill="black" d="M20063 3104c130,-26 43,-36 128,-89 80,-50 44,-15 104,-35 66,-22 49,-14 87,-39 -68,-46 96,-40 -121,-48 -108,-4 -207,55 -197,211z"/>
   <path fill="black" d="M16587 720c-20,-59 15,2 -29,-35l-298 -20 17 117c51,-3 143,3 178,-1 178,-18 70,23 132,-61z"/>
   <path fill="black" d="M7831 5902c53,124 283,91 351,0 -92,-51 -258,-66 -351,0z"/>
   <polygon fill="black" points="13881,3332 14152,3333 14173,3225 13864,3226 "/>
   <path fill="black" d="M9008 6079c108,93 323,64 420,0 -21,-10 -33,-26 -94,-35 -108,-17 -250,-13 -325,35z"/>
   <path fill="black" d="M28597 1354c68,54 83,43 196,43 6,0 102,-5 105,-5 82,-14 36,-9 81,-37 -53,-42 -15,-36 -114,-52 -148,-24 -209,-7 -268,52z"/>
   <path fill="black" d="M22246 8652c40,85 5,59 165,61 176,2 126,26 180,-61 -87,-57 -256,-65 -345,0z"/>
   <path fill="black" d="M6455 6043l161 49c123,5 144,-23 181,-49 -49,-76 29,-58 -144,-66 -221,-10 -141,30 -198,66z"/>
   <path fill="black" d="M18391 683c-189,-38 -222,22 -243,37 38,28 -60,69 172,63 192,-5 98,16 156,-63 -35,-20 -16,-23 -86,-37z"/>
   <path fill="black" d="M13880 6325c42,88 -6,68 175,68 176,0 130,22 172,-68l-172 -36c-5,0 -99,5 -103,6 -65,12 -37,9 -72,30z"/>
   <path fill="black" d="M17510 68c-17,29 -24,21 -38,88 -18,84 -9,180 38,247 104,-64 107,-244 0,-334z"/>
   <path fill="black" d="M29145 1354c74,52 227,53 316,37 86,-15 29,-5 77,-37 -81,-65 -241,-60 -320,-43 -98,21 -9,-11 -73,43z"/>
   <polygon fill="black" points="513,4273 233,4273 241,4380 503,4379 "/>
   <path fill="black" d="M16911 2287c75,-58 57,26 62,-157 5,-158 16,-129 -62,-176 -5,7 -13,9 -14,22 0,0 -46,103 -23,225 14,69 17,54 36,87z"/>
   <path fill="black" d="M5274 4069l-29 118c98,0 53,6 64,85l120 -320c-89,-33 -52,2 -99,-43l-56 160z"/>
   <path fill="black" d="M18285 1576c-170,7 -95,-12 -139,61 92,66 234,60 332,0 -60,-76 -32,-67 -193,-61z"/>
   <path fill="black" d="M3238 4245c12,10 97,101 240,60 101,-29 24,-1 83,-60 -66,-55 -135,-70 -255,-37 -77,21 -26,4 -68,37z"/>
   <path fill="black" d="M17828 72c-78,55 -70,25 -63,190 7,166 -10,96 63,138 62,-90 54,-234 0,-328z"/>
   <path fill="black" d="M18285 975c-165,7 -95,-11 -138,62 91,62 238,54 332,0 -62,-76 -35,-68 -194,-62z"/>
   <path fill="black" d="M17228 2287c5,-9 13,-32 14,-27 1,5 10,-20 12,-28 21,-99 26,-196 -26,-276 -72,42 -55,-30 -62,138 -7,164 -15,134 62,193z"/>
   <path fill="black" d="M16911 70c-52,99 -62,230 0,330 76,-45 67,-21 63,-175 -5,-183 14,-97 -63,-156z"/>
   <path fill="black" d="M2766 4329l89 11 76 -239 -49 -66c-79,90 -97,144 -117,293z"/>
   <path fill="black" d="M16261 1037c97,54 241,61 334,0 -46,-74 28,-55 -141,-62 -231,-9 -146,34 -193,62z"/>
   <path fill="black" d="M17228 70c-78,60 -69,30 -62,192 7,172 -13,95 62,137 59,-90 51,-236 0,-330z"/>
   <path fill="black" d="M1672 1319l75 0c73,-111 28,-2 56,-155 -130,25 -292,127 -228,257l98 -102z"/>
   <path fill="black" d="M6228 6442c-173,5 -95,-14 -154,60 94,56 231,67 323,0 -43,-76 -22,-64 -169,-60z"/>
   <path fill="black" d="M18149 1319c57,56 -22,20 70,49 240,76 254,-47 256,-49 -87,-48 -182,-50 -283,-25l-43 25z"/>
   <path fill="black" d="M28599 861c0,0 22,67 193,38 173,-30 1,9 90,-38 -45,-63 60,-58 -125,-70 -201,-13 -138,57 -158,70z"/>
   <path fill="black" d="M17510 2287c79,-63 55,27 61,-157 5,-158 18,-126 -61,-178 -5,7 -13,9 -14,22 -1,13 -11,18 -12,24 -9,35 -15,56 -17,95l44 194z"/>
   <path fill="black" d="M11620 1460l121 -2 4 93c-152,5 -107,36 -125,-91zm-31 141l203 7 -5 -192 -190 -11 -8 196z"/>
   <path fill="black" d="M7922 7351l-30 169c169,23 111,3 135,-17l36 -50c25,-85 18,2 2,-99l-143 -4z"/>
   <path fill="black" d="M5825 1248c20,12 -20,77 189,38 75,-14 41,-13 81,-38 -40,-62 52,-53 -113,-66 -198,-15 -118,38 -156,66z"/>
   <path fill="black" d="M14333 8053c14,8 -10,61 177,32 145,-23 8,6 82,-32 -39,-77 76,-61 -113,-75 -204,-15 -122,53 -146,75z"/>
   <path fill="black" d="M13986 1425c87,77 265,76 351,0 -51,-38 16,-22 -72,-37 -84,-15 -214,-10 -278,37z"/>
   <path fill="black" d="M14757 8018c35,74 -72,60 108,73 126,9 152,-37 152,-38 -18,-35 59,-107 -182,-67 -63,11 -48,15 -78,32z"/>
   <path fill="black" d="M15599 8018c19,38 -60,106 180,66 141,-23 7,6 79,-31 -21,-42 55,-102 -176,-66 -130,21 -30,5 -82,30z"/>
   <path fill="black" d="M12979 1707c30,46 -41,64 193,67 235,4 192,-9 230,-67l-424 0z"/>
   <path fill="black" d="M13491 8053c44,25 -59,29 107,36 12,1 55,-2 67,-4 149,-23 17,2 87,-32 -42,-73 76,-60 -119,-75 -194,-14 -116,50 -141,75z"/>
   <path fill="black" d="M16440 8018c43,77 -82,58 117,72 107,7 106,-17 142,-37 -1,-2 24,-164 -259,-35z"/>
   <path fill="black" d="M15860 8300c-192,-108 -264,0 -264,0 30,23 -53,83 152,69 175,-12 73,-1 112,-69z"/>
   <path fill="black" d="M16016 8053c109,51 154,59 260,0 -29,-65 66,-60 -106,-74 -223,-17 -134,58 -154,74z"/>
   <path fill="black" d="M12832 1109l3 34c32,58 48,46 126,47 181,3 119,-24 154,-47 -84,-88 -175,-70 -283,-34z"/>
   <path fill="black" d="M13665 8267c-199,-31 -155,22 -173,33 27,23 -51,81 140,69 187,-12 76,-1 121,-69 -77,-38 68,-9 -88,-33z"/>
   <path fill="black" d="M15290 8539c-228,11 -32,-8 -121,43 29,16 -35,74 155,62 151,-10 67,2 115,-62 -33,-21 42,-53 -149,-43z"/>
   <path fill="black" d="M15017 8300c-209,-110 -256,-2 -260,0 33,29 -49,83 145,68 178,-13 76,-4 116,-68z"/>
   <path fill="black" d="M14512 8543c-209,-38 -158,23 -182,38 33,21 -38,75 148,63 157,-11 67,4 120,-63 -34,-20 -14,-25 -86,-38z"/>
   <path fill="black" d="M13335 8300c-112,-77 -194,-44 -265,0 35,30 -65,72 139,69 152,-3 100,-4 126,-69z"/>
   <path fill="black" d="M13074 8053c43,26 15,39 137,36 153,-4 100,-3 123,-71 -53,-34 -30,-35 -125,-35 -225,-2 -98,33 -135,71z"/>
   <path fill="black" d="M14444 8262c-182,8 -58,7 -111,38 27,23 -58,84 145,70 173,-13 73,0 115,-70 -32,-18 -49,-42 -148,-38z"/>
   <path fill="black" d="M15434 8300c-173,-102 -262,0 -262,0 29,21 -50,83 152,69 167,-12 70,2 110,-69z"/>
   <path fill="black" d="M14176 8300c-209,-105 -261,0 -261,0 28,24 -46,80 140,68 188,-12 77,-1 121,-68z"/>
   <path fill="black" d="M16855 8018c26,69 -25,70 126,73 182,3 111,-11 137,-73 -75,-42 -178,-54 -263,0z"/>
   <path fill="black" d="M16981 8262c-106,1 -75,2 -127,38 33,30 -58,66 127,68 168,2 107,-5 139,-68 -29,-18 -33,-39 -139,-38z"/>
   <path fill="black" d="M16701 8300c-158,-94 -260,-2 -264,0 25,17 -51,82 157,69 166,-11 69,5 108,-69z"/>
   <path fill="black" d="M13916 8018c30,66 -60,60 105,73 198,16 127,-26 152,-73 -104,-48 -153,-56 -257,0z"/>
   <path fill="black" d="M16136 8263c-149,6 -95,24 -122,37 22,14 -48,82 157,68 162,-11 72,-3 105,-68 -20,-12 -28,-42 -140,-37z"/>
   <path fill="black" d="M15175 8053c54,27 129,70 258,0 -33,-67 66,-59 -109,-73 -213,-17 -126,54 -149,73z"/>
   <path fill="black" d="M15594 8864c32,23 -64,64 153,51 230,-13 21,19 113,-51 -27,-19 31,-56 -147,-48 -177,8 -64,12 -119,48z"/>
   <path fill="black" d="M14866 8539c-214,10 -39,-4 -114,43 33,20 -35,73 148,62 157,-10 69,2 122,-62 -32,-18 -20,-26 -87,-38 -12,-2 -56,-5 -68,-4z"/>
   <path fill="black" d="M15712 8540c-235,10 -30,-10 -120,42 33,18 -32,73 154,62 151,-10 69,0 116,-62 -29,-17 -47,-46 -150,-42z"/>
   <path fill="black" d="M15171 8864c24,16 -32,61 153,51 221,-12 21,20 111,-51 -32,-24 57,-58 -145,-48 -239,12 -21,-17 -119,48z"/>
   <path fill="black" d="M15595 9146c25,16 -22,54 152,46 164,-8 69,-15 115,-46 -26,-20 52,-63 -149,-53 -236,13 -24,-16 -118,53z"/>
   <path fill="black" d="M14756 8864c29,23 -59,62 145,51 236,-13 23,16 117,-51 -26,-17 25,-57 -151,-48 -220,11 -26,-15 -111,48z"/>
   <path fill="black" d="M14332 9146c26,18 -39,55 145,45 223,-11 36,6 116,-45 -27,-20 47,-63 -150,-52 -220,12 -24,-17 -111,52z"/>
   <path fill="black" d="M14332 8864c27,21 -45,61 146,51 226,-12 31,11 115,-51 -27,-18 27,-55 -149,-47 -182,9 -55,6 -111,47z"/>
   <path fill="black" d="M26041 2095l46 29c108,29 202,24 292,-29l-58 -30c-106,-25 -198,-28 -281,30z"/>
   <polygon fill="black" points="8538,2315 8650,2306 8617,2117 8509,2115 "/>
   <path fill="black" d="M13525 1707c24,49 -54,72 107,71 162,-1 79,-15 105,-71 -26,-15 46,-39 -105,-36 -172,3 -64,10 -107,36z"/>
   <path fill="black" d="M20575 3047c132,-23 149,-18 215,-106 -152,-88 -195,-33 -215,106z"/>
   <path fill="black" d="M7469 1460c54,96 182,99 234,0 -92,-70 -148,-65 -234,0z"/>
   <path fill="black" d="M16119 6391c-17,142 121,196 153,5 -22,-17 24,-43 -71,-39 -74,3 -45,10 -82,34z"/>
   <path fill="black" d="M19797 3082l4 177 92 29 -2 -223c-111,-13 -28,-29 -93,17z"/>
   <path fill="black" d="M20507 3361c22,-32 54,47 23,-117 -23,-125 -30,-85 -58,-122 -99,117 -52,168 35,239z"/>
   <path fill="black" d="M5948 6502c-61,-91 -153,-92 -214,0 49,35 -76,40 107,45 168,4 78,-24 107,-45z"/>
   <path fill="black" d="M1541 4186c6,189 -28,121 68,170l35 -321 -103 150z"/>
   <path fill="black" d="M9154 2322c24,-23 46,48 67,-94 27,-178 -3,-56 -32,-103 -33,23 -57,-4 -71,80 -35,206 -8,51 36,117z"/>
   <polygon fill="black" points="6069,8119 6246,8124 6234,7999 6081,8019 "/>
   <path fill="black" d="M5474 8300c87,66 -124,48 118,52 151,3 83,-38 97,-52 -174,-127 -214,-1 -215,0z"/>
   <path fill="black" d="M16263 1636l330 0c-1,-1 5,-124 -245,-52 -100,29 -19,-3 -85,52z"/>
   <path fill="black" d="M8977 2486l-12 -95c-191,-22 -146,-47 -187,57 82,56 80,31 198,39z"/>
   <path fill="black" d="M16257 1319c67,76 -13,55 160,60 158,5 127,17 179,-60l-339 0z"/>
   <path fill="black" d="M8611 1925c27,11 5,31 73,15 185,-42 69,-148 69,-149 -96,39 -128,55 -142,134z"/>
   <path fill="black" d="M15113 2544c1,-1 36,31 57,-79 38,-203 10,-37 -22,-107 -16,12 -183,-4 -35,186z"/>
   <path fill="black" d="M11557 896c34,25 -22,46 136,43 133,-2 86,-10 129,-43 -75,-52 -169,-61 -265,0z"/>
   <path fill="black" d="M29097 4187l205 -1c-24,-48 17,-105 -120,-90 -167,18 -58,-10 -86,91z"/>
   <path fill="black" d="M14770 2618c40,117 68,94 182,41 -52,-88 40,-50 -87,-68 -135,-19 -56,-1 -95,27z"/>
   <path fill="black" d="M9141 1941c-19,-99 -57,-110 -173,-155 25,111 -15,65 53,128 36,34 63,28 121,26z"/>
   <path fill="black" d="M11586 6854c57,40 -64,36 77,40 206,5 42,5 106,-40 -111,-156 -159,-13 -183,0z"/>
   <path fill="black" d="M270 1375c73,-111 72,-285 0,-397l0 397z"/>
   <path fill="black" d="M12804 6608c201,142 182,7 189,0 -51,-36 65,-34 -72,-37 -227,-6 -34,-11 -118,37z"/>
   <path fill="black" d="M6691 6218c-151,4 -8,-8 -74,37 30,21 80,160 177,0 -69,-46 103,-42 -103,-37z"/>
   <polygon fill="black" points="26684,708 26812,716 26806,592 26697,592 "/>
   <path fill="black" d="M14943 2095c37,97 61,108 167,107 -32,-98 -62,-163 -167,-107z"/>
   <path fill="black" d="M26812 432l-17 -129c-177,23 -173,134 17,129z"/>
   <path fill="black" d="M3461 5068l169 -8c-27,-64 71,-76 -82,-79 -149,-3 -59,5 -87,88z"/>
   <path fill="black" d="M14612 2204c132,-18 145,-13 158,-147 -115,41 -110,29 -158,147z"/>
   <path fill="black" d="M3250 5068l163 -7c-21,-71 54,-90 -78,-78 -158,15 -47,-1 -85,85z"/>
   <path fill="black" d="M8290 6325c20,9 -19,97 173,0 -29,-22 28,-144 -173,0z"/>
   <path fill="black" d="M14624 2550l17 -188c-126,46 -84,-77 -91,78 -3,53 70,105 75,110z"/>
   <path fill="black" d="M9542 6079c67,61 -85,59 74,44 98,-9 33,-6 85,-44 -23,-13 11,-116 -159,0z"/>
   <path fill="black" d="M16014 8582c175,139 131,21 153,0 -160,-103 -136,-9 -153,0z"/>
   <path fill="black" d="M14094 8549c-154,-11 -13,-8 -74,33 52,35 41,138 159,0 -33,-18 -11,-28 -85,-33z"/>
   <path fill="black" d="M6743 8547c121,69 112,34 177,0 -42,-27 1,-33 -91,-41 -102,-8 -39,8 -86,41z"/>
   <path fill="black" d="M1849 3100l20 95 90 -30c-4,-24 2,-75 1,-83 -20,-112 -7,-43 -27,-82l11 98 -95 1z"/>
   <path fill="black" d="M20537 3521c149,-33 65,19 133,-77 -87,-56 -77,-49 -133,77z"/>
   <path fill="black" d="M29643 1137c92,-51 68,68 76,-65 -40,-22 10,-38 -110,-19l34 84z"/>
   <polygon fill="black" points="25378,3200 25259,3162 25253,3283 "/>
   <path fill="black" d="M3085 4376l112 9 -27 -89c-85,22 -34,-55 -85,81z"/>
   <path fill="black" d="M3600 3893l-16 19c104,-34 102,99 75,-92l-45 12 -14 61z"/>
   <path fill="black" d="M15792 3541l727 21 -16 1670c-370,20 -2680,49 -2852,-23l-6 -99 -1 -1538c188,-56 619,-23 838,-23l162 -3 864 3 284 -7z"/>
  </g>
 </g>
</svg>
