<?xml version="1.0" encoding="UTF-8"?>
<svg width="880px" height="361px" viewBox="0 0 880 361" version="1.1" xmlns="http://www.w3.org/2000/svg" xmlns:xlink="http://www.w3.org/1999/xlink">
    <!-- Generator: Sketch 60.1 (88133) - https://sketch.com -->
    <title>Group</title>
    <desc>Created with Sketch.</desc>
    <g id="Page-1" stroke="none" stroke-width="1" fill="none" fill-rule="evenodd">
        <g id="Group">
            <path d="M341.78,66 L341.78,90.92 L294.6,90.92 L294.6,102.4 L336.04,102.4 L336.04,126.2 L294.6,126.2 L294.6,139.08 L343.6,139.08 L343.6,164 L262.12,164 L262.12,66 L341.78,66 Z M381.26,66 L404.64,123.26 L428.58,66 L461.06,66 L419.62,164 L387.14,164 L345.7,66 L381.26,66 Z M194.78,164 C205.7,164 215.336667,162.016667 223.69,158.05 C232.043333,154.083333 238.53,148.413333 243.15,141.04 C247.77,133.666667 250.08,124.986667 250.08,115 C250.08,105.013333 247.77,96.3333333 243.15,88.96 C238.53,81.5866667 232.043333,75.9166667 223.69,71.95 C215.336667,67.9833333 205.7,66 194.78,66 L194.78,66 L146.48,66 L146.48,164 L194.78,164 Z M193.38,138.24 L179.52,138.24 L179.52,91.76 L193.38,91.76 C200.473333,91.76 206.143333,93.79 210.39,97.85 C214.636667,101.91 216.76,107.626667 216.76,115 C216.76,122.373333 214.636667,128.09 210.39,132.15 C206.143333,136.21 200.473333,138.24 193.38,138.24 L193.38,138.24 Z" id="&lt;DEV" fill="#00AEEF" fill-rule="nonzero"></path>
            <path d="M142.869,295 L142.869,269.197 L98.313,269.197 L98.313,196.3 L65.037,196.3 L65.037,295 L142.869,295 Z M234.096,295 L234.096,269.902 L184.746,269.902 L184.746,256.93 L226.482,256.93 L226.482,232.96 L184.746,232.96 L184.746,221.398 L232.263,221.398 L232.263,196.3 L152.034,196.3 L152.034,295 L234.096,295 Z M270.051,295 L276.678,277.798 L314.184,277.798 L320.811,295 L355.215,295 L312.069,196.3 L279.357,196.3 L236.211,295 L270.051,295 Z M305.019,253.828 L285.843,253.828 L295.431,229.012 L305.019,253.828 Z M409.218,295 C420.216,295 429.9215,293.0025 438.3345,289.0075 C446.7475,285.0125 453.2805,279.302 457.9335,271.876 C462.5865,264.45 464.913,255.708 464.913,245.65 C464.913,235.592 462.5865,226.85 457.9335,219.424 C453.2805,211.998 446.7475,206.2875 438.3345,202.2925 C429.9215,198.2975 420.216,196.3 409.218,196.3 L409.218,196.3 L360.573,196.3 L360.573,295 L409.218,295 Z M407.808,269.056 L393.849,269.056 L393.849,222.244 L407.808,222.244 C414.952,222.244 420.6625,224.2885 424.9395,228.3775 C429.2165,232.4665 431.355,238.224 431.355,245.65 C431.355,253.076 429.2165,258.8335 424.9395,262.9225 C420.6625,267.0115 414.952,269.056 407.808,269.056 L407.808,269.056 Z M559.101,295 L559.101,269.902 L509.751,269.902 L509.751,256.93 L551.487,256.93 L551.487,232.96 L509.751,232.96 L509.751,221.398 L557.268,221.398 L557.268,196.3 L477.039,196.3 L477.039,295 L559.101,295 Z M605.208,295 L605.208,270.184 L614.232,270.184 L631.011,295 L666.543,295 L645.816,264.544 C651.832,261.442 656.438,257.259 659.634,251.995 C662.83,246.731 664.428,240.574 664.428,233.524 C664.428,226.004 662.595,219.424 658.929,213.784 C655.263,208.144 650.046,203.82 643.278,200.812 C636.51,197.804 628.567,196.3 619.449,196.3 L619.449,196.3 L571.932,196.3 L571.932,295 L605.208,295 Z M617.334,245.086 L605.208,245.086 L605.208,221.962 L617.334,221.962 C621.846,221.962 625.23,222.9725 627.486,224.9935 C629.742,227.0145 630.87,229.858 630.87,233.524 C630.87,237.19 629.742,240.0335 627.486,242.0545 C625.23,244.0755 621.846,245.086 617.334,245.086 L617.334,245.086 Z M713.778,297.256 C723.648,297.256 732.0375,295.7755 738.9465,292.8145 C745.8555,289.8535 751.049,285.8585 754.527,280.8295 C758.005,275.8005 759.744,270.184 759.744,263.98 C759.744,256.836 757.8405,251.196 754.0335,247.06 C750.2265,242.924 745.738,239.9395 740.568,238.1065 C735.398,236.2735 729.053,234.652 721.533,233.242 C715.705,232.114 711.522,231.0565 708.984,230.0695 C706.446,229.0825 705.177,227.602 705.177,225.628 C705.177,221.492 709.454,219.424 718.008,219.424 C726.656,219.424 735.821,221.868 745.503,226.756 L745.503,226.756 L755.514,202.645 C750.532,199.825 744.7745,197.6865 738.2415,196.2295 C731.7085,194.7725 725.058,194.044 718.29,194.044 C708.42,194.044 700.0305,195.501 693.1215,198.415 C686.2125,201.329 681.019,205.324 677.541,210.4 C674.063,215.476 672.324,221.116 672.324,227.32 C672.324,234.464 674.204,240.1275 677.964,244.3105 C681.724,248.4935 686.142,251.5015 691.218,253.3345 C696.294,255.1675 702.639,256.883 710.253,258.481 C716.175,259.703 720.4285,260.831 723.0135,261.865 C725.5985,262.899 726.891,264.45 726.891,266.518 C726.891,268.304 725.904,269.6435 723.93,270.5365 C721.956,271.4295 718.666,271.876 714.06,271.876 C708.702,271.876 703.109,271.0535 697.281,269.4085 C691.453,267.7635 686.189,265.578 681.489,262.852 L681.489,262.852 L670.773,287.104 C675.755,290.206 682.1235,292.6735 689.8785,294.5065 C697.6335,296.3395 705.6,297.256 713.778,297.256 Z" id="LEADERS" fill="#FFFFFF" fill-rule="nonzero"></path>
            <polygon id="Path" fill="#00AEEF" fill-rule="nonzero" points="128.7 143.98 128.7 135.3 77.18 115 128.7 94.7 128.7 85.88 67.8 110.38 67.8 119.62"></polygon>
            <polygon id="Path" fill="#00AEEF" fill-rule="nonzero" points="767.68 309 813.88 177.12 804.78 177.12 758.58 309"></polygon>
            <polygon id="Path" fill="#00AEEF" fill-rule="nonzero" points="818.78 274.98 879.68 250.62 879.68 241.38 818.78 216.88 818.78 225.7 870.3 246 818.78 266.3"></polygon>
            <path d="M361,0 L361,33 L353,33 L353,8 L8,8 L8,353 L353,353 L353,328 L361,328 L361,361 L0,361 L0,0 L361,0 Z" id="Combined-Shape" fill="#FFFFFF"></path>
        </g>
    </g>
</svg>