<?xml version="1.0" encoding="UTF-8"?>
<svg width="1661px" height="1083px" viewBox="0 0 1661 1083" version="1.1" xmlns="http://www.w3.org/2000/svg" xmlns:xlink="http://www.w3.org/1999/xlink">
    <!-- Generator: Sketch 60.1 (88133) - https://sketch.com -->
    <title>maze</title>
    <desc>Created with Sketch.</desc>
    <g id="Page-1" stroke="none" stroke-width="1" fill="none" fill-rule="evenodd" opacity="0.293271019" stroke-linejoin="round">
        <g id="maze" transform="translate(0.500000, 2.124356)" stroke="#00469B" stroke-width="2">
            <polyline id="Path" stroke-linecap="round" points="924.5 1006.32152 903.5 994.197164 924.5 982.072808 966.5 1006.32152 966.5 1030.57023 987.5 1042.69459 987.5 1066.9433 966.5 1079.06765 924.5 1054.81894 903.5 1066.9433 924.5 1079.06765"></polyline>
            <polyline id="Path" stroke-linecap="round" points="966.5 1006.32152 945.5 1018.44587 945.5 1042.69459 966.5 1054.81894"></polyline>
            <line x1="903.5" y1="921.45103" x2="924.5" y2="933.575385" id="Path" stroke-linecap="round"></line>
            <line x1="945.5" y1="969.948452" x2="882.5" y2="933.575385" id="Path" stroke-linecap="round"></line>
            <polyline id="Path" stroke-linecap="round" points="903.5 945.699741 903.5 969.948452 882.5 957.824097 882.5 982.072808"></polyline>
            <line x1="903.5" y1="897.202318" x2="924.5" y2="885.077963" id="Path" stroke-linecap="round"></line>
            <line x1="651.5" y1="848.704896" x2="693.5" y2="824.456184" id="Path" stroke-linecap="round"></line>
            <polyline id="Path" stroke-linecap="round" points="798.5 812.331829 777.5 824.456184 756.5 812.331829 756.5 788.083117 735.5 800.207473"></polyline>
            <polyline id="Path" stroke-linecap="round" points="1050.5 763.834406 1092.5 739.585695 1092.5 763.834406 1071.5 775.958762 1113.5 800.207473 1134.5 788.083117 1134.5 763.834406 1113.5 751.71005 1113.5 775.958762"></polyline>
            <polyline id="Path" stroke-linecap="round" points="1071.5 751.71005 1071.5 703.212628 1029.5 727.461339 1029.5 703.212628 987.5 678.963917 966.5 691.088272 945.5 678.963917 945.5 703.212628 924.5 691.088272 924.5 666.839561 861.5 630.466494 840.5 642.59085 840.5 618.342138 798.5 642.59085 777.5 630.466494 777.5 654.715205 756.5 666.839561 756.5 691.088272 777.5 703.212628 777.5 678.963917 819.5 654.715205 840.5 666.839561 861.5 654.715205 882.5 666.839561"></polyline>
            <polyline id="Path" stroke-linecap="round" points="777.5 678.963917 798.5 691.088272 819.5 678.963917 840.5 691.088272 840.5 715.336984 861.5 703.212628 861.5 678.963917 882.5 691.088272 903.5 678.963917 903.5 727.461339 882.5 715.336984 882.5 763.834406 861.5 751.71005 861.5 775.958762 903.5 800.207473 882.5 812.331829 903.5 824.456184 924.5 812.331829 924.5 788.083117 945.5 775.958762 966.5 788.083117 945.5 800.207473"></polyline>
            <polyline id="Path" stroke-linecap="round" points="882.5 788.083117 903.5 775.958762 903.5 751.71005 924.5 763.834406 966.5 739.585695 966.5 715.336984 945.5 727.461339 924.5 715.336984 924.5 739.585695"></polyline>
            <polyline id="Path" stroke-linecap="round" points="945.5 751.71005 966.5 763.834406 987.5 751.71005 987.5 727.461339 1008.5 715.336984 987.5 703.212628"></polyline>
            <polyline id="Path" stroke-linecap="round" points="987.5 727.461339 1029.5 751.71005 1050.5 739.585695"></polyline>
            <polyline id="Path" stroke-linecap="round" points="819.5 678.963917 819.5 727.461339 798.5 739.585695 840.5 763.834406 840.5 788.083117"></polyline>
            <polyline id="Path" stroke-linecap="round" points="819.5 751.71005 819.5 775.958762 777.5 751.71005 777.5 727.461339 798.5 715.336984"></polyline>
            <line x1="819.5" y1="751.71005" x2="861.5" y2="727.461339" id="Path" stroke-linecap="round"></line>
            <polyline id="Path" stroke-linecap="round" points="798.5 642.59085 798.5 618.342138 819.5 606.217783 819.5 581.969071 798.5 594.093427 756.5 569.844716 756.5 594.093427 777.5 606.217783 735.5 630.466494 735.5 606.217783 714.5 618.342138 693.5 606.217783 714.5 594.093427 693.5 581.969071 672.5 594.093427 672.5 618.342138 651.5 630.466494 672.5 642.59085 693.5 630.466494 693.5 654.715205 735.5 678.963917 735.5 654.715205 714.5 642.59085"></polyline>
            <line x1="735.5" y1="654.715205" x2="756.5" y2="642.59085" id="Path" stroke-linecap="round"></line>
            <polyline id="Path" stroke-linecap="round" points="1092.5 836.58054 1071.5 848.704896 1071.5 824.456184 1050.5 836.58054"></polyline>
            <polyline id="Path" stroke-linecap="round" points="1071.5 824.456184 1050.5 812.331829 1029.5 824.456184 1029.5 848.704896 1008.5 836.58054 1008.5 885.077963 1050.5 860.829251 1071.5 872.953607 1092.5 860.829251 1113.5 872.953607 1113.5 897.202318 1155.5 921.45103 1113.5 945.699741 1113.5 1018.44587 1092.5 1006.32152 1071.5 1018.44587 1092.5 1030.57023 1071.5 1042.69459 1071.5 1066.9433 1050.5 1079.06765 1050.5 982.072808 1071.5 994.197164 1092.5 982.072808 1050.5 957.824097 1029.5 969.948452 1029.5 994.197164"></polyline>
            <polyline id="Path" stroke-linecap="round" points="1029.5 969.948452 1029.5 945.699741 1008.5 957.824097 1008.5 933.575385 987.5 945.699741 987.5 994.197164 1008.5 982.072808 1008.5 1006.32152 987.5 1018.44587 1008.5 1030.57023 1029.5 1018.44587 1029.5 1066.9433 1008.5 1079.06765 1008.5 1054.81894"></polyline>
            <line x1="987.5" y1="969.948452" x2="966.5" y2="982.072808" id="Path" stroke-linecap="round"></line>
            <polyline id="Path" stroke-linecap="round" points="1113.5 994.197164 1134.5 982.072808 1197.5 1018.44587"></polyline>
            <polyline id="Path" stroke-linecap="round" points="1176.5 1006.32152 1176.5 1030.57023 1134.5 1006.32152 1134.5 1030.57023 1113.5 1042.69459 1176.5 1079.06765 1197.5 1066.9433 1218.5 1079.06765 1218.5 1054.81894"></polyline>
            <polyline id="Path" stroke-linecap="round" points="1218.5 1079.06765 1239.5 1066.9433 1260.5 1079.06765 1281.5 1066.9433 1260.5 1054.81894"></polyline>
            <polyline id="Path" stroke-linecap="round" points="1134.5 1054.81894 1134.5 1079.06765 1113.5 1066.9433 1092.5 1079.06765 1092.5 1054.81894"></polyline>
            <polyline id="Path" stroke-linecap="round" points="1113.5 969.948452 1092.5 957.824097 1092.5 933.575385 1071.5 945.699741"></polyline>
            <polyline id="Path" stroke-linecap="round" points="1092.5 933.575385 1113.5 921.45103 1092.5 909.326674 1092.5 885.077963"></polyline>
            <line x1="1134.5" y1="909.326674" x2="1134.5" y2="885.077963" id="Path" stroke-linecap="round"></line>
            <polyline id="Path" stroke-linecap="round" points="1071.5 872.953607 1071.5 921.45103 1050.5 933.575385 1029.5 921.45103 1050.5 909.326674 1029.5 897.202318 1008.5 909.326674 987.5 897.202318 987.5 848.704896"></polyline>
            <line x1="987.5" y1="872.953607" x2="966.5" y2="885.077963" id="Path" stroke-linecap="round"></line>
            <line x1="1050.5" y1="860.829251" x2="1050.5" y2="885.077963" id="Path" stroke-linecap="round"></line>
            <polyline id="Path" stroke-linecap="round" points="1029.5 824.456184 1029.5 800.207473 1008.5 812.331829"></polyline>
            <polyline id="Path" stroke-linecap="round" points="1155.5 848.704896 1155.5 897.202318 1176.5 909.326674 1176.5 933.575385 1134.5 957.824097 1197.5 994.197164 1197.5 969.948452 1239.5 945.699741 1239.5 994.197164 1218.5 982.072808 1218.5 1030.57023 1239.5 1018.44587 1239.5 1042.69459 1260.5 1030.57023 1281.5 1042.69459 1302.5 1030.57023 1302.5 1079.06765 1323.5 1066.9433 1323.5 1042.69459 1386.5 1079.06765"></polyline>
            <polyline id="Path" stroke-linecap="round" points="1344.5 1054.81894 1365.5 1042.69459 1386.5 1054.81894 1407.5 1042.69459 1386.5 1030.57023 1407.5 1018.44587 1428.5 1030.57023 1449.5 1018.44587 1428.5 1006.32152 1470.5 982.072808 1428.5 957.824097 1449.5 945.699741 1449.5 897.202318 1470.5 909.326674 1470.5 885.077963 1533.5 848.704896 1554.5 860.829251 1491.5 897.202318 1491.5 921.45103 1512.5 933.575385"></polyline>
            <polyline id="Path" stroke-linecap="round" points="1512.5 885.077963 1533.5 897.202318 1512.5 909.326674 1533.5 921.45103 1533.5 945.699741 1575.5 921.45103 1596.5 933.575385 1617.5 921.45103 1638.5 933.575385 1617.5 945.699741 1638.5 957.824097 1659.5 945.699741 1659.5 969.948452 1638.5 982.072808 1659.5 994.197164 1659.5 1018.44587 1638.5 1006.32152 1638.5 1030.57023 1617.5 1018.44587 1617.5 969.948452 1596.5 982.072808 1554.5 957.824097 1533.5 969.948452 1533.5 994.197164 1554.5 1006.32152 1554.5 1030.57023 1512.5 1006.32152 1512.5 1030.57023 1596.5 1079.06765 1596.5 1054.81894 1575.5 1042.69459 1596.5 1030.57023 1575.5 1018.44587 1596.5 1006.32152 1554.5 982.072808"></polyline>
            <line x1="1596.5" y1="1054.81894" x2="1617.5" y2="1042.69459" id="Path" stroke-linecap="round"></line>
            <polyline id="Path" stroke-linecap="round" points="1596.5 1079.06765 1617.5 1066.9433 1638.5 1079.06765 1659.5 1066.9433 1638.5 1054.81894 1659.5 1042.69459"></polyline>
            <line x1="1554.5" y1="1054.81894" x2="1554.5" y2="1079.06765" id="Path" stroke-linecap="round"></line>
            <polyline id="Path" stroke-linecap="round" points="1533.5 1042.69459 1533.5 1066.9433 1491.5 1042.69459 1470.5 1054.81894 1449.5 1042.69459 1491.5 1018.44587"></polyline>
            <polyline id="Path" stroke-linecap="round" points="1470.5 1030.57023 1470.5 1006.32152 1491.5 994.197164 1491.5 945.699741 1512.5 957.824097 1512.5 982.072808"></polyline>
            <polyline id="Path" stroke-linecap="round" points="1512.5 1054.81894 1512.5 1079.06765 1491.5 1066.9433 1470.5 1079.06765 1449.5 1066.9433 1428.5 1079.06765 1407.5 1066.9433 1428.5 1054.81894"></polyline>
            <line x1="1617.5" y1="969.948452" x2="1575.5" y2="945.699741" id="Path" stroke-linecap="round"></line>
            <polyline id="Path" stroke-linecap="round" points="1449.5 921.45103 1470.5 933.575385 1470.5 957.824097"></polyline>
            <polyline id="Path" stroke-linecap="round" points="1449.5 994.197164 1407.5 969.948452 1386.5 982.072808 1386.5 957.824097 1407.5 945.699741 1407.5 921.45103 1428.5 909.326674 1386.5 885.077963 1344.5 909.326674 1323.5 897.202318 1302.5 909.326674 1302.5 933.575385 1323.5 921.45103 1365.5 945.699741 1365.5 921.45103 1386.5 933.575385 1386.5 909.326674"></polyline>
            <line x1="1407.5" y1="921.45103" x2="1428.5" y2="933.575385" id="Path" stroke-linecap="round"></line>
            <line x1="1323.5" y1="1066.9433" x2="1344.5" y2="1079.06765" id="Path" stroke-linecap="round"></line>
            <polyline id="Path" stroke-linecap="round" points="1218.5 1030.57023 1176.5 1054.81894 1155.5 1042.69459"></polyline>
            <polyline id="Path" stroke-linecap="round" points="1176.5 715.336984 1155.5 703.212628 1155.5 678.963917"></polyline>
            <polyline id="Path" stroke-linecap="round" points="1176.5 739.585695 1176.5 763.834406 1155.5 775.958762 1176.5 788.083117"></polyline>
            <polyline id="Path" stroke-linecap="round" points="1155.5 775.958762 1155.5 800.207473 1134.5 812.331829"></polyline>
            <polyline id="Path" stroke-linecap="round" points="1134.5 739.585695 1113.5 727.461339 1113.5 703.212628 1092.5 715.336984"></polyline>
            <line x1="1029.5" y1="678.963917" x2="1050.5" y2="691.088272" id="Path" stroke-linecap="round"></line>
            <line x1="1008.5" y1="594.093427" x2="1008.5" y2="666.839561" id="Path" stroke-linecap="round"></line>
            <line x1="1008.5" y1="642.59085" x2="966.5" y2="666.839561" id="Path" stroke-linecap="round"></line>
            <polyline id="Path" stroke-linecap="round" points="987.5 654.715205 987.5 630.466494 966.5 642.59085 966.5 618.342138 945.5 630.466494 945.5 654.715205 924.5 642.59085 924.5 618.342138 903.5 606.217783 903.5 630.466494 882.5 618.342138 882.5 594.093427 903.5 581.969071 882.5 569.844716 861.5 581.969071 861.5 606.217783 840.5 594.093427 840.5 569.844716 861.5 557.72036 840.5 545.596004 861.5 533.471649 861.5 509.222937 882.5 521.347293 882.5 497.098582 903.5 509.222937 903.5 484.974226 882.5 472.84987"></polyline>
            <polyline id="Path" stroke-linecap="round" points="903.5 484.974226 924.5 472.84987 882.5 448.601159 861.5 460.725515 861.5 484.974226 840.5 497.098582 819.5 484.974226 819.5 509.222937 840.5 521.347293 819.5 533.471649 819.5 557.72036 798.5 569.844716 798.5 545.596004 777.5 533.471649 777.5 557.72036 756.5 545.596004 735.5 557.72036 735.5 581.969071 672.5 545.596004 714.5 521.347293 735.5 533.471649 756.5 521.347293 735.5 509.222937"></polyline>
            <polyline id="Path" stroke-linecap="round" points="693.5 557.72036 672.5 569.844716 651.5 557.72036 651.5 581.969071 630.5 594.093427 630.5 618.342138 651.5 606.217783"></polyline>
            <line x1="735.5" y1="557.72036" x2="714.5" y2="545.596004" id="Path" stroke-linecap="round"></line>
            <polyline id="Path" stroke-linecap="round" points="777.5 533.471649 798.5 521.347293 798.5 497.098582 777.5 484.974226 777.5 509.222937"></polyline>
            <line x1="777.5" y1="484.974226" x2="798.5" y2="472.84987" id="Path" stroke-linecap="round"></line>
            <polyline id="Path" stroke-linecap="round" points="819.5 484.974226 840.5 472.84987 819.5 460.725515 819.5 436.476804 798.5 424.352448 777.5 436.476804 798.5 448.601159 756.5 472.84987 756.5 497.098582 735.5 484.974226 714.5 497.098582 693.5 484.974226 672.5 497.098582 693.5 509.222937"></polyline>
            <polyline id="Path" stroke-linecap="round" points="672.5 497.098582 651.5 484.974226 588.5 521.347293 567.5 509.222937 588.5 497.098582"></polyline>
            <polyline id="Path" stroke-linecap="round" points="672.5 497.098582 672.5 521.347293 651.5 509.222937 651.5 533.471649 630.5 521.347293 630.5 545.596004 609.5 533.471649 567.5 557.72036 588.5 569.844716 609.5 557.72036 630.5 569.844716 609.5 581.969071 609.5 606.217783 567.5 581.969071 546.5 594.093427 546.5 569.844716"></polyline>
            <polyline id="Path" stroke-linecap="round" points="567.5 557.72036 567.5 533.471649 546.5 521.347293 504.5 545.596004 504.5 521.347293 567.5 484.974226 567.5 460.725515 609.5 484.974226 630.5 472.84987 567.5 436.476804 546.5 448.601159 525.5 436.476804 504.5 448.601159 483.5 436.476804 483.5 484.974226 504.5 472.84987 525.5 484.974226 525.5 460.725515 546.5 472.84987"></polyline>
            <polyline id="Path" stroke-linecap="round" points="525.5 509.222937 504.5 497.098582 483.5 509.222937 483.5 533.471649 462.5 521.347293 441.5 533.471649 441.5 509.222937 462.5 497.098582 441.5 484.974226 420.5 497.098582 420.5 472.84987 441.5 460.725515 441.5 436.476804 462.5 424.352448 462.5 472.84987"></polyline>
            <polyline id="Path" stroke-linecap="round" points="525.5 533.471649 546.5 545.596004 525.5 557.72036 525.5 581.969071 504.5 594.093427 525.5 606.217783"></polyline>
            <polyline id="Path" stroke-linecap="round" points="504.5 594.093427 504.5 618.342138 483.5 630.466494 483.5 654.715205 462.5 666.839561 483.5 678.963917 504.5 666.839561 504.5 642.59085 525.5 630.466494 525.5 654.715205 546.5 642.59085 546.5 691.088272 567.5 678.963917 567.5 703.212628 609.5 678.963917 609.5 654.715205 588.5 666.839561 588.5 642.59085 609.5 630.466494 567.5 606.217783 546.5 618.342138 567.5 630.466494 567.5 654.715205"></polyline>
            <line x1="609.5" y1="654.715205" x2="651.5" y2="678.963917" id="Path" stroke-linecap="round"></line>
            <polyline id="Path" stroke-linecap="round" points="630.5 666.839561 651.5 654.715205 672.5 666.839561 672.5 691.088272 651.5 703.212628 672.5 715.336984 630.5 739.585695 630.5 691.088272 609.5 703.212628 609.5 727.461339 588.5 739.585695 588.5 715.336984 567.5 727.461339 546.5 715.336984 546.5 788.083117 525.5 775.958762 525.5 824.456184 567.5 800.207473 567.5 751.71005 630.5 788.083117 588.5 812.331829 609.5 824.456184 588.5 836.58054 588.5 885.077963 672.5 933.575385 672.5 957.824097 630.5 982.072808 609.5 969.948452 588.5 982.072808 567.5 969.948452 567.5 945.699741 546.5 933.575385 546.5 957.824097 525.5 945.699741 525.5 969.948452 588.5 1006.32152 609.5 994.197164 609.5 1018.44587 630.5 1030.57023 630.5 1006.32152 651.5 994.197164 672.5 1006.32152 672.5 1079.06765 714.5 1054.81894 714.5 1006.32152 693.5 1018.44587 693.5 1042.69459"></polyline>
            <polyline id="Path" stroke-linecap="round" points="714.5 1030.57023 735.5 1042.69459 756.5 1030.57023"></polyline>
            <polyline id="Path" stroke-linecap="round" points="735.5 1042.69459 735.5 1066.9433 756.5 1079.06765 756.5 1054.81894 777.5 1042.69459 777.5 1066.9433 798.5 1079.06765 798.5 1006.32152 819.5 1018.44587 819.5 1066.9433"></polyline>
            <polyline id="Path" stroke-linecap="round" points="798.5 1030.57023 777.5 1018.44587 777.5 969.948452"></polyline>
            <polyline id="Path" stroke-linecap="round" points="777.5 994.197164 840.5 957.824097 819.5 945.699741 798.5 957.824097 798.5 933.575385 777.5 945.699741 693.5 897.202318 693.5 921.45103 714.5 933.575385 714.5 957.824097 735.5 945.699741 756.5 957.824097 735.5 969.948452 756.5 982.072808 756.5 1006.32152 735.5 1018.44587 735.5 994.197164 714.5 982.072808 693.5 994.197164 693.5 945.699741"></polyline>
            <line x1="693.5" y1="969.948452" x2="672.5" y2="982.072808" id="Path" stroke-linecap="round"></line>
            <polyline id="Path" stroke-linecap="round" points="714.5 909.326674 714.5 860.829251 651.5 897.202318 672.5 909.326674"></polyline>
            <polyline id="Path" stroke-linecap="round" points="651.5 897.202318 609.5 872.953607 609.5 848.704896 651.5 872.953607"></polyline>
            <polyline id="Path" stroke-linecap="round" points="714.5 860.829251 735.5 872.953607 735.5 897.202318 756.5 885.077963 756.5 860.829251 735.5 848.704896"></polyline>
            <polyline id="Path" stroke-linecap="round" points="756.5 860.829251 798.5 885.077963 756.5 909.326674 777.5 921.45103 819.5 897.202318 819.5 872.953607"></polyline>
            <line x1="798.5" y1="909.326674" x2="819.5" y2="921.45103" id="Path" stroke-linecap="round"></line>
            <polyline id="Path" stroke-linecap="round" points="819.5 969.948452 819.5 994.197164 840.5 1006.32152"></polyline>
            <line x1="735.5" y1="1066.9433" x2="714.5" y2="1079.06765" id="Path" stroke-linecap="round"></line>
            <polyline id="Path" stroke-linecap="round" points="630.5 1006.32152 651.5 1018.44587 651.5 1042.69459 630.5 1054.81894 651.5 1066.9433 630.5 1079.06765 609.5 1066.9433 588.5 1079.06765 588.5 1030.57023 567.5 1018.44587 567.5 1066.9433"></polyline>
            <polyline id="Path" stroke-linecap="round" points="567.5 1042.69459 546.5 1030.57023 546.5 1006.32152 525.5 994.197164"></polyline>
            <line x1="588.5" y1="1054.81894" x2="609.5" y2="1042.69459" id="Path" stroke-linecap="round"></line>
            <polyline id="Path" stroke-linecap="round" points="567.5 945.699741 588.5 957.824097 630.5 933.575385 651.5 945.699741 630.5 957.824097"></polyline>
            <polyline id="Path" stroke-linecap="round" points="567.5 945.699741 609.5 921.45103 588.5 909.326674"></polyline>
            <polyline id="Path" stroke-linecap="round" points="588.5 860.829251 567.5 872.953607 567.5 921.45103 546.5 909.326674 525.5 921.45103 504.5 909.326674 504.5 885.077963 441.5 921.45103 420.5 909.326674 420.5 933.575385 399.5 921.45103 399.5 945.699741 420.5 957.824097 420.5 982.072808 378.5 957.824097 357.5 969.948452 357.5 945.699741 294.5 982.072808 273.5 969.948452 273.5 994.197164 252.5 982.072808 252.5 957.824097 231.5 945.699741 231.5 969.948452 210.5 982.072808 210.5 909.326674 189.5 921.45103 189.5 897.202318 210.5 885.077963 210.5 860.829251 189.5 872.953607 168.5 860.829251 168.5 957.824097 189.5 945.699741 189.5 994.197164 147.5 969.948452 126.5 982.072808 126.5 1006.32152 147.5 994.197164 147.5 1018.44587 168.5 1006.32152 168.5 1030.57023 231.5 994.197164 231.5 1018.44587 252.5 1030.57023 252.5 1006.32152 294.5 1030.57023 315.5 1018.44587 294.5 1006.32152 336.5 982.072808 336.5 1030.57023 357.5 1018.44587"></polyline>
            <polyline id="Path" stroke-linecap="round" points="336.5 1030.57023 357.5 1042.69459 336.5 1054.81894 315.5 1042.69459 294.5 1054.81894"></polyline>
            <polyline id="Path" stroke-linecap="round" points="294.5 1030.57023 273.5 1042.69459 273.5 1066.9433 294.5 1079.06765 315.5 1066.9433 336.5 1079.06765 357.5 1066.9433 378.5 1079.06765 420.5 1054.81894 420.5 1079.06765 441.5 1066.9433 462.5 1079.06765 483.5 1066.9433 483.5 1042.69459 504.5 1054.81894 504.5 1079.06765 525.5 1066.9433 546.5 1079.06765 546.5 1054.81894 525.5 1042.69459 525.5 1018.44587 483.5 994.197164 504.5 982.072808 504.5 957.824097 483.5 945.699741 441.5 969.948452 441.5 945.699741 483.5 921.45103 504.5 933.575385"></polyline>
            <polyline id="Path" stroke-linecap="round" points="168.5 1030.57023 189.5 1042.69459 189.5 1066.9433 210.5 1079.06765 210.5 1054.81894 231.5 1042.69459 210.5 1030.57023"></polyline>
            <polyline id="Path" stroke-linecap="round" points="210.5 1079.06765 252.5 1054.81894 252.5 1079.06765"></polyline>
            <polyline id="Path" stroke-linecap="round" points="189.5 1042.69459 168.5 1054.81894 147.5 1042.69459 147.5 1066.9433 168.5 1079.06765"></polyline>
            <polyline id="Path" stroke-linecap="round" points="147.5 1066.9433 126.5 1079.06765 126.5 1054.81894"></polyline>
            <polyline id="Path" stroke-linecap="round" points="210.5 885.077963 231.5 897.202318 231.5 848.704896 252.5 860.829251 273.5 848.704896 273.5 824.456184 252.5 836.58054"></polyline>
            <polyline id="Path" stroke-linecap="round" points="273.5 824.456184 294.5 836.58054 294.5 860.829251 315.5 872.953607 294.5 885.077963 294.5 909.326674 315.5 897.202318"></polyline>
            <polyline id="Path" stroke-linecap="round" points="273.5 824.456184 294.5 812.331829 273.5 800.207473 273.5 775.958762 231.5 800.207473 252.5 812.331829 210.5 836.58054 189.5 824.456184 210.5 812.331829 168.5 788.083117 147.5 800.207473 147.5 775.958762 126.5 763.834406 126.5 812.331829 147.5 824.456184 168.5 812.331829 168.5 836.58054 189.5 848.704896"></polyline>
            <polyline id="Path" stroke-linecap="round" points="168.5 836.58054 126.5 860.829251 126.5 836.58054 84.5 812.331829 84.5 836.58054 63.5 848.704896 63.5 897.202318 84.5 909.326674 84.5 860.829251 105.5 848.704896 105.5 897.202318"></polyline>
            <polyline id="Path" stroke-linecap="round" points="84.5 812.331829 105.5 800.207473 84.5 788.083117 63.5 800.207473 63.5 824.456184 21.5 800.207473 21.5 775.958762 42.5 763.834406 63.5 775.958762 42.5 788.083117"></polyline>
            <polyline id="Path" stroke-linecap="round" points="147.5 848.704896 147.5 872.953607 126.5 885.077963 126.5 909.326674 147.5 897.202318 147.5 921.45103 126.5 933.575385 147.5 945.699741 126.5 957.824097 105.5 945.699741 84.5 957.824097 105.5 969.948452 105.5 994.197164 84.5 982.072808 84.5 1006.32152 42.5 982.072808 42.5 1006.32152 21.5 1018.44587 42.5 1030.57023 21.5 1042.69459 42.5 1054.81894 63.5 1042.69459 63.5 1066.9433 42.5 1079.06765 21.5 1066.9433 0.5 1079.06765 0.5 982.072808 63.5 945.699741 42.5 933.575385 21.5 945.699741 0.5 933.575385 0.5 957.824097"></polyline>
            <line x1="63.5" y1="945.699741" x2="63.5" y2="969.948452" id="Path" stroke-linecap="round"></line>
            <line x1="42.5" y1="1006.32152" x2="21.5" y2="994.197164" id="Path" stroke-linecap="round"></line>
            <polyline id="Path" stroke-linecap="round" points="63.5 994.197164 63.5 1018.44587 84.5 1030.57023 84.5 1054.81894 105.5 1066.9433 105.5 1042.69459 126.5 1030.57023 105.5 1018.44587"></polyline>
            <line x1="105.5" y1="1066.9433" x2="84.5" y2="1079.06765" id="Path" stroke-linecap="round"></line>
            <polyline id="Path" stroke-linecap="round" points="105.5 945.699741 105.5 921.45103 84.5 933.575385 42.5 909.326674 21.5 921.45103 0.5 909.326674 0.5 885.077963 21.5 897.202318 42.5 885.077963 21.5 872.953607 21.5 848.704896 42.5 860.829251 42.5 836.58054 0.5 812.331829 0.5 860.829251"></polyline>
            <polyline id="Path" stroke-linecap="round" points="0.5 812.331829 0.5 763.834406 21.5 751.71005 0.5 739.585695 0.5 715.336984 21.5 703.212628 0.5 691.088272 0.5 618.342138"></polyline>
            <polyline id="Path" stroke-linecap="round" points="0.5 642.59085 21.5 630.466494 21.5 606.217783 63.5 581.969071"></polyline>
            <polyline id="Path" stroke-linecap="round" points="42.5 594.093427 42.5 569.844716 63.5 557.72036 84.5 569.844716 84.5 594.093427 105.5 581.969071 105.5 606.217783 126.5 594.093427 147.5 606.217783 168.5 594.093427 168.5 642.59085 210.5 666.839561"></polyline>
            <line x1="189.5" y1="654.715205" x2="189.5" y2="630.466494" id="Path" stroke-linecap="round"></line>
            <polyline id="Path" stroke-linecap="round" points="105.5 606.217783 84.5 618.342138 84.5 642.59085 63.5 654.715205 84.5 666.839561 84.5 691.088272 63.5 678.963917"></polyline>
            <polyline id="Path" stroke-linecap="round" points="84.5 642.59085 63.5 630.466494 63.5 606.217783 42.5 618.342138 42.5 666.839561 21.5 654.715205 21.5 678.963917 63.5 703.212628 21.5 727.461339 42.5 739.585695 63.5 727.461339 63.5 751.71005 84.5 739.585695 84.5 715.336984 126.5 691.088272 147.5 703.212628 147.5 727.461339 126.5 739.585695 126.5 715.336984 105.5 727.461339 105.5 775.958762 84.5 763.834406"></polyline>
            <polyline id="Path" stroke-linecap="round" points="168.5 788.083117 168.5 763.834406 189.5 751.71005 231.5 775.958762 210.5 788.083117 189.5 775.958762"></polyline>
            <polyline id="Path" stroke-linecap="round" points="210.5 763.834406 315.5 703.212628 336.5 715.336984 336.5 691.088272 357.5 703.212628 357.5 678.963917 378.5 691.088272 378.5 739.585695 399.5 751.71005 420.5 739.585695 420.5 666.839561 462.5 691.088272 441.5 703.212628 441.5 751.71005 462.5 763.834406 441.5 775.958762"></polyline>
            <polyline id="Path" stroke-linecap="round" points="441.5 751.71005 399.5 775.958762 420.5 788.083117 378.5 812.331829 357.5 800.207473 378.5 788.083117 378.5 763.834406 357.5 751.71005 357.5 727.461339 336.5 739.585695 315.5 727.461339 294.5 739.585695 315.5 751.71005 294.5 763.834406 294.5 788.083117 336.5 763.834406 357.5 775.958762"></polyline>
            <polyline id="Path" stroke-linecap="round" points="336.5 763.834406 336.5 812.331829 357.5 824.456184 357.5 872.953607 378.5 860.829251 378.5 885.077963 399.5 897.202318 399.5 872.953607 441.5 848.704896 420.5 836.58054 441.5 824.456184 420.5 812.331829 441.5 800.207473 462.5 812.331829 462.5 836.58054 483.5 824.456184 504.5 836.58054 462.5 860.829251 462.5 885.077963 504.5 860.829251 525.5 872.953607 546.5 860.829251 546.5 885.077963 525.5 897.202318"></polyline>
            <polyline id="Path" stroke-linecap="round" points="357.5 872.953607 336.5 860.829251 336.5 885.077963 357.5 897.202318 357.5 921.45103 378.5 909.326674 378.5 933.575385"></polyline>
            <polyline id="Path" stroke-linecap="round" points="357.5 921.45103 336.5 909.326674 336.5 933.575385 315.5 921.45103 315.5 945.699741 294.5 957.824097 294.5 933.575385 273.5 945.699741 252.5 933.575385 273.5 921.45103 273.5 872.953607 252.5 885.077963 252.5 909.326674 231.5 921.45103"></polyline>
            <polyline id="Path" stroke-linecap="round" points="357.5 848.704896 378.5 836.58054 399.5 848.704896 399.5 824.456184"></polyline>
            <line x1="336.5" y1="812.331829" x2="315.5" y2="800.207473" id="Path" stroke-linecap="round"></line>
            <polyline id="Path" stroke-linecap="round" points="378.5 715.336984 399.5 703.212628 399.5 727.461339"></polyline>
            <polyline id="Path" stroke-linecap="round" points="252.5 739.585695 252.5 763.834406 273.5 751.71005"></polyline>
            <polyline id="Path" stroke-linecap="round" points="294.5 812.331829 315.5 824.456184 315.5 848.704896 336.5 836.58054"></polyline>
            <polyline id="Path" stroke-linecap="round" points="399.5 969.948452 357.5 994.197164 378.5 1006.32152 378.5 1054.81894 399.5 1042.69459 399.5 1018.44587 420.5 1006.32152 399.5 994.197164"></polyline>
            <polyline id="Path" stroke-linecap="round" points="420.5 1006.32152 420.5 1030.57023 441.5 1018.44587 441.5 994.197164 504.5 1030.57023"></polyline>
            <polyline id="Path" stroke-linecap="round" points="462.5 1006.32152 462.5 982.072808 483.5 969.948452"></polyline>
            <polyline id="Path" stroke-linecap="round" points="441.5 1018.44587 462.5 1030.57023 441.5 1042.69459 462.5 1054.81894"></polyline>
            <polyline id="Path" stroke-linecap="round" points="462.5 909.326674 420.5 885.077963 441.5 872.953607"></polyline>
            <line x1="609.5" y1="800.207473" x2="588.5" y2="788.083117" id="Path" stroke-linecap="round"></line>
            <polyline id="Path" stroke-linecap="round" points="609.5 800.207473 630.5 812.331829 651.5 800.207473 651.5 775.958762 609.5 751.71005"></polyline>
            <polyline id="Path" stroke-linecap="round" points="651.5 775.958762 672.5 763.834406 651.5 751.71005 672.5 739.585695 693.5 751.71005 693.5 775.958762 735.5 751.71005 735.5 727.461339 756.5 739.585695 756.5 715.336984 693.5 678.963917"></polyline>
            <polyline id="Path" stroke-linecap="round" points="735.5 703.212628 714.5 715.336984 693.5 703.212628 693.5 727.461339 714.5 739.585695"></polyline>
            <polyline id="Path" stroke-linecap="round" points="546.5 812.331829 567.5 824.456184 567.5 848.704896 546.5 836.58054 525.5 848.704896"></polyline>
            <polyline id="Path" stroke-linecap="round" points="525.5 800.207473 504.5 812.331829 462.5 788.083117 483.5 775.958762 483.5 751.71005 462.5 739.585695 462.5 715.336984"></polyline>
            <polyline id="Path" stroke-linecap="round" points="462.5 739.585695 483.5 727.461339 483.5 703.212628 504.5 715.336984 504.5 739.585695 525.5 751.71005 525.5 678.963917 504.5 691.088272"></polyline>
            <polyline id="Path" stroke-linecap="round" points="483.5 800.207473 504.5 788.083117 504.5 763.834406"></polyline>
            <line x1="630.5" y1="666.839561" x2="630.5" y2="642.59085" id="Path" stroke-linecap="round"></line>
            <polyline id="Path" stroke-linecap="round" points="483.5 630.466494 462.5 618.342138 483.5 606.217783 462.5 594.093427 504.5 569.844716 483.5 557.72036 441.5 581.969071 441.5 557.72036 399.5 581.969071 357.5 557.72036 378.5 545.596004 378.5 521.347293 399.5 533.471649 420.5 521.347293 420.5 545.596004 399.5 557.72036"></polyline>
            <polyline id="Path" stroke-linecap="round" points="378.5 569.844716 378.5 594.093427 441.5 630.466494 441.5 654.715205 462.5 642.59085"></polyline>
            <polyline id="Path" stroke-linecap="round" points="420.5 618.342138 441.5 606.217783 420.5 594.093427"></polyline>
            <polyline id="Path" stroke-linecap="round" points="399.5 606.217783 399.5 630.466494 420.5 642.59085 399.5 654.715205 378.5 642.59085 378.5 666.839561 399.5 678.963917"></polyline>
            <polyline id="Path" stroke-linecap="round" points="378.5 666.839561 357.5 654.715205 357.5 630.466494 336.5 618.342138 336.5 642.59085 315.5 630.466494 315.5 606.217783 294.5 594.093427 294.5 569.844716 231.5 533.471649 231.5 557.72036 210.5 545.596004 210.5 521.347293 189.5 509.222937 189.5 557.72036"></polyline>
            <polyline id="Path" stroke-linecap="round" points="189.5 509.222937 210.5 497.098582 210.5 472.84987 189.5 460.725515 189.5 436.476804 147.5 460.725515 147.5 412.228092 126.5 400.103737 126.5 375.855025 105.5 387.979381 84.5 375.855025 84.5 400.103737 126.5 424.352448 126.5 497.098582 105.5 509.222937 105.5 557.72036 147.5 581.969071 147.5 557.72036 126.5 545.596004"></polyline>
            <polyline id="Path" stroke-linecap="round" points="126.5 448.601159 84.5 424.352448 84.5 448.601159 63.5 460.725515 63.5 509.222937 84.5 521.347293 63.5 533.471649 84.5 545.596004"></polyline>
            <polyline id="Path" stroke-linecap="round" points="63.5 509.222937 42.5 521.347293 42.5 545.596004 21.5 533.471649 21.5 557.72036 0.5 569.844716 0.5 594.093427 21.5 581.969071"></polyline>
            <polyline id="Path" stroke-linecap="round" points="63.5 484.974226 84.5 497.098582 105.5 484.974226 105.5 460.725515 84.5 472.84987"></polyline>
            <polyline id="Path" stroke-linecap="round" points="126.5 400.103737 168.5 375.855025 126.5 351.606314 126.5 303.108891 147.5 290.984536 147.5 242.487113"></polyline>
            <polyline id="Path" stroke-linecap="round" points="147.5 266.735824 126.5 254.611469 105.5 266.735824 126.5 278.86018"></polyline>
            <line x1="126.5" y1="303.108891" x2="189.5" y2="339.481958" id="Path" stroke-linecap="round"></line>
            <line x1="168.5" y1="327.357603" x2="147.5" y2="339.481958" id="Path" stroke-linecap="round"></line>
            <line x1="147.5" y1="315.233247" x2="168.5" y2="303.108891" id="Path" stroke-linecap="round"></line>
            <polyline id="Path" stroke-linecap="round" points="126.5 327.357603 105.5 315.233247 105.5 290.984536 84.5 278.86018 84.5 230.362757 105.5 242.487113 126.5 230.362757 126.5 206.114046 168.5 230.362757 210.5 206.114046"></polyline>
            <polyline id="Path" stroke-linecap="round" points="189.5 218.238402 189.5 266.735824 210.5 278.86018 210.5 254.611469 231.5 242.487113 210.5 230.362757 252.5 206.114046 231.5 193.98969 252.5 181.865335 252.5 157.616623 273.5 169.740979 294.5 157.616623 294.5 181.865335 315.5 169.740979 315.5 121.243557 294.5 109.119201 294.5 133.367912 273.5 121.243557 273.5 145.492268 210.5 109.119201 210.5 133.367912 189.5 145.492268 189.5 121.243557 168.5 109.119201 168.5 133.367912 147.5 121.243557 147.5 96.9948452 126.5 109.119201 105.5 96.9948452 105.5 48.4974226 84.5 36.373067 84.5 12.1243557 63.5 8.52651283e-14 63.5 24.2487113 21.5 8.52651283e-14 0.5 12.1243557 21.5 24.2487113 21.5 48.4974226 0.5 36.373067 0.5 84.8704896 21.5 96.9948452 0.5 109.119201 21.5 121.243557 0.5 133.367912 63.5 169.740979 63.5 145.492268 105.5 169.740979 84.5 181.865335 105.5 193.98969 105.5 218.238402 84.5 206.114046 63.5 218.238402 63.5 193.98969 21.5 218.238402 21.5 193.98969 0.5 206.114046 0.5 303.108891 21.5 290.984536 63.5 315.233247 63.5 242.487113"></polyline>
            <polyline id="Path" stroke-linecap="round" points="63.5 266.735824 42.5 278.86018 42.5 230.362757 21.5 242.487113 21.5 266.735824"></polyline>
            <polyline id="Path" stroke-linecap="round" points="0.5 303.108891 84.5 351.606314 105.5 339.481958 84.5 327.357603 84.5 303.108891"></polyline>
            <line x1="105.5" y1="339.481958" x2="105.5" y2="363.73067" id="Path" stroke-linecap="round"></line>
            <polyline id="Path" stroke-linecap="round" points="42.5 327.357603 21.5 339.481958 0.5 327.357603 0.5 351.606314 21.5 363.73067 21.5 412.228092 42.5 424.352448 63.5 412.228092 63.5 363.73067 42.5 351.606314 42.5 400.103737"></polyline>
            <polyline id="Path" stroke-linecap="round" points="63.5 412.228092 63.5 436.476804 42.5 448.601159 21.5 436.476804 21.5 460.725515 0.5 448.601159 0.5 545.596004"></polyline>
            <polyline id="Path" stroke-linecap="round" points="0.5 521.347293 42.5 497.098582 42.5 472.84987 21.5 484.974226"></polyline>
            <line x1="0.5" y1="448.601159" x2="0.5" y2="375.855025" id="Path" stroke-linecap="round"></line>
            <polyline id="Path" stroke-linecap="round" points="42.5 157.616623 0.5 181.865335 0.5 157.616623"></polyline>
            <line x1="21.5" y1="169.740979" x2="42.5" y2="181.865335" id="Path" stroke-linecap="round"></line>
            <polyline id="Path" stroke-linecap="round" points="105.5 72.7461339 126.5 84.8704896 126.5 36.373067 105.5 24.2487113 105.5 7.81597009e-14"></polyline>
            <polyline id="Path" stroke-linecap="round" points="126.5 36.373067 147.5 24.2487113 126.5 12.1243557 147.5 7.46069873e-14 168.5 12.1243557 189.5 7.46069873e-14"></polyline>
            <polyline id="Path" stroke-linecap="round" points="147.5 24.2487113 147.5 72.7461339 189.5 96.9948452 189.5 72.7461339"></polyline>
            <polyline id="Path" stroke-linecap="round" points="105.5 72.7461339 42.5 36.373067 42.5 60.6217783 21.5 72.7461339 42.5 84.8704896 42.5 109.119201 63.5 121.243557 42.5 133.367912"></polyline>
            <polyline id="Path" stroke-linecap="round" points="84.5 60.6217783 63.5 72.7461339 84.5 84.8704896 84.5 133.367912 105.5 121.243557 105.5 145.492268 126.5 133.367912 126.5 181.865335"></polyline>
            <polyline id="Path" stroke-linecap="round" points="126.5 157.616623 147.5 145.492268 147.5 169.740979 168.5 157.616623 168.5 181.865335 147.5 193.98969 168.5 206.114046 210.5 181.865335 189.5 169.740979 210.5 157.616623 231.5 169.740979 231.5 145.492268"></polyline>
            <line x1="84.5" y1="109.119201" x2="63.5" y2="96.9948452" id="Path" stroke-linecap="round"></line>
            <polyline id="Path" stroke-linecap="round" points="210.5 109.119201 210.5 84.8704896 231.5 96.9948452 252.5 84.8704896 252.5 60.6217783 294.5 84.8704896 315.5 72.7461339 336.5 84.8704896 357.5 72.7461339 357.5 96.9948452 378.5 109.119201 420.5 84.8704896"></polyline>
            <polyline id="Path" stroke-linecap="round" points="399.5 96.9948452 378.5 84.8704896 420.5 60.6217783 462.5 84.8704896 462.5 109.119201 441.5 96.9948452 441.5 121.243557 420.5 109.119201 420.5 157.616623 399.5 145.492268 399.5 169.740979 378.5 181.865335 378.5 206.114046 357.5 218.238402 336.5 206.114046 336.5 230.362757 315.5 242.487113 315.5 218.238402 294.5 230.362757 294.5 254.611469 273.5 266.735824 273.5 242.487113 252.5 254.611469 252.5 230.362757 273.5 218.238402 273.5 193.98969 294.5 206.114046 336.5 181.865335 336.5 157.616623 357.5 145.492268 336.5 133.367912 336.5 109.119201 315.5 96.9948452"></polyline>
            <line x1="357.5" y1="145.492268" x2="357.5" y2="121.243557" id="Path" stroke-linecap="round"></line>
            <polyline id="Path" stroke-linecap="round" points="336.5 157.616623 357.5 169.740979 357.5 193.98969"></polyline>
            <polyline id="Path" stroke-linecap="round" points="399.5 145.492268 378.5 157.616623 378.5 133.367912 399.5 121.243557"></polyline>
            <polyline id="Path" stroke-linecap="round" points="420.5 133.367912 441.5 145.492268 441.5 169.740979 399.5 193.98969 420.5 206.114046 315.5 266.735824 357.5 290.984536 357.5 266.735824 378.5 278.86018 378.5 254.611469 399.5 266.735824 399.5 242.487113 420.5 254.611469 420.5 230.362757 441.5 218.238402 441.5 266.735824 462.5 278.86018 399.5 315.233247 399.5 290.984536 378.5 303.108891 378.5 351.606314 420.5 327.357603 441.5 339.481958 441.5 315.233247 483.5 339.481958 483.5 315.233247 504.5 303.108891 504.5 327.357603 525.5 339.481958 504.5 351.606314 525.5 363.73067 504.5 375.855025 462.5 351.606314"></polyline>
            <polyline id="Path" stroke-linecap="round" points="399.5 339.481958 441.5 363.73067 399.5 387.979381 378.5 375.855025 399.5 363.73067"></polyline>
            <line x1="420.5" y1="254.611469" x2="420.5" y2="278.86018" id="Path" stroke-linecap="round"></line>
            <polyline id="Path" stroke-linecap="round" points="420.5 181.865335 441.5 193.98969 462.5 181.865335 483.5 193.98969 483.5 169.740979 504.5 181.865335 504.5 206.114046 525.5 218.238402 504.5 230.362757 525.5 242.487113 504.5 254.611469 567.5 290.984536 588.5 278.86018 567.5 266.735824 567.5 242.487113 546.5 230.362757 546.5 254.611469"></polyline>
            <polyline id="Path" stroke-linecap="round" points="546.5 230.362757 567.5 218.238402 525.5 193.98969 546.5 181.865335 567.5 193.98969 567.5 169.740979 525.5 145.492268 525.5 169.740979 483.5 145.492268 462.5 157.616623 462.5 133.367912 483.5 121.243557 483.5 96.9948452"></polyline>
            <polyline id="Path" stroke-linecap="round" points="567.5 169.740979 609.5 193.98969 609.5 218.238402 588.5 230.362757 588.5 206.114046"></polyline>
            <polyline id="Path" stroke-linecap="round" points="588.5 181.865335 609.5 169.740979 609.5 145.492268 588.5 157.616623"></polyline>
            <polyline id="Path" stroke-linecap="round" points="609.5 145.492268 630.5 157.616623 630.5 181.865335"></polyline>
            <polyline id="Path" stroke-linecap="round" points="567.5 242.487113 588.5 254.611469 609.5 242.487113"></polyline>
            <polyline id="Path" stroke-linecap="round" points="273.5 72.7461339 315.5 48.4974226 252.5 12.1243557 231.5 24.2487113 231.5 7.81597009e-14 168.5 36.373067 168.5 60.6217783 210.5 36.373067 231.5 48.4974226 252.5 36.373067 273.5 48.4974226"></polyline>
            <polyline id="Path" stroke-linecap="round" points="210.5 36.373067 210.5 60.6217783 231.5 72.7461339"></polyline>
            <polyline id="Path" stroke-linecap="round" points="252.5 12.1243557 273.5 7.81597009e-14 294.5 12.1243557 315.5 7.81597009e-14 336.5 12.1243557 315.5 24.2487113"></polyline>
            <polyline id="Path" stroke-linecap="round" points="252.5 133.367912 252.5 109.119201 273.5 96.9948452"></polyline>
            <polyline id="Path" stroke-linecap="round" points="168.5 230.362757 168.5 278.86018 210.5 303.108891"></polyline>
            <polyline id="Path" stroke-linecap="round" points="189.5 290.984536 189.5 315.233247 210.5 327.357603 210.5 351.606314 231.5 339.481958 231.5 315.233247 252.5 327.357603 252.5 303.108891 231.5 290.984536 252.5 278.86018 231.5 266.735824"></polyline>
            <line x1="252.5" y1="303.108891" x2="294.5" y2="278.86018" id="Path" stroke-linecap="round"></line>
            <polyline id="Path" stroke-linecap="round" points="168.5 375.855025 168.5 351.606314 210.5 375.855025 210.5 400.103737 189.5 412.228092 168.5 400.103737 189.5 387.979381"></polyline>
            <line x1="147.5" y1="436.476804" x2="168.5" y2="424.352448" id="Path" stroke-linecap="round"></line>
            <polyline id="Path" stroke-linecap="round" points="189.5 460.725515 210.5 448.601159 210.5 424.352448 231.5 436.476804 231.5 387.979381 252.5 400.103737 252.5 424.352448 273.5 412.228092 273.5 436.476804 294.5 424.352448 294.5 448.601159 315.5 436.476804 315.5 412.228092 336.5 400.103737 378.5 424.352448 378.5 400.103737 336.5 375.855025 336.5 351.606314 315.5 339.481958 315.5 387.979381 294.5 400.103737"></polyline>
            <polyline id="Path" stroke-linecap="round" points="336.5 351.606314 357.5 363.73067 357.5 315.233247 336.5 327.357603 315.5 315.233247 315.5 290.984536 273.5 315.233247 294.5 327.357603 294.5 375.855025 273.5 387.979381 273.5 339.481958 231.5 363.73067 252.5 375.855025"></polyline>
            <line x1="315.5" y1="290.984536" x2="336.5" y2="303.108891" id="Path" stroke-linecap="round"></line>
            <polyline id="Path" stroke-linecap="round" points="378.5 400.103737 420.5 424.352448 420.5 400.103737 441.5 387.979381 462.5 400.103737 462.5 375.855025 504.5 400.103737 504.5 424.352448 483.5 412.228092"></polyline>
            <line x1="441.5" y1="387.979381" x2="441.5" y2="412.228092" id="Path" stroke-linecap="round"></line>
            <polyline id="Path" stroke-linecap="round" points="420.5 424.352448 420.5 448.601159 399.5 436.476804 399.5 460.725515 336.5 424.352448 336.5 448.601159 357.5 460.725515 336.5 472.84987 357.5 484.974226 336.5 497.098582 315.5 484.974226 294.5 497.098582 294.5 472.84987 315.5 460.725515"></polyline>
            <line x1="378.5" y1="448.601159" x2="378.5" y2="472.84987" id="Path" stroke-linecap="round"></line>
            <polyline id="Path" stroke-linecap="round" points="231.5 436.476804 231.5 460.725515 252.5 448.601159 273.5 460.725515 273.5 484.974226 252.5 497.098582 273.5 509.222937 252.5 521.347293 231.5 509.222937 231.5 484.974226 252.5 472.84987"></polyline>
            <polyline id="Path" stroke-linecap="round" points="189.5 509.222937 168.5 521.347293 147.5 509.222937 126.5 521.347293 168.5 545.596004 168.5 569.844716 189.5 581.969071 210.5 569.844716 231.5 581.969071 252.5 569.844716 252.5 594.093427 273.5 581.969071 273.5 606.217783 294.5 618.342138"></polyline>
            <polyline id="Path" stroke-linecap="round" points="231.5 581.969071 231.5 606.217783 252.5 618.342138 252.5 642.59085 273.5 630.466494 273.5 654.715205 294.5 642.59085 336.5 666.839561 315.5 678.963917 294.5 666.839561 294.5 691.088272 273.5 678.963917 273.5 703.212628 252.5 715.336984 252.5 691.088272 231.5 703.212628 189.5 678.963917 168.5 691.088272 147.5 678.963917 147.5 630.466494 126.5 642.59085 126.5 618.342138 105.5 630.466494 105.5 678.963917 126.5 666.839561"></polyline>
            <line x1="168.5" y1="691.088272" x2="168.5" y2="666.839561" id="Path" stroke-linecap="round"></line>
            <polyline id="Path" stroke-linecap="round" points="210.5 691.088272 210.5 739.585695 231.5 727.461339"></polyline>
            <polyline id="Path" stroke-linecap="round" points="210.5 715.336984 189.5 703.212628 189.5 727.461339 168.5 715.336984 168.5 739.585695 147.5 751.71005"></polyline>
            <line x1="231.5" y1="703.212628" x2="231.5" y2="630.466494" id="Path" stroke-linecap="round"></line>
            <line x1="231.5" y1="654.715205" x2="252.5" y2="666.839561" id="Path" stroke-linecap="round"></line>
            <polyline id="Path" stroke-linecap="round" points="231.5 654.715205 210.5 642.59085 210.5 618.342138 189.5 606.217783 210.5 594.093427"></polyline>
            <polyline id="Path" stroke-linecap="round" points="147.5 509.222937 147.5 484.974226 168.5 497.098582 168.5 472.84987 189.5 484.974226"></polyline>
            <polyline id="Path" stroke-linecap="round" points="273.5 557.72036 294.5 545.596004 294.5 521.347293 273.5 533.471649"></polyline>
            <polyline id="Path" stroke-linecap="round" points="294.5 521.347293 315.5 533.471649 315.5 509.222937"></polyline>
            <polyline id="Path" stroke-linecap="round" points="315.5 533.471649 315.5 557.72036 336.5 545.596004 336.5 521.347293 399.5 484.974226 399.5 509.222937"></polyline>
            <line x1="336.5" y1="521.347293" x2="357.5" y2="533.471649" id="Path" stroke-linecap="round"></line>
            <polyline id="Path" stroke-linecap="round" points="378.5 642.59085 378.5 618.342138 336.5 594.093427 357.5 581.969071 336.5 569.844716 315.5 581.969071"></polyline>
            <line x1="441.5" y1="557.72036" x2="462.5" y2="545.596004" id="Path" stroke-linecap="round"></line>
            <polyline id="Path" stroke-linecap="round" points="1050.5 569.844716 1008.5 545.596004 1008.5 569.844716"></polyline>
            <polyline id="Path" stroke-linecap="round" points="1008.5 545.596004 987.5 557.72036 987.5 581.969071 966.5 594.093427 987.5 606.217783"></polyline>
            <polyline id="Path" stroke-linecap="round" points="966.5 594.093427 966.5 569.844716 924.5 594.093427 945.5 606.217783"></polyline>
            <line x1="987.5" y1="557.72036" x2="987.5" y2="533.471649" id="Path" stroke-linecap="round"></line>
            <polyline id="Path" stroke-linecap="round" points="1113.5 509.222937 1092.5 497.098582 1092.5 472.84987 1113.5 460.725515 1071.5 436.476804"></polyline>
            <polyline id="Path" stroke-linecap="round" points="1113.5 460.725515 1113.5 484.974226 1134.5 497.098582"></polyline>
            <polyline id="Path" stroke-linecap="round" points="1071.5 484.974226 1050.5 497.098582 1029.5 484.974226 1008.5 497.098582 987.5 484.974226 966.5 497.098582 1008.5 521.347293 1029.5 509.222937 1029.5 533.471649 1050.5 545.596004 1071.5 533.471649 1050.5 521.347293"></polyline>
            <line x1="987.5" y1="509.222937" x2="924.5" y2="545.596004" id="Path" stroke-linecap="round"></line>
            <polyline id="Path" stroke-linecap="round" points="945.5 533.471649 966.5 545.596004 924.5 569.844716 882.5 545.596004 924.5 521.347293 924.5 497.098582 945.5 509.222937 945.5 484.974226 987.5 460.725515 1008.5 472.84987 1029.5 460.725515 1050.5 472.84987"></polyline>
            <polyline id="Path" stroke-linecap="round" points="1197.5 509.222937 1197.5 557.72036 1239.5 581.969071 1302.5 545.596004 1302.5 472.84987 1260.5 448.601159"></polyline>
            <polyline id="Path" stroke-linecap="round" points="1302.5 521.347293 1239.5 557.72036 1239.5 533.471649 1218.5 545.596004"></polyline>
            <polyline id="Path" stroke-linecap="round" points="1260.5 569.844716 1260.5 594.093427 1281.5 581.969071 1281.5 606.217783 1302.5 594.093427 1302.5 569.844716 1323.5 557.72036 1323.5 509.222937 1344.5 521.347293 1344.5 545.596004 1365.5 533.471649 1407.5 557.72036 1407.5 533.471649 1449.5 509.222937 1428.5 497.098582"></polyline>
            <line x1="1428.5" y1="521.347293" x2="1428.5" y2="545.596004" id="Path" stroke-linecap="round"></line>
            <polyline id="Path" stroke-linecap="round" points="1428.5 521.347293 1407.5 509.222937 1386.5 521.347293 1365.5 509.222937"></polyline>
            <polyline id="Path" stroke-linecap="round" points="1386.5 545.596004 1386.5 569.844716 1407.5 581.969071 1449.5 557.72036 1449.5 606.217783 1470.5 594.093427 1470.5 545.596004 1449.5 533.471649 1491.5 509.222937 1491.5 533.471649 1512.5 521.347293 1533.5 533.471649 1533.5 484.974226 1512.5 472.84987 1470.5 497.098582 1407.5 460.725515"></polyline>
            <polyline id="Path" stroke-linecap="round" points="1428.5 472.84987 1449.5 460.725515 1428.5 448.601159 1428.5 424.352448 1449.5 412.228092 1428.5 400.103737 1428.5 375.855025 1449.5 363.73067 1449.5 339.481958"></polyline>
            <polyline id="Path" stroke-linecap="round" points="1449.5 363.73067 1449.5 387.979381 1491.5 412.228092 1491.5 436.476804 1470.5 448.601159 1449.5 436.476804 1470.5 424.352448"></polyline>
            <polyline id="Path" stroke-linecap="round" points="1449.5 460.725515 1470.5 472.84987 1491.5 460.725515"></polyline>
            <line x1="1533.5" y1="509.222937" x2="1512.5" y2="497.098582" id="Path" stroke-linecap="round"></line>
            <polyline id="Path" stroke-linecap="round" points="1470.5 594.093427 1470.5 642.59085 1491.5 654.715205 1491.5 630.466494"></polyline>
            <polyline id="Path" stroke-linecap="round" points="1386.5 569.844716 1365.5 581.969071 1344.5 569.844716 1365.5 557.72036"></polyline>
            <polyline id="Path" stroke-linecap="round" points="1197.5 557.72036 1176.5 545.596004 1176.5 569.844716 1239.5 606.217783 1218.5 618.342138 1197.5 606.217783 1197.5 678.963917 1176.5 691.088272 1176.5 642.59085 1155.5 654.715205 1134.5 642.59085 1134.5 618.342138 1113.5 630.466494 1092.5 618.342138 1092.5 642.59085 1071.5 654.715205 1092.5 666.839561"></polyline>
            <polyline id="Path" stroke-linecap="round" points="1071.5 654.715205 1071.5 606.217783 1050.5 618.342138"></polyline>
            <polyline id="Path" stroke-linecap="round" points="1113.5 630.466494 1113.5 606.217783 1092.5 594.093427 1092.5 569.844716 1113.5 581.969071 1155.5 557.72036"></polyline>
            <polyline id="Path" stroke-linecap="round" points="1134.5 642.59085 1155.5 630.466494 1155.5 606.217783 1134.5 594.093427 1155.5 581.969071 1176.5 594.093427 1176.5 618.342138"></polyline>
            <polyline id="Path" stroke-linecap="round" points="1218.5 472.84987 1218.5 497.098582 1239.5 484.974226"></polyline>
            <polyline id="Path" stroke-linecap="round" points="1113.5 412.228092 1113.5 363.73067 1050.5 400.103737 1050.5 375.855025"></polyline>
            <line x1="1092.5" y1="375.855025" x2="1092.5" y2="351.606314" id="Path" stroke-linecap="round"></line>
            <polyline id="Path" stroke-linecap="round" points="1092.5 375.855025 1071.5 363.73067 1071.5 339.481958 1029.5 363.73067 1029.5 387.979381 1008.5 400.103737 987.5 387.979381 966.5 400.103737 987.5 412.228092 966.5 424.352448 966.5 448.601159 987.5 436.476804 1008.5 448.601159 1029.5 436.476804 1029.5 412.228092 1008.5 424.352448"></polyline>
            <line x1="1155.5" y1="315.233247" x2="1134.5" y2="327.357603" id="Path" stroke-linecap="round"></line>
            <polyline id="Path" stroke-linecap="round" points="1176.5 400.103737 1218.5 375.855025 1239.5 387.979381 1218.5 400.103737"></polyline>
            <line x1="1197.5" y1="436.476804" x2="1218.5" y2="448.601159" id="Path" stroke-linecap="round"></line>
            <polyline id="Path" stroke-linecap="round" points="1344.5 400.103737 1323.5 412.228092 1344.5 424.352448 1344.5 448.601159"></polyline>
            <polyline id="Path" stroke-linecap="round" points="1344.5 400.103737 1365.5 412.228092 1386.5 400.103737"></polyline>
            <line x1="1281.5" y1="387.979381" x2="1260.5" y2="400.103737" id="Path" stroke-linecap="round"></line>
            <polyline id="Path" stroke-linecap="round" points="1281.5 339.481958 1302.5 351.606314 1302.5 375.855025 1344.5 351.606314 1323.5 339.481958 1323.5 315.233247"></polyline>
            <polyline id="Path" stroke-linecap="round" points="1428.5 327.357603 1428.5 351.606314 1407.5 339.481958 1386.5 351.606314 1407.5 363.73067"></polyline>
            <line x1="1533.5" y1="412.228092" x2="1554.5" y2="424.352448" id="Path" stroke-linecap="round"></line>
            <polyline id="Path" stroke-linecap="round" points="1554.5 375.855025 1554.5 351.606314 1575.5 339.481958 1575.5 363.73067 1596.5 375.855025"></polyline>
            <line x1="1554.5" y1="472.84987" x2="1554.5" y2="497.098582" id="Path" stroke-linecap="round"></line>
            <polyline id="Path" stroke-linecap="round" points="1617.5 557.72036 1617.5 581.969071 1638.5 569.844716 1659.5 581.969071 1659.5 606.217783 1638.5 594.093427 1617.5 606.217783 1638.5 618.342138"></polyline>
            <polyline id="Path" stroke-linecap="round" points="1617.5 606.217783 1596.5 594.093427 1575.5 606.217783 1596.5 618.342138 1575.5 630.466494 1554.5 618.342138 1533.5 630.466494 1554.5 642.59085"></polyline>
            <polyline id="Path" stroke-linecap="round" points="1533.5 630.466494 1491.5 606.217783 1512.5 594.093427 1491.5 581.969071 1491.5 557.72036 1512.5 545.596004 1512.5 569.844716 1533.5 557.72036 1554.5 569.844716 1554.5 594.093427 1533.5 606.217783 1533.5 581.969071"></polyline>
            <polyline id="Path" stroke-linecap="round" points="1617.5 606.217783 1617.5 630.466494 1596.5 642.59085 1617.5 654.715205 1596.5 666.839561 1575.5 654.715205 1554.5 666.839561 1512.5 642.59085 1512.5 715.336984 1470.5 691.088272 1449.5 703.212628 1449.5 727.461339 1470.5 739.585695 1470.5 763.834406 1491.5 775.958762 1491.5 751.71005 1512.5 763.834406 1512.5 739.585695 1470.5 715.336984"></polyline>
            <polyline id="Path" stroke-linecap="round" points="1470.5 763.834406 1449.5 775.958762 1449.5 751.71005 1386.5 715.336984 1386.5 691.088272 1365.5 703.212628 1365.5 678.963917 1323.5 654.715205 1344.5 642.59085 1302.5 618.342138 1281.5 630.466494 1281.5 654.715205 1260.5 642.59085 1260.5 666.839561 1218.5 642.59085 1260.5 618.342138"></polyline>
            <polyline id="Path" stroke-linecap="round" points="1323.5 630.466494 1344.5 618.342138 1365.5 630.466494 1365.5 606.217783 1344.5 594.093427 1323.5 606.217783 1323.5 581.969071"></polyline>
            <polyline id="Path" stroke-linecap="round" points="1365.5 606.217783 1386.5 594.093427 1407.5 606.217783 1428.5 594.093427 1428.5 642.59085 1386.5 666.839561 1386.5 642.59085 1407.5 630.466494 1386.5 618.342138"></polyline>
            <line x1="1344.5" y1="642.59085" x2="1365.5" y2="654.715205" id="Path" stroke-linecap="round"></line>
            <polyline id="Path" stroke-linecap="round" points="1344.5 666.839561 1260.5 715.336984 1239.5 703.212628 1239.5 678.963917 1218.5 666.839561 1218.5 715.336984 1239.5 727.461339"></polyline>
            <polyline id="Path" stroke-linecap="round" points="1260.5 715.336984 1260.5 691.088272 1302.5 666.839561 1302.5 642.59085"></polyline>
            <polyline id="Path" stroke-linecap="round" points="1323.5 678.963917 1344.5 691.088272 1281.5 727.461339"></polyline>
            <polyline id="Path" stroke-linecap="round" points="1323.5 703.212628 1323.5 751.71005 1302.5 763.834406 1344.5 788.083117 1344.5 763.834406 1365.5 775.958762 1365.5 751.71005 1386.5 763.834406 1386.5 739.585695 1407.5 751.71005 1407.5 775.958762 1428.5 763.834406 1428.5 788.083117 1449.5 800.207473 1470.5 788.083117 1512.5 812.331829 1533.5 800.207473 1512.5 788.083117 1533.5 775.958762 1533.5 751.71005 1575.5 775.958762 1554.5 788.083117 1554.5 836.58054 1533.5 824.456184 1512.5 836.58054 1491.5 824.456184 1470.5 836.58054 1470.5 812.331829 1407.5 848.704896 1428.5 860.829251 1407.5 872.953607 1428.5 885.077963 1449.5 872.953607 1449.5 848.704896 1470.5 860.829251 1491.5 848.704896"></polyline>
            <polyline id="Path" stroke-linecap="round" points="1554.5 812.331829 1575.5 800.207473 1575.5 824.456184 1617.5 800.207473 1617.5 824.456184 1575.5 848.704896 1596.5 860.829251 1596.5 909.326674"></polyline>
            <polyline id="Path" stroke-linecap="round" points="1596.5 885.077963 1575.5 872.953607 1554.5 885.077963 1575.5 897.202318 1554.5 909.326674"></polyline>
            <polyline id="Path" stroke-linecap="round" points="1596.5 836.58054 1638.5 860.829251 1638.5 812.331829 1659.5 800.207473 1659.5 775.958762 1638.5 788.083117 1638.5 763.834406 1596.5 788.083117"></polyline>
            <polyline id="Path" stroke-linecap="round" points="1638.5 763.834406 1617.5 751.71005 1596.5 763.834406 1596.5 739.585695 1575.5 727.461339 1575.5 678.963917 1596.5 691.088272 1596.5 715.336984 1617.5 703.212628 1659.5 727.461339 1659.5 678.963917 1638.5 666.839561 1617.5 678.963917 1638.5 691.088272"></polyline>
            <polyline id="Path" stroke-linecap="round" points="1638.5 666.839561 1638.5 642.59085 1659.5 630.466494 1659.5 654.715205"></polyline>
            <polyline id="Path" stroke-linecap="round" points="1659.5 727.461339 1659.5 751.71005 1617.5 727.461339"></polyline>
            <polyline id="Path" stroke-linecap="round" points="1659.5 800.207473 1659.5 921.45103 1638.5 909.326674 1638.5 885.077963 1617.5 897.202318 1617.5 872.953607"></polyline>
            <polyline id="Path" stroke-linecap="round" points="1554.5 763.834406 1554.5 739.585695 1533.5 727.461339 1533.5 703.212628 1554.5 691.088272 1533.5 678.963917"></polyline>
            <line x1="1533.5" y1="727.461339" x2="1554.5" y2="715.336984" id="Path" stroke-linecap="round"></line>
            <line x1="1554.5" y1="739.585695" x2="1575.5" y2="751.71005" id="Path" stroke-linecap="round"></line>
            <polyline id="Path" stroke-linecap="round" points="1449.5 800.207473 1428.5 812.331829 1407.5 800.207473 1407.5 824.456184"></polyline>
            <polyline id="Path" stroke-linecap="round" points="1386.5 763.834406 1386.5 812.331829 1365.5 800.207473 1344.5 812.331829 1323.5 800.207473 1323.5 848.704896 1344.5 860.829251 1344.5 885.077963 1365.5 872.953607 1365.5 824.456184 1344.5 836.58054"></polyline>
            <polyline id="Path" stroke-linecap="round" points="1365.5 848.704896 1386.5 836.58054 1386.5 860.829251"></polyline>
            <polyline id="Path" stroke-linecap="round" points="1344.5 860.829251 1281.5 897.202318 1281.5 945.699741 1260.5 933.575385 1260.5 957.824097 1281.5 969.948452 1281.5 994.197164 1260.5 982.072808 1260.5 1006.32152 1281.5 1018.44587 1323.5 994.197164 1302.5 982.072808 1323.5 969.948452 1323.5 945.699741 1302.5 957.824097"></polyline>
            <polyline id="Path" stroke-linecap="round" points="1323.5 945.699741 1344.5 957.824097 1344.5 982.072808 1365.5 994.197164 1365.5 969.948452"></polyline>
            <polyline id="Path" stroke-linecap="round" points="1365.5 994.197164 1365.5 1018.44587 1407.5 994.197164"></polyline>
            <polyline id="Path" stroke-linecap="round" points="1365.5 1018.44587 1344.5 1030.57023 1323.5 1018.44587 1344.5 1006.32152"></polyline>
            <polyline id="Path" stroke-linecap="round" points="1323.5 751.71005 1302.5 739.585695 1260.5 763.834406 1260.5 739.585695 1239.5 751.71005 1239.5 775.958762 1281.5 800.207473 1281.5 775.958762 1302.5 788.083117 1302.5 812.331829"></polyline>
            <polyline id="Path" stroke-linecap="round" points="1260.5 788.083117 1260.5 812.331829 1239.5 800.207473 1239.5 824.456184 1218.5 836.58054 1218.5 860.829251 1176.5 885.077963 1197.5 897.202318 1197.5 945.699741 1176.5 957.824097"></polyline>
            <polyline id="Path" stroke-linecap="round" points="1197.5 921.45103 1218.5 933.575385 1218.5 909.326674 1239.5 921.45103 1260.5 909.326674 1218.5 885.077963 1260.5 860.829251 1260.5 885.077963 1302.5 860.829251 1302.5 836.58054 1281.5 824.456184 1239.5 848.704896"></polyline>
            <line x1="1260.5" y1="836.58054" x2="1281.5" y2="848.704896" id="Path" stroke-linecap="round"></line>
            <polyline id="Path" stroke-linecap="round" points="1176.5 885.077963 1176.5 860.829251 1197.5 848.704896 1176.5 836.58054"></polyline>
            <polyline id="Path" stroke-linecap="round" points="1323.5 727.461339 1344.5 715.336984 1365.5 727.461339 1344.5 739.585695"></polyline>
            <polyline id="Path" stroke-linecap="round" points="1386.5 715.336984 1407.5 703.212628 1428.5 715.336984 1428.5 691.088272 1470.5 666.839561 1449.5 654.715205 1407.5 678.963917"></polyline>
            <line x1="1449.5" y1="654.715205" x2="1449.5" y2="630.466494" id="Path" stroke-linecap="round"></line>
            <line x1="1470.5" y1="691.088272" x2="1491.5" y2="678.963917" id="Path" stroke-linecap="round"></line>
            <polyline id="Path" stroke-linecap="round" points="1638.5 545.596004 1659.5 557.72036 1659.5 533.471649"></polyline>
            <line x1="1638.5" y1="472.84987" x2="1617.5" y2="460.725515" id="Path" stroke-linecap="round"></line>
            <polyline id="Path" stroke-linecap="round" points="1638.5 424.352448 1617.5 436.476804 1596.5 424.352448 1596.5 497.098582"></polyline>
            <line x1="1596.5" y1="472.84987" x2="1575.5" y2="460.725515" id="Path" stroke-linecap="round"></line>
            <polyline id="Path" stroke-linecap="round" points="1575.5 315.233247 1554.5 303.108891 1575.5 290.984536"></polyline>
            <line x1="1512.5" y1="303.108891" x2="1491.5" y2="315.233247" id="Path" stroke-linecap="round"></line>
            <polyline id="Path" stroke-linecap="round" points="1512.5 254.611469 1533.5 266.735824 1533.5 242.487113 1554.5 230.362757 1533.5 218.238402 1575.5 193.98969 1596.5 206.114046 1617.5 193.98969 1596.5 181.865335 1617.5 169.740979"></polyline>
            <polyline id="Path" stroke-linecap="round" points="1533.5 266.735824 1554.5 254.611469 1554.5 278.86018 1575.5 266.735824 1575.5 218.238402 1596.5 230.362757 1617.5 218.238402 1617.5 242.487113 1596.5 254.611469 1596.5 303.108891 1659.5 266.735824 1659.5 242.487113 1638.5 230.362757 1638.5 181.865335 1659.5 169.740979 1638.5 157.616623 1638.5 133.367912 1659.5 145.492268 1659.5 48.4974226"></polyline>
            <polyline id="Path" stroke-linecap="round" points="1638.5 181.865335 1659.5 193.98969 1659.5 218.238402"></polyline>
            <polyline id="Path" stroke-linecap="round" points="1659.5 266.735824 1659.5 315.233247 1638.5 303.108891 1638.5 327.357603 1617.5 315.233247 1617.5 339.481958 1638.5 351.606314 1659.5 339.481958 1659.5 387.979381"></polyline>
            <line x1="1596.5" y1="278.86018" x2="1638.5" y2="254.611469" id="Path" stroke-linecap="round"></line>
            <line x1="1512.5" y1="206.114046" x2="1512.5" y2="157.616623" id="Path" stroke-linecap="round"></line>
            <polyline id="Path" stroke-linecap="round" points="1575.5 145.492268 1575.5 169.740979 1617.5 145.492268 1617.5 121.243557"></polyline>
            <polyline id="Path" stroke-linecap="round" points="1575.5 169.740979 1554.5 157.616623 1554.5 181.865335"></polyline>
            <polyline id="Path" stroke-linecap="round" points="1596.5 133.367912 1596.5 109.119201 1617.5 96.9948452 1638.5 109.119201 1638.5 84.8704896 1617.5 72.7461339 1617.5 48.4974226 1638.5 60.6217783 1638.5 36.373067 1617.5 24.2487113 1638.5 12.1243557 1659.5 24.2487113 1659.5 7.10542736e-14"></polyline>
            <line x1="1596.5" y1="12.1243557" x2="1617.5" y2="7.72715225e-14" id="Path" stroke-linecap="round"></line>
            <polyline id="Path" stroke-linecap="round" points="1554.5 36.373067 1533.5 24.2487113 1512.5 36.373067 1533.5 48.4974226 1533.5 72.7461339 1512.5 60.6217783 1512.5 84.8704896"></polyline>
            <line x1="1533.5" y1="121.243557" x2="1554.5" y2="109.119201" id="Path" stroke-linecap="round"></line>
            <polyline id="Path" stroke-linecap="round" points="1470.5 181.865335 1491.5 193.98969 1491.5 218.238402 1470.5 230.362757 1470.5 278.86018 1491.5 290.984536 1491.5 266.735824"></polyline>
            <polyline id="Path" stroke-linecap="round" points="1491.5 290.984536 1470.5 303.108891 1428.5 278.86018 1449.5 266.735824"></polyline>
            <line x1="1428.5" y1="230.362757" x2="1428.5" y2="206.114046" id="Path" stroke-linecap="round"></line>
            <polyline id="Path" stroke-linecap="round" points="1407.5 266.735824 1386.5 254.611469 1365.5 266.735824 1365.5 242.487113 1386.5 230.362757"></polyline>
            <line x1="1239.5" y1="266.735824" x2="1260.5" y2="278.86018" id="Path" stroke-linecap="round"></line>
            <polyline id="Path" stroke-linecap="round" points="1197.5 145.492268 1176.5 157.616623 1176.5 254.611469 1197.5 266.735824 1197.5 290.984536 1218.5 278.86018 1218.5 303.108891 1260.5 327.357603 1260.5 351.606314 1239.5 363.73067"></polyline>
            <polyline id="Path" stroke-linecap="round" points="1239.5 315.233247 1239.5 339.481958 1218.5 351.606314 1218.5 327.357603 1197.5 339.481958 1197.5 363.73067"></polyline>
            <polyline id="Path" stroke-linecap="round" points="1197.5 339.481958 1197.5 315.233247 1155.5 290.984536"></polyline>
            <polyline id="Path" stroke-linecap="round" points="1176.5 303.108891 1176.5 278.86018 1155.5 266.735824 1155.5 242.487113"></polyline>
            <polyline id="Path" stroke-linecap="round" points="1197.5 145.492268 1239.5 169.740979 1239.5 193.98969 1260.5 206.114046 1239.5 218.238402 1260.5 230.362757 1239.5 242.487113 1281.5 266.735824 1281.5 242.487113 1323.5 218.238402 1302.5 206.114046 1323.5 193.98969 1344.5 206.114046 1344.5 181.865335 1365.5 169.740979"></polyline>
            <line x1="1344.5" y1="206.114046" x2="1344.5" y2="230.362757" id="Path" stroke-linecap="round"></line>
            <polyline id="Path" stroke-linecap="round" points="1323.5 218.238402 1323.5 242.487113 1302.5 254.611469"></polyline>
            <polyline id="Path" stroke-linecap="round" points="1218.5 133.367912 1218.5 109.119201 1239.5 121.243557 1281.5 96.9948452"></polyline>
            <polyline id="Path" stroke-linecap="round" points="1260.5 109.119201 1260.5 181.865335 1281.5 193.98969 1302.5 181.865335 1302.5 133.367912 1281.5 121.243557 1281.5 169.740979"></polyline>
            <polyline id="Path" stroke-linecap="round" points="1302.5 157.616623 1323.5 169.740979 1344.5 157.616623 1323.5 145.492268 1323.5 96.9948452 1302.5 109.119201 1302.5 60.6217783 1281.5 72.7461339 1281.5 7.10542736e-14"></polyline>
            <polyline id="Path" stroke-linecap="round" points="1281.5 24.2487113 1260.5 12.1243557 1260.5 84.8704896 1239.5 96.9948452 1218.5 84.8704896 1176.5 109.119201 1176.5 84.8704896 1197.5 72.7461339"></polyline>
            <polyline id="Path" stroke-linecap="round" points="1344.5 157.616623 1344.5 84.8704896 1323.5 72.7461339"></polyline>
            <polyline id="Path" stroke-linecap="round" points="1344.5 109.119201 1365.5 121.243557 1365.5 96.9948452 1386.5 84.8704896 1302.5 36.373067 1302.5 12.1243557 1323.5 7.81597009e-14"></polyline>
            <polyline id="Path" stroke-linecap="round" points="1323.5 48.4974226 1323.5 24.2487113 1365.5 7.46069873e-14 1365.5 24.2487113 1344.5 36.373067 1386.5 60.6217783 1407.5 48.4974226 1386.5 36.373067 1386.5 12.1243557 1428.5 36.373067 1428.5 12.1243557 1407.5 7.46069873e-14"></polyline>
            <polyline id="Path" stroke-linecap="round" points="1428.5 36.373067 1491.5 7.46069873e-14 1512.5 12.1243557 1533.5 7.46069873e-14"></polyline>
            <line x1="1449.5" y1="24.2487113" x2="1449.5" y2="7.81597009e-14" id="Path" stroke-linecap="round"></line>
            <polyline id="Path" stroke-linecap="round" points="1386.5 84.8704896 1428.5 109.119201 1407.5 121.243557 1386.5 109.119201 1386.5 133.367912 1365.5 145.492268 1386.5 157.616623 1386.5 181.865335 1365.5 193.98969 1365.5 218.238402 1386.5 206.114046 1407.5 218.238402 1407.5 193.98969 1428.5 181.865335 1407.5 169.740979 1407.5 145.492268 1470.5 109.119201 1449.5 96.9948452 1470.5 84.8704896 1449.5 72.7461339 1449.5 48.4974226 1407.5 72.7461339 1428.5 84.8704896"></polyline>
            <polyline id="Path" stroke-linecap="round" points="1470.5 84.8704896 1470.5 36.373067 1491.5 24.2487113 1491.5 96.9948452 1512.5 109.119201 1491.5 121.243557"></polyline>
            <polyline id="Path" stroke-linecap="round" points="1407.5 145.492268 1428.5 157.616623 1470.5 133.367912 1470.5 157.616623"></polyline>
            <line x1="1281.5" y1="193.98969" x2="1281.5" y2="218.238402" id="Path" stroke-linecap="round"></line>
            <line x1="1239.5" y1="121.243557" x2="1239.5" y2="145.492268" id="Path" stroke-linecap="round"></line>
            <polyline id="Path" stroke-linecap="round" points="1176.5 133.367912 1155.5 121.243557 1134.5 133.367912 1134.5 109.119201 1155.5 96.9948452 1134.5 84.8704896 1155.5 72.7461339 1113.5 48.4974226 1113.5 121.243557 1071.5 96.9948452 1050.5 109.119201 1050.5 84.8704896 1029.5 96.9948452"></polyline>
            <polyline id="Path" stroke-linecap="round" points="1071.5 96.9948452 1092.5 84.8704896 1071.5 72.7461339"></polyline>
            <polyline id="Path" stroke-linecap="round" points="1134.5 60.6217783 1134.5 36.373067 1113.5 24.2487113 1134.5 12.1243557 1113.5 7.46069873e-14 1092.5 12.1243557 1092.5 60.6217783 1071.5 48.4974226 1071.5 7.46069873e-14"></polyline>
            <polyline id="Path" stroke-linecap="round" points="1134.5 12.1243557 1155.5 24.2487113 1155.5 7.46069873e-14 1197.5 24.2487113 1197.5 48.4974226 1176.5 36.373067 1176.5 60.6217783 1155.5 48.4974226"></polyline>
            <polyline id="Path" stroke-linecap="round" points="1176.5 12.1243557 1197.5 7.81597009e-14 1218.5 12.1243557 1239.5 7.81597009e-14 1239.5 72.7461339 1218.5 60.6217783 1218.5 36.373067"></polyline>
            <line x1="1113.5" y1="242.487113" x2="1092.5" y2="254.611469" id="Path" stroke-linecap="round"></line>
            <line x1="1071.5" y1="121.243557" x2="1071.5" y2="145.492268" id="Path" stroke-linecap="round"></line>
            <polyline id="Path" stroke-linecap="round" points="987.5 121.243557 987.5 96.9948452 966.5 84.8704896"></polyline>
            <polyline id="Path" stroke-linecap="round" points="987.5 96.9948452 1029.5 72.7461339 1029.5 48.4974226 1050.5 60.6217783 1050.5 12.1243557 1029.5 7.81597009e-14 1029.5 24.2487113 1008.5 36.373067 987.5 24.2487113 987.5 48.4974226 966.5 60.6217783 987.5 72.7461339 1008.5 60.6217783"></polyline>
            <line x1="987.5" y1="24.2487113" x2="945.5" y2="48.4974226" id="Path" stroke-linecap="round"></line>
            <polyline id="Path" stroke-linecap="round" points="966.5 36.373067 966.5 12.1243557 987.5 7.46069873e-14 1008.5 12.1243557"></polyline>
            <polyline id="Path" stroke-linecap="round" points="903.5 121.243557 882.5 109.119201 882.5 84.8704896 840.5 109.119201 840.5 133.367912 819.5 121.243557 798.5 133.367912 777.5 121.243557 756.5 133.367912 756.5 84.8704896 714.5 109.119201 735.5 121.243557 693.5 145.492268 672.5 133.367912 651.5 145.492268 630.5 133.367912 651.5 121.243557 651.5 72.7461339 630.5 84.8704896 609.5 72.7461339 651.5 48.4974226 651.5 24.2487113 630.5 12.1243557 630.5 36.373067 609.5 48.4974226 567.5 24.2487113 567.5 7.10542736e-14 525.5 24.2487113"></polyline>
            <polyline id="Path" stroke-linecap="round" points="546.5 12.1243557 525.5 7.72715225e-14 504.5 12.1243557 483.5 7.72715225e-14 462.5 12.1243557 441.5 7.72715225e-14 420.5 12.1243557"></polyline>
            <polyline id="Path" stroke-linecap="round" points="546.5 12.1243557 546.5 84.8704896 588.5 109.119201"></polyline>
            <line x1="546.5" y1="84.8704896" x2="525.5" y2="96.9948452" id="Path" stroke-linecap="round"></line>
            <polyline id="Path" stroke-linecap="round" points="546.5 60.6217783 630.5 109.119201 567.5 145.492268 567.5 121.243557 546.5 109.119201 546.5 133.367912 525.5 121.243557 504.5 133.367912 504.5 84.8704896 525.5 72.7461339 525.5 48.4974226 483.5 72.7461339 483.5 48.4974226 504.5 36.373067 483.5 24.2487113 462.5 36.373067 462.5 60.6217783 441.5 48.4974226 441.5 24.2487113 420.5 36.373067 399.5 24.2487113 399.5 7.10542736e-14 336.5 36.373067 336.5 60.6217783 378.5 36.373067 378.5 60.6217783 399.5 48.4974226"></polyline>
            <line x1="357.5" y1="24.2487113" x2="357.5" y2="7.81597009e-14" id="Path" stroke-linecap="round"></line>
            <line x1="546.5" y1="36.373067" x2="588.5" y2="60.6217783" id="Path" stroke-linecap="round"></line>
            <polyline id="Path" stroke-linecap="round" points="567.5 24.2487113 609.5 7.81597009e-14 609.5 24.2487113"></polyline>
            <line x1="630.5" y1="12.1243557" x2="651.5" y2="7.72715225e-14" id="Path" stroke-linecap="round"></line>
            <polyline id="Path" stroke-linecap="round" points="651.5 72.7461339 672.5 60.6217783 672.5 84.8704896 693.5 72.7461339 693.5 121.243557 672.5 109.119201"></polyline>
            <polyline id="Path" stroke-linecap="round" points="714.5 133.367912 714.5 157.616623 693.5 169.740979 672.5 157.616623 651.5 169.740979 693.5 193.98969 735.5 169.740979 735.5 145.492268 756.5 157.616623 777.5 145.492268 777.5 242.487113 798.5 254.611469 840.5 230.362757 861.5 242.487113 861.5 218.238402 840.5 206.114046 798.5 230.362757 798.5 206.114046 840.5 181.865335 861.5 193.98969 882.5 181.865335 861.5 169.740979"></polyline>
            <polyline id="Path" stroke-linecap="round" points="840.5 230.362757 840.5 254.611469 903.5 290.984536 903.5 315.233247 924.5 327.357603 987.5 290.984536 987.5 218.238402 924.5 254.611469 945.5 266.735824 966.5 254.611469 966.5 278.86018 924.5 303.108891 924.5 278.86018"></polyline>
            <polyline id="Path" stroke-linecap="round" points="987.5 218.238402 1008.5 230.362757 1029.5 218.238402 987.5 193.98969"></polyline>
            <polyline id="Path" stroke-linecap="round" points="1008.5 206.114046 1029.5 193.98969 1050.5 206.114046 1071.5 193.98969 1071.5 169.740979 1050.5 181.865335 1029.5 169.740979 1050.5 157.616623 1029.5 145.492268 1008.5 157.616623 1008.5 181.865335 966.5 157.616623 966.5 181.865335 945.5 193.98969 966.5 206.114046 945.5 218.238402 924.5 206.114046 924.5 230.362757 903.5 218.238402 903.5 266.735824 882.5 254.611469 882.5 206.114046 903.5 193.98969"></polyline>
            <line x1="987.5" y1="169.740979" x2="987.5" y2="145.492268" id="Path" stroke-linecap="round"></line>
            <polyline id="Path" stroke-linecap="round" points="987.5 266.735824 1008.5 254.611469 1008.5 303.108891"></polyline>
            <polyline id="Path" stroke-linecap="round" points="987.5 290.984536 987.5 315.233247 1029.5 339.481958 1008.5 351.606314 1008.5 375.855025 987.5 363.73067 945.5 387.979381 924.5 375.855025 924.5 400.103737 903.5 387.979381 903.5 339.481958 882.5 351.606314 882.5 303.108891 861.5 315.233247 861.5 290.984536 840.5 303.108891 840.5 278.86018 798.5 303.108891 861.5 339.481958 861.5 387.979381"></polyline>
            <polyline id="Path" stroke-linecap="round" points="861.5 363.73067 882.5 375.855025 882.5 400.103737 840.5 424.352448 819.5 412.228092 840.5 400.103737 840.5 375.855025 819.5 387.979381 798.5 375.855025 819.5 363.73067 798.5 351.606314 756.5 375.855025 798.5 400.103737 756.5 424.352448 756.5 448.601159 714.5 472.84987"></polyline>
            <polyline id="Path" stroke-linecap="round" points="861.5 412.228092 882.5 424.352448 903.5 412.228092 903.5 436.476804 945.5 460.725515 945.5 412.228092 924.5 424.352448"></polyline>
            <line x1="882.5" y1="424.352448" x2="840.5" y2="448.601159" id="Path" stroke-linecap="round"></line>
            <polyline id="Path" stroke-linecap="round" points="840.5 278.86018 819.5 266.735824 756.5 303.108891 840.5 351.606314"></polyline>
            <polyline id="Path" stroke-linecap="round" points="777.5 315.233247 777.5 339.481958 714.5 375.855025 756.5 400.103737 735.5 412.228092 735.5 436.476804 672.5 472.84987"></polyline>
            <polyline id="Path" stroke-linecap="round" points="777.5 290.984536 777.5 266.735824 735.5 290.984536 735.5 315.233247 756.5 327.357603 735.5 339.481958 714.5 327.357603 714.5 351.606314 672.5 375.855025 693.5 387.979381 693.5 412.228092 714.5 400.103737 714.5 424.352448"></polyline>
            <polyline id="Path" stroke-linecap="round" points="693.5 412.228092 672.5 400.103737 672.5 424.352448 693.5 436.476804 672.5 448.601159 651.5 436.476804 651.5 460.725515 609.5 436.476804 609.5 387.979381 588.5 400.103737 588.5 424.352448 567.5 412.228092 567.5 363.73067 546.5 351.606314 546.5 375.855025 525.5 387.979381 525.5 412.228092 546.5 400.103737 546.5 424.352448"></polyline>
            <polyline id="Path" stroke-linecap="round" points="672.5 424.352448 630.5 400.103737 651.5 387.979381 630.5 375.855025 630.5 351.606314 651.5 339.481958 672.5 351.606314 672.5 327.357603 651.5 315.233247 693.5 290.984536 693.5 266.735824 672.5 254.611469 672.5 278.86018 630.5 254.611469 609.5 266.735824 651.5 290.984536 630.5 303.108891 630.5 327.357603 609.5 315.233247 588.5 327.357603 609.5 339.481958 588.5 351.606314 588.5 375.855025 609.5 363.73067"></polyline>
            <polyline id="Path" stroke-linecap="round" points="630.5 278.86018 567.5 315.233247 567.5 339.481958 525.5 315.233247 546.5 303.108891 462.5 254.611469 483.5 242.487113 462.5 230.362757 462.5 206.114046 483.5 218.238402"></polyline>
            <line x1="504.5" y1="278.86018" x2="462.5" y2="303.108891" id="Path" stroke-linecap="round"></line>
            <polyline id="Path" stroke-linecap="round" points="630.5 254.611469 630.5 206.114046 651.5 193.98969 672.5 206.114046 672.5 230.362757 693.5 218.238402"></polyline>
            <polyline id="Path" stroke-linecap="round" points="672.5 230.362757 651.5 218.238402 651.5 242.487113"></polyline>
            <polyline id="Path" stroke-linecap="round" points="672.5 230.362757 714.5 254.611469 714.5 303.108891 693.5 315.233247 693.5 339.481958"></polyline>
            <line x1="630.5" y1="375.855025" x2="651.5" y2="363.73067" id="Path" stroke-linecap="round"></line>
            <line x1="651.5" y1="412.228092" x2="630.5" y2="424.352448" id="Path" stroke-linecap="round"></line>
            <polyline id="Path" stroke-linecap="round" points="1008.5 351.606314 966.5 327.357603 966.5 351.606314 945.5 339.481958 924.5 351.606314 945.5 363.73067"></polyline>
            <polyline id="Path" stroke-linecap="round" points="777.5 242.487113 756.5 254.611469 756.5 181.865335 714.5 206.114046 714.5 230.362757 735.5 242.487113 735.5 218.238402"></polyline>
            <line x1="735.5" y1="242.487113" x2="735.5" y2="266.735824" id="Path" stroke-linecap="round"></line>
            <polyline id="Path" stroke-linecap="round" points="777.5 169.740979 798.5 181.865335 819.5 169.740979 819.5 145.492268 798.5 157.616623"></polyline>
            <polyline id="Path" stroke-linecap="round" points="819.5 145.492268 840.5 157.616623 861.5 145.492268 861.5 121.243557"></polyline>
            <line x1="756.5" y1="109.119201" x2="777.5" y2="96.9948452" id="Path" stroke-linecap="round"></line>
            <polyline id="Path" stroke-linecap="round" points="882.5 60.6217783 903.5 48.4974226 882.5 36.373067"></polyline>
            <polyline id="Path" stroke-linecap="round" points="840.5 12.1243557 861.5 7.81597009e-14 903.5 24.2487113 903.5 7.81597009e-14"></polyline>
            <polyline id="Path" stroke-linecap="round" points="903.5 24.2487113 924.5 12.1243557 945.5 24.2487113 945.5 7.81597009e-14"></polyline>
            <polyline id="Path" stroke-linecap="round" points="945.5 24.2487113 924.5 36.373067 924.5 60.6217783 945.5 72.7461339 945.5 96.9948452 966.5 109.119201 945.5 121.243557 924.5 109.119201 924.5 84.8704896"></polyline>
            <polyline id="Path" stroke-linecap="round" points="819.5 7.81597009e-14 798.5 12.1243557 777.5 7.81597009e-14 777.5 24.2487113 756.5 12.1243557 735.5 24.2487113 756.5 36.373067 714.5 60.6217783 735.5 72.7461339 714.5 84.8704896"></polyline>
            <line x1="735.5" y1="48.4974226" x2="756.5" y2="60.6217783" id="Path" stroke-linecap="round"></line>
            <polyline id="Path" stroke-linecap="round" points="735.5 24.2487113 735.5 7.81597009e-14 693.5 24.2487113 672.5 12.1243557 693.5 7.81597009e-14"></polyline>
            <polyline id="Path" stroke-linecap="round" points="714.5 12.1243557 714.5 36.373067 693.5 48.4974226 672.5 36.373067"></polyline>
            <polyline id="Path" stroke-linecap="square" points="819.5 7.67472436e-14 861.5 24.2487113 861.5 48.4974226 840.5 36.373067 840.5 60.6217783 819.5 48.4974226 819.5 24.2487113 777.5 48.4974226 798.5 60.6217783 777.5 72.7461339 798.5 84.8704896 798.5 109.119201 819.5 96.9948452 819.5 72.7461339 840.5 84.8704896 882.5 60.6217783 903.5 72.7461339 903.5 121.243557 924.5 133.367912 903.5 145.492268 882.5 133.367912 882.5 157.616623 924.5 181.865335 945.5 169.740979 924.5 157.616623 987.5 121.243557 1008.5 133.367912 1008.5 109.119201 1050.5 133.367912 1071.5 121.243557 1113.5 145.492268 1092.5 157.616623 1113.5 169.740979 1092.5 181.865335 1113.5 193.98969 1092.5 206.114046 1113.5 218.238402 1092.5 230.362757 1113.5 242.487113 1155.5 218.238402 1134.5 206.114046 1155.5 193.98969 1134.5 181.865335 1155.5 169.740979 1134.5 157.616623 1197.5 121.243557 1218.5 133.367912 1197.5 145.492268 1197.5 193.98969 1218.5 181.865335 1218.5 230.362757 1197.5 218.238402 1197.5 242.487113 1239.5 266.735824 1239.5 290.984536 1260.5 303.108891 1344.5 254.611469 1344.5 278.86018 1365.5 290.984536 1428.5 254.611469 1407.5 242.487113 1428.5 230.362757 1449.5 242.487113 1449.5 218.238402 1470.5 206.114046 1449.5 193.98969 1449.5 169.740979 1470.5 181.865335 1491.5 169.740979 1491.5 145.492268 1533.5 121.243557 1533.5 96.9948452 1554.5 84.8704896 1554.5 36.373067 1575.5 24.2487113 1554.5 12.1243557 1575.5 0 1596.5 12.1243557 1596.5 60.6217783 1575.5 48.4974226 1575.5 72.7461339 1596.5 84.8704896 1575.5 96.9948452 1575.5 121.243557 1596.5 133.367912 1575.5 145.492268 1554.5 133.367912 1533.5 145.492268 1533.5 193.98969 1512.5 206.114046 1512.5 230.362757 1491.5 242.487113 1512.5 254.611469 1512.5 278.86018 1533.5 290.984536 1512.5 303.108891 1512.5 327.357603 1533.5 315.233247 1554.5 327.357603 1575.5 315.233247 1596.5 327.357603 1596.5 351.606314 1638.5 375.855025 1638.5 400.103737 1617.5 387.979381 1596.5 400.103737 1638.5 424.352448 1659.5 412.228092 1659.5 436.476804 1638.5 448.601159 1659.5 460.725515 1659.5 509.222937 1638.5 521.347293 1638.5 472.84987 1617.5 484.974226 1617.5 533.471649 1638.5 545.596004 1575.5 581.969071 1575.5 557.72036 1554.5 545.596004 1554.5 521.347293 1596.5 545.596004 1596.5 521.347293 1575.5 509.222937 1575.5 484.974226 1512.5 448.601159 1533.5 436.476804 1554.5 448.601159 1575.5 436.476804 1575.5 387.979381 1554.5 375.855025 1533.5 387.979381 1554.5 400.103737 1512.5 424.352448 1512.5 400.103737 1491.5 387.979381 1533.5 363.73067 1533.5 339.481958 1470.5 375.855025 1470.5 351.606314 1491.5 339.481958 1449.5 315.233247 1428.5 327.357603 1428.5 303.108891 1407.5 315.233247 1407.5 290.984536 1365.5 315.233247 1386.5 327.357603 1365.5 339.481958 1344.5 327.357603 1344.5 303.108891 1323.5 290.984536 1281.5 315.233247 1302.5 327.357603 1281.5 339.481958 1281.5 363.73067 1260.5 375.855025 1302.5 400.103737 1323.5 387.979381 1344.5 400.103737 1344.5 375.855025 1365.5 363.73067 1365.5 387.979381 1386.5 375.855025 1407.5 387.979381 1407.5 436.476804 1386.5 424.352448 1365.5 436.476804 1386.5 448.601159 1365.5 460.725515 1407.5 484.974226 1386.5 497.098582 1344.5 472.84987 1344.5 497.098582 1323.5 484.974226 1323.5 436.476804 1302.5 448.601159 1302.5 424.352448 1281.5 436.476804 1281.5 412.228092 1239.5 436.476804 1239.5 412.228092 1197.5 436.476804 1197.5 412.228092 1176.5 424.352448 1176.5 400.103737 1155.5 412.228092 1155.5 387.979381 1176.5 375.855025 1176.5 351.606314 1155.5 339.481958 1176.5 327.357603 1113.5 290.984536 1134.5 278.86018 1134.5 254.611469 1071.5 290.984536 1050.5 278.86018 1071.5 266.735824 1071.5 218.238402 1029.5 242.487113 1050.5 254.611469 1029.5 266.735824 1029.5 290.984536 1050.5 303.108891 1029.5 315.233247 1050.5 327.357603 1071.5 315.233247 1092.5 327.357603 1092.5 303.108891 1113.5 315.233247 1113.5 339.481958 1155.5 363.73067 1134.5 375.855025 1134.5 400.103737 1113.5 412.228092 1155.5 436.476804 1155.5 460.725515 1176.5 448.601159 1218.5 472.84987 1239.5 460.725515 1281.5 484.974226 1260.5 497.098582 1281.5 509.222937 1260.5 521.347293 1239.5 509.222937 1218.5 521.347293 1176.5 497.098582 1197.5 484.974226 1176.5 472.84987 1155.5 484.974226 1134.5 472.84987 1134.5 448.601159 1092.5 424.352448 1092.5 400.103737 1050.5 424.352448 1050.5 448.601159 1071.5 460.725515 1071.5 509.222937 1113.5 533.471649 1113.5 509.222937 1134.5 521.347293 1155.5 509.222937 1176.5 521.347293 1113.5 557.72036 1092.5 545.596004 1050.5 569.844716 1071.5 581.969071 1050.5 594.093427 1029.5 581.969071 1008.5 594.093427 1029.5 606.217783 1029.5 630.466494 1050.5 642.59085 1029.5 654.715205 1029.5 678.963917 1050.5 666.839561 1092.5 691.088272 1113.5 678.963917 1113.5 654.715205 1134.5 666.839561 1134.5 715.336984 1155.5 727.461339 1134.5 739.585695 1155.5 751.71005 1176.5 739.585695 1176.5 715.336984 1197.5 703.212628 1197.5 727.461339 1218.5 739.585695 1218.5 763.834406 1197.5 751.71005 1197.5 775.958762 1218.5 788.083117 1218.5 812.331829 1197.5 824.456184 1197.5 800.207473 1134.5 836.58054 1155.5 848.704896 1134.5 860.829251 1092.5 836.58054 1113.5 824.456184 1050.5 788.083117 1050.5 763.834406 1029.5 775.958762 1008.5 763.834406 1008.5 788.083117 987.5 775.958762 987.5 824.456184 966.5 812.331829 966.5 860.829251 945.5 848.704896 945.5 824.456184 903.5 848.704896 861.5 824.456184 861.5 800.207473 840.5 812.331829 819.5 800.207473 819.5 824.456184 798.5 812.331829 798.5 788.083117 777.5 800.207473 777.5 775.958762 756.5 763.834406 714.5 788.083117 714.5 812.331829 672.5 788.083117 672.5 812.331829 630.5 836.58054 672.5 860.829251 735.5 824.456184 798.5 860.829251 798.5 836.58054 840.5 860.829251 840.5 836.58054 882.5 860.829251 882.5 885.077963 903.5 897.202318 903.5 872.953607 924.5 860.829251 945.5 872.953607 945.5 897.202318 987.5 921.45103 966.5 933.575385 966.5 957.824097 945.5 969.948452 945.5 921.45103 924.5 909.326674 903.5 921.45103 861.5 897.202318 861.5 872.953607 840.5 885.077963 840.5 909.326674 861.5 921.45103 840.5 933.575385 861.5 945.699741 861.5 969.948452 840.5 982.072808 882.5 1006.32152 882.5 1030.57023 924.5 1006.32152 924.5 1030.57023 882.5 1054.81894 882.5 1079.06765 861.5 1066.9433 861.5 1018.44587 840.5 1030.57023 840.5 1079.06765"></polyline>
        </g>
    </g>
</svg>